<svg width="1490" height="2043" viewBox="0 0 1490 2043" fill="none" xmlns="http://www.w3.org/2000/svg">
<path d="M603.203 20.3041C671.947 416.323 484.468 634.501 305.079 779.911C298.659 680.483 288.159 608.677 236.624 513.232L211.552 466.797L213.94 519.515C221.171 679.133 163.53 772.568 107.787 862.925C70.2602 923.759 31.4536 986.663 15.0682 1067.37C-13.8651 1209.91 0.776235 1325.36 61.1429 1430.67C124.656 1541.48 238.351 1641.34 418.963 1744.93C427.638 1750.16 436.318 1754.9 445.008 1759.18C431.208 1747.08 419.344 1732.85 411.636 1717.01C410.687 1715.06 409.819 1713.12 408.994 1711.18C88.1416 1521.95 -15.8771 1341.22 38.7309 1072.17C54.2616 995.681 90.2429 937.355 128.338 875.604C179.6 792.508 232.414 706.889 238.192 571.541C271.674 649.163 277.146 713.957 282.387 804.557L283.724 827.668L301.91 813.344C384.542 748.261 488.439 656.725 558.99 525.46C595.862 456.86 620.732 382.335 632.911 303.956C645.758 221.285 644.922 131.684 630.451 37.3214C660.267 50.4547 721.832 82.3721 791.59 146.209C882.354 229.269 1005.1 384.432 1074.42 651.931L1079.43 671.237L1094.21 657.855C1143.49 613.241 1156.95 547.569 1159.56 500.333C1161.77 460.395 1156.87 417.447 1146.13 378.712C1190.55 422.253 1260.15 502.681 1323.65 608.612C1393.97 725.904 1475.41 906.82 1464.05 1102.62C1451.23 1323.61 1324.94 1515.11 1088.32 1672.9C1086.31 1687.45 1080.63 1701.45 1071.39 1712.67C1334.19 1546.91 1474.32 1342.38 1488.15 1104.03C1499.87 902.076 1416.43 716.401 1344.36 596.197C1261.41 457.839 1166.56 358.835 1126.25 328.929L1089.07 301.344L1108.04 343.573C1140.47 415.74 1155.19 549.463 1092.25 625.093C1061.38 512.86 1018.83 411.433 965.628 323.319C920.338 248.315 867.267 182.733 807.891 128.395C706.31 35.4348 622.302 7.86671 618.775 6.73871L599.794 0.666771L603.203 20.3041Z" fill="url(#paint0_radial_34_3220)"/>
<path d="M829.046 1125.45C783.996 1149.36 748.376 1185.58 724.348 1231.49C700.263 1185.61 664.599 1149.43 619.522 1125.58C567.543 1098.07 504.884 1088.45 443.088 1098.47C378.608 1108.94 319.508 1139.92 276.674 1185.72C228.77 1236.93 203.244 1303.81 202.863 1379.11C202.4 1470.26 236.803 1555.75 308.036 1640.47C369.086 1713.09 446.52 1773.65 521.404 1832.23C601.119 1894.58 676.415 1953.47 708.516 2012.24L724.844 2042.13L741.135 2012.22C773.164 1953.41 848.387 1894.42 928.027 1831.97C1002.84 1773.31 1080.2 1712.65 1141.16 1639.97C1212.29 1555.16 1246.59 1469.62 1246.01 1378.47C1245.54 1303.17 1219.94 1236.33 1171.97 1185.17C1129.08 1139.43 1069.94 1108.52 1005.45 1098.13C989.607 1095.58 973.718 1094.32 957.964 1094.32C912.236 1094.32 867.679 1104.94 829.046 1125.45ZM741.978 1284.66C784.311 1159.31 901.838 1119.07 999.536 1134.81C1103.07 1151.49 1207.94 1233.37 1208.86 1378.71C1210.02 1563.63 1048.03 1690.66 905.102 1802.74C833.295 1859.04 764.944 1912.64 724.799 1968.66C684.586 1912.69 616.168 1859.17 544.296 1802.96C401.234 1691.06 239.08 1564.23 240.018 1379.3C240.755 1233.96 345.531 1151.95 449.042 1135.15C462.408 1132.98 476.14 1131.86 490.008 1131.86C577.486 1131.86 670.11 1176.53 706.783 1284.68L724.412 1336.67L741.978 1284.66Z" fill="url(#paint1_radial_34_3220)"/>
<defs>
<radialGradient id="paint0_radial_34_3220" cx="0" cy="0" r="1" gradientUnits="userSpaceOnUse" gradientTransform="translate(745 894.494) scale(786.989 850.064)">
<stop stop-color="#B02E60"/>
<stop offset="0.523746" stop-color="#F7C18F"/>
<stop offset="1" stop-color="#B02E60"/>
</radialGradient>
<radialGradient id="paint1_radial_34_3220" cx="0" cy="0" r="1" gradientUnits="userSpaceOnUse" gradientTransform="translate(682.408 1468.38) rotate(27.098) scale(495.907 495.907)">
<stop stop-color="#B02E60"/>
<stop offset="0.523746" stop-color="#D8608E"/>
<stop offset="1" stop-color="#B02E60"/>
</radialGradient>
</defs>
</svg>
