<svg width="4112" height="5211" viewBox="0 0 4112 5211" fill="none" xmlns="http://www.w3.org/2000/svg">
<path d="M3244.46 370.721C3248.4 521.525 3169.77 593.252 3097.84 638.311C3100.74 600.995 3100.72 573.751 3087.24 535.643L3080.67 517.103L3078.77 536.837C3073.02 596.588 3047.47 628.446 3022.75 659.255C3006.12 679.997 2988.91 701.445 2978.82 730.645C2960.99 782.223 2960.2 825.912 2976.34 868.138C2993.32 912.563 3028.87 955.446 3088.21 1003.09C3091.05 1005.47 3093.92 1007.67 3096.81 1009.7C3092.49 1004.51 3088.98 998.616 3087.05 992.334C3086.81 991.561 3086.6 990.795 3086.4 990.031C2981.25 903.458 2953.4 830.976 2987.05 733.625C2996.62 705.95 3012.57 686.063 3029.46 665.008C3052.19 636.675 3075.6 607.482 3084.75 557.416C3092.7 587.983 3091.27 612.366 3088.41 646.338L3087.68 655.004L3094.95 650.591C3127.99 630.541 3170.03 601.72 3202.19 556.438C3219 532.773 3231.81 506.299 3240.28 477.752C3249.21 447.641 3253.59 414.262 3253.34 378.425C3263.34 384.814 3283.75 399.792 3305.43 427.058C3333.63 462.535 3369.53 526.45 3380.4 629.467L3381.19 636.902L3387.19 632.668C3407.19 618.553 3415.45 594.798 3418.86 577.355C3421.74 562.607 3422.23 546.381 3420.4 531.429C3434.05 549.867 3454.8 583.298 3472.04 625.91C3491.12 673.093 3510.86 744.507 3496.55 816.785C3480.39 898.359 3425.09 963.24 3332 1010.02C3330.52 1015.34 3327.75 1020.26 3323.85 1023.97C3426.75 975.538 3487.69 906.504 3505.12 818.521C3519.88 743.975 3499.67 670.689 3480.11 622.335C3457.6 566.678 3428.76 525.063 3415.87 511.905L3403.99 499.768L3408.58 516.436C3416.43 544.92 3414.72 595.414 3388.2 620.38C3383 577.068 3373.04 537.188 3358.57 501.723C3346.25 471.535 3330.65 444.461 3312.2 421.251C3280.64 381.546 3251.96 367.056 3250.75 366.458L3244.26 363.243L3244.46 370.721Z" fill="url(#paint0_radial_34_3276)"/>
<path d="M3267.65 793.276C3250.25 799.902 3235.58 811.581 3224.57 827.454C3218.33 809.167 3207.43 793.912 3192.51 782.764C3175.31 769.91 3153.35 763.172 3130.67 763.789C3107 764.434 3084.19 772.983 3066.43 787.862C3046.58 804.502 3033.93 828.097 3029.85 856.095C3024.92 889.984 3032.79 923.526 3053.9 958.637C3071.99 988.728 3096.59 1015.16 3120.38 1040.73C3145.71 1067.95 3169.63 1093.65 3178.06 1117.14L3182.36 1129.08L3189.76 1118.77C3204.32 1098.51 3234.38 1080.35 3266.2 1061.13C3296.1 1043.07 3327.01 1024.4 3352.67 1000.43C3382.61 972.463 3399.38 942.368 3403.94 908.428C3407.71 880.387 3402.02 854.227 3387.49 832.776C3374.51 813.597 3354.92 799.116 3332.33 792.001C3326.79 790.254 3321.16 788.984 3315.51 788.191C3299.11 785.886 3282.58 787.592 3267.65 793.276ZM3228.11 848.121C3249.84 803.618 3294.09 794.57 3328.3 805.352C3364.55 816.773 3397.87 852.523 3390.6 906.642C3381.35 975.503 3316.62 1014.6 3259.51 1049.1C3230.82 1066.43 3203.51 1082.92 3186.18 1101.74C3174.69 1078.89 3152.95 1055.53 3130.12 1031C3084.67 982.153 3033.16 926.794 3043.17 858.038C3051.03 804.001 3092.89 778.77 3130.88 777.734C3135.79 777.601 3140.77 777.875 3145.75 778.574C3177.11 782.982 3207.99 804.269 3215.49 846.356L3219.09 866.588L3228.11 848.121Z" fill="url(#paint1_radial_34_3276)"/>
<path d="M1550.1 3040.93C1555.4 3414.44 1372.54 3594.11 1205.8 3707.54C1213.4 3615.02 1214.06 3547.53 1183.96 3453.45L1169.32 3407.69L1164.45 3456.62C1149.7 3604.8 1090.06 3684.37 1032.39 3761.31C993.561 3813.12 953.409 3866.68 929.433 3939.28C887.088 4067.51 884.182 4175.76 920.284 4279.97C958.268 4389.61 1039.04 4494.95 1174.49 4611.5C1180.96 4617.34 1187.51 4622.71 1194.11 4627.67C1184.31 4614.9 1176.37 4600.4 1172.07 4584.88C1171.54 4582.97 1171.08 4581.08 1170.65 4579.19C930.7 4367.35 868.396 4188.48 948.316 3946.46C971.042 3877.65 1008.27 3827.98 1047.68 3775.4C1100.72 3704.63 1155.37 3631.72 1177.69 3507.46C1195.22 3582.99 1191.33 3643.43 1183.89 3727.66L1182 3749.15L1198.85 3738.04C1275.41 3687.54 1372.93 3615.08 1448.12 3502.09C1487.42 3443.04 1517.59 3377.13 1537.8 3306.19C1559.11 3231.37 1570.05 3148.57 1570.36 3059.79C1593.23 3075.37 1639.85 3111.96 1689.07 3178.97C1753.12 3266.15 1834.18 3423.6 1856.62 3678.55L1858.24 3696.95L1872.17 3686.31C1918.58 3650.84 1938.2 3591.78 1946.48 3548.48C1953.48 3511.87 1955.01 3471.66 1951.18 3434.66C1982.15 3479.99 2029.09 3562.3 2067.7 3667.43C2110.45 3783.85 2154.12 3960.28 2119.35 4139.7C2080.11 4342.2 1951.16 4504.33 1735.63 4622.56C1732.09 4635.77 1725.59 4648.02 1716.51 4657.31C1954.66 4534.75 2096.72 4362.2 2139.04 4143.79C2174.9 3958.73 2130.2 3777.68 2086.38 3658.37C2035.95 3521.05 1970.6 3418.68 1941.25 3386.4L1914.18 3356.63L1924.34 3397.81C1941.71 3468.18 1936.5 3593.32 1874.8 3655.84C1863.92 3548.66 1842 3450.11 1809.57 3362.61C1781.96 3288.13 1746.72 3221.45 1704.82 3164.41C1633.14 3066.84 1567.46 3031.66 1564.7 3030.21L1549.84 3022.4L1550.1 3040.93Z" fill="url(#paint2_radial_34_3276)"/>
<path d="M1592.91 4087.2C1552.67 4104.05 1518.61 4133.36 1492.84 4172.96C1478.94 4127.81 1454.23 4090.29 1420.17 4063.04C1380.89 4031.63 1330.48 4015.49 1278.24 4017.58C1223.73 4019.78 1170.99 4041.53 1129.73 4078.83C1083.6 4120.56 1053.88 4179.33 1043.8 4248.8C1031.59 4332.88 1048.86 4415.78 1096.59 4502.23C1137.5 4576.33 1193.48 4641.21 1247.61 4703.95C1305.24 4770.74 1359.67 4833.82 1378.51 4891.79L1388.09 4921.27L1405.4 4895.55C1439.43 4844.98 1509.1 4799.25 1582.85 4750.83C1652.14 4705.35 1723.78 4658.32 1783.46 4598.29C1853.1 4528.24 1892.47 4453.26 1903.82 4369.07C1913.2 4299.5 1900.76 4234.83 1867.85 4182.06C1838.43 4134.87 1793.69 4099.48 1741.87 4082.42C1729.15 4078.23 1716.21 4075.23 1703.22 4073.4C1665.53 4068.1 1627.42 4072.75 1592.91 4087.2ZM1500.48 4224.07C1551.64 4113.27 1653.74 4089.75 1732.24 4115.6C1815.43 4142.98 1891.26 4230.72 1873.16 4364.98C1850.13 4535.81 1700.11 4634.29 1567.75 4721.18C1501.25 4764.84 1437.95 4806.39 1397.59 4853.45C1371.7 4797.13 1322.24 4739.8 1270.28 4679.59C1166.86 4559.72 1049.64 4423.86 1074.4 4253.27C1093.87 4119.21 1190.88 4055.65 1278.39 4052.13C1289.69 4051.68 1301.15 4052.23 1312.59 4053.84C1384.7 4063.97 1455.26 4115.93 1471.46 4220.01L1479.25 4270.05L1500.48 4224.07Z" fill="url(#paint3_radial_34_3276)"/>
<path d="M830.262 1209.62C833.388 1341.83 765.331 1404.86 703.116 1444.5C705.687 1411.78 705.729 1387.9 694.148 1354.51L688.514 1338.27L686.836 1355.57C681.755 1407.97 659.622 1435.95 638.218 1463C623.808 1481.22 608.907 1500.06 600.133 1525.68C584.637 1570.93 583.876 1609.23 597.739 1646.23C612.325 1685.14 642.951 1722.67 694.126 1764.34C696.573 1766.42 699.043 1768.34 701.538 1770.12C697.82 1765.57 694.798 1760.41 693.138 1754.91C692.933 1754.23 692.754 1753.56 692.587 1752.89C601.914 1677.18 577.992 1613.69 607.24 1528.27C615.556 1503.99 629.372 1486.53 644 1468.04C663.684 1443.15 683.963 1417.51 691.959 1373.6C698.767 1400.39 697.491 1421.77 694.959 1451.56L694.313 1459.16L700.601 1455.27C729.172 1437.63 765.541 1412.29 793.407 1372.53C807.97 1351.75 819.088 1328.51 826.454 1303.47C834.223 1277.06 838.073 1247.78 837.919 1216.36C846.549 1221.95 864.149 1235.04 882.822 1258.9C907.118 1289.96 938.01 1345.93 947.21 1436.22L947.874 1442.74L953.065 1439.02C970.372 1426.61 977.551 1405.76 980.525 1390.47C983.04 1377.53 983.492 1363.3 981.944 1350.2C993.699 1366.34 1011.56 1395.61 1026.37 1432.94C1042.76 1474.27 1059.69 1536.84 1047.19 1600.24C1033.08 1671.79 985.197 1728.77 904.693 1769.96C903.405 1774.62 901.004 1778.94 897.627 1782.2C986.605 1739.55 1039.38 1678.91 1054.59 1601.74C1067.48 1536.36 1050.15 1472.14 1033.35 1429.79C1014.01 1381.03 989.18 1344.6 978.07 1333.09L967.823 1322.47L971.761 1337.07C978.491 1362.03 976.917 1406.31 953.96 1428.24C949.55 1390.28 941.025 1355.33 928.591 1324.27C918.006 1297.82 904.58 1274.12 888.686 1253.8C861.495 1219.05 836.746 1206.4 835.706 1205.88L830.107 1203.07L830.262 1209.62Z" fill="url(#paint4_radial_34_3276)"/>
<path d="M849.515 1580.05C834.47 1585.89 821.779 1596.16 812.233 1610.1C806.88 1594.08 797.495 1580.72 784.631 1570.97C769.797 1559.74 750.837 1553.87 731.242 1554.45C710.796 1555.06 691.075 1562.6 675.711 1575.68C658.529 1590.3 647.559 1611.01 643.988 1635.57C639.665 1665.29 646.397 1694.68 664.569 1725.43C680.143 1751.77 701.343 1774.91 721.845 1797.28C743.669 1821.09 764.283 1843.58 771.528 1864.16L775.213 1874.62L781.63 1865.57C794.244 1847.77 820.242 1831.8 847.766 1814.89C873.621 1799.01 900.358 1782.58 922.567 1761.51C948.481 1736.94 963.023 1710.52 967.026 1680.76C970.332 1656.16 965.469 1633.24 952.961 1614.46C941.778 1597.67 924.883 1585.01 905.39 1578.81C900.603 1577.29 895.74 1576.19 890.862 1575.5C876.703 1573.51 862.419 1575.04 849.515 1580.05ZM815.254 1628.21C834.111 1589.15 872.348 1581.14 901.878 1590.53C933.171 1600.47 961.891 1631.75 955.51 1679.22C947.39 1739.61 891.403 1774 842.008 1804.35C817.191 1819.6 793.568 1834.11 778.569 1850.65C768.683 1830.63 749.952 1810.19 730.275 1788.72C691.108 1745.99 646.713 1697.55 655.484 1637.25C662.377 1589.86 698.581 1567.66 731.404 1566.68C735.642 1566.55 739.946 1566.78 744.24 1567.39C771.327 1571.19 797.959 1589.8 804.355 1626.69L807.43 1644.42L815.254 1628.21Z" fill="url(#paint5_radial_34_3276)"/>
<path d="M2052.77 1110.62C2056.93 1309.61 1955.96 1404.73 1863.73 1464.62C1867.66 1415.35 1867.8 1379.4 1850.78 1329.19L1842.5 1304.76L1839.95 1330.82C1832.25 1409.7 1799.39 1451.89 1767.61 1492.7C1746.21 1520.17 1724.09 1548.57 1711.01 1587.17C1687.91 1655.34 1686.65 1713 1707.03 1768.62C1728.48 1827.15 1773.68 1883.53 1849.28 1946.06C1852.89 1949.19 1856.54 1952.07 1860.23 1954.73C1854.74 1947.9 1850.29 1940.15 1847.85 1931.87C1847.55 1930.85 1847.29 1929.84 1847.04 1928.83C1713.1 1815.21 1677.92 1719.72 1721.52 1591.05C1733.92 1554.47 1754.43 1528.13 1776.15 1500.25C1805.37 1462.73 1835.48 1424.06 1847.47 1357.94C1857.45 1398.23 1855.49 1430.42 1851.63 1475.26L1850.65 1486.7L1859.97 1480.84C1902.33 1454.18 1956.25 1415.9 1997.64 1355.96C2019.27 1324.63 2035.81 1289.62 2046.8 1251.89C2058.39 1212.1 2064.2 1168.03 2064.08 1120.74C2076.84 1129.11 2102.84 1148.76 2130.39 1184.61C2166.25 1231.26 2211.77 1315.4 2225.06 1451.28L2226.02 1461.09L2233.72 1455.47C2259.38 1436.72 2270.08 1405.32 2274.54 1382.28C2278.31 1362.8 2279.03 1341.39 2276.78 1321.67C2294.13 1345.92 2320.46 1389.91 2342.25 1446.05C2366.36 1508.2 2391.19 1602.33 2372.46 1697.79C2351.33 1805.54 2280.24 1891.48 2160.93 1953.77C2159.01 1960.79 2155.44 1967.3 2150.43 1972.22C2282.29 1907.7 2360.61 1816.24 2383.41 1700.03C2402.72 1601.57 2377.31 1504.98 2352.59 1441.28C2324.14 1367.97 2287.51 1313.22 2271.11 1295.93L2255.98 1279.98L2261.76 1301.95C2271.63 1339.49 2269.14 1406.14 2235.08 1439.24C2228.69 1382.12 2216.2 1329.55 2197.91 1282.83C2182.33 1243.06 2162.55 1207.43 2139.09 1176.91C2098.97 1124.7 2062.38 1105.74 2060.85 1104.96L2052.57 1100.76L2052.77 1110.62Z" fill="url(#paint6_radial_34_3276)"/>
<path d="M2079.94 1668.12C2057.65 1676.96 2038.83 1692.46 2024.65 1713.47C2016.78 1689.38 2002.94 1669.31 1983.93 1654.69C1962.02 1637.83 1933.97 1629.06 1904.97 1630.01C1874.7 1631 1845.49 1642.42 1822.7 1662.16C1797.21 1684.23 1780.9 1715.45 1775.53 1752.42C1769.02 1797.17 1778.88 1841.39 1805.67 1887.6C1828.63 1927.2 1859.92 1961.94 1890.19 1995.54C1922.41 2031.31 1952.84 2065.09 1963.49 2096.03L1968.91 2111.77L1978.44 2098.12C1997.17 2071.29 2035.71 2047.15 2076.51 2021.6C2114.84 1997.6 2154.47 1972.78 2187.42 1940.99C2225.87 1903.91 2247.49 1864.09 2253.52 1819.28C2258.5 1782.25 2251.38 1747.76 2232.94 1719.54C2216.44 1694.3 2191.48 1675.31 2162.65 1666.05C2155.57 1663.78 2148.38 1662.14 2141.16 1661.12C2120.21 1658.18 2099.06 1660.53 2079.94 1668.12ZM2029.06 1740.73C2057.11 1681.87 2113.73 1669.67 2157.41 1683.7C2203.69 1698.55 2246.09 1745.54 2236.48 1817C2224.24 1907.92 2141.25 1959.9 2068.02 2005.76C2031.24 2028.8 1996.22 2050.73 1973.96 2075.67C1959.4 2045.58 1931.75 2014.88 1902.7 1982.64C1844.88 1918.45 1779.34 1845.7 1792.54 1754.9C1802.91 1683.55 1856.58 1650 1905.16 1648.41C1911.44 1648.21 1917.81 1648.54 1924.16 1649.43C1964.24 1655.07 2003.59 1682.98 2012.93 1738.47L2017.42 1765.15L2029.06 1740.73Z" fill="url(#paint7_radial_34_3276)"/>
<path d="M605.636 2421.44C609.789 2620.43 508.827 2715.55 416.595 2775.43C420.519 2726.17 420.666 2690.22 403.644 2640.01L395.363 2615.58L392.817 2641.63C385.109 2720.52 352.248 2762.71 320.469 2803.51C299.075 2830.99 276.951 2859.39 263.872 2897.98C240.772 2966.15 239.51 3023.81 259.897 3079.44C281.346 3137.97 326.543 3194.35 402.142 3256.88C405.755 3260 409.405 3262.89 413.092 3265.55C407.605 3258.72 403.151 3250.97 400.713 3242.69C400.413 3241.67 400.149 3240.66 399.905 3239.65C265.964 3126.02 230.784 3030.54 274.382 2901.87C286.779 2865.29 307.292 2838.95 329.009 2811.07C358.234 2773.54 388.343 2734.88 400.336 2668.76C410.317 2709.05 408.35 2741.23 404.496 2786.08L403.513 2797.52L412.834 2791.66C455.188 2765 509.111 2726.72 550.499 2666.77C572.13 2635.45 588.671 2600.43 599.662 2562.71C611.256 2522.92 617.06 2478.85 616.945 2431.56C629.7 2439.93 655.704 2459.57 683.257 2495.43C719.108 2542.08 764.633 2626.21 777.925 2762.1L778.885 2771.91L786.583 2766.28C812.244 2747.54 822.945 2716.14 827.402 2693.1C831.171 2673.62 831.891 2652.21 829.647 2632.49C846.989 2656.74 873.324 2700.73 895.108 2756.86C919.227 2819.02 944.048 2913.14 925.324 3008.61C904.189 3116.36 833.104 3202.3 713.797 3264.59C711.873 3271.61 708.304 3278.12 703.294 3283.04C835.149 3218.52 913.477 3127.06 936.271 3010.85C955.584 2912.39 930.172 2815.79 905.454 2752.1C877.002 2678.78 840.377 2624.04 823.974 2606.75L808.845 2590.8L814.621 2612.77C824.494 2650.31 822.005 2716.96 787.946 2750.06C781.554 2692.93 769.061 2640.36 750.768 2593.65C735.196 2553.88 715.408 2518.25 691.956 2487.73C651.832 2435.51 615.245 2416.56 613.707 2415.78L605.43 2411.57L605.636 2421.44Z" fill="url(#paint8_radial_34_3276)"/>
<path d="M632.803 2978.93C610.511 2987.78 591.69 3003.28 577.511 3024.29C569.644 3000.2 555.801 2980.13 536.795 2965.5C514.879 2948.64 486.835 2939.88 457.829 2940.83C427.563 2941.82 398.346 2953.23 375.558 2972.97C350.074 2995.05 333.761 3026.26 328.387 3063.23C321.881 3107.99 331.741 3152.2 358.528 3198.41C381.486 3238.02 412.783 3272.76 443.048 3306.36C475.267 3342.12 505.699 3375.91 516.349 3406.85L521.766 3422.58L531.296 3408.94C550.031 3382.11 588.569 3357.97 629.37 3332.42C667.698 3308.41 707.331 3283.59 740.28 3251.81C778.725 3214.72 800.345 3174.91 806.377 3130.09C811.359 3093.07 804.242 3058.58 785.796 3030.35C769.304 3005.12 744.342 2986.13 715.511 2976.87C708.43 2974.6 701.237 2972.95 694.019 2971.94C673.068 2969 651.919 2971.35 632.803 2978.93ZM581.917 3051.54C609.968 2992.69 666.594 2980.49 710.27 2994.51C756.554 3009.37 798.952 3056.35 789.337 3127.81C777.101 3218.74 694.108 3270.72 620.885 3316.58C584.097 3339.62 549.08 3361.55 526.818 3386.48C512.258 3356.4 484.606 3325.7 455.558 3293.45C397.737 3229.26 332.199 3156.51 345.397 3065.72C355.77 2994.36 409.438 2960.82 458.025 2959.23C464.299 2959.03 470.668 2959.36 477.022 2960.25C517.102 2965.88 556.455 2993.79 565.791 3049.29L570.278 3075.97L581.917 3051.54Z" fill="url(#paint9_radial_34_3276)"/>
<path d="M3420.82 2328.18C3426 2529.5 3321.25 2625.29 3225.43 2685.48C3229.31 2635.66 3229.31 2599.29 3211.36 2548.42L3202.63 2523.68L3200.09 2550.02C3192.4 2629.79 3158.36 2672.33 3125.43 2713.47C3103.26 2741.17 3080.34 2769.81 3066.89 2808.79C3043.12 2877.66 3042.05 2935.98 3063.53 2992.34C3086.12 3051.64 3133.44 3108.87 3212.45 3172.45C3216.23 3175.63 3220.04 3178.56 3223.89 3181.27C3218.15 3174.33 3213.48 3166.47 3210.9 3158.09C3210.58 3157.06 3210.3 3156.03 3210.05 3155.01C3070.05 3039.49 3032.99 2942.74 3077.85 2812.77C3090.6 2775.82 3111.86 2749.26 3134.36 2721.15C3164.64 2683.31 3195.83 2644.33 3208.04 2577.49C3218.61 2618.29 3216.7 2650.84 3212.88 2696.2L3211.9 2707.76L3221.59 2701.87C3265.59 2675.09 3321.59 2636.6 3364.44 2576.13C3386.84 2544.53 3403.92 2509.18 3415.2 2471.07C3427.11 2430.87 3432.96 2386.31 3432.64 2338.47C3445.96 2346.99 3473.13 2366.98 3501.98 2403.36C3539.53 2450.71 3587.31 2536.02 3601.74 2673.54L3602.78 2683.46L3610.77 2677.81C3637.42 2658.96 3648.43 2627.24 3652.97 2603.95C3656.82 2584.26 3657.47 2562.6 3655.05 2542.64C3673.22 2567.25 3700.84 2611.87 3723.77 2668.75C3749.16 2731.73 3775.42 2827.05 3756.33 2923.55C3734.78 3032.45 3661.1 3119.09 3537.1 3181.59C3535.13 3188.68 3531.44 3195.25 3526.24 3200.21C3663.3 3135.51 3744.5 3043.32 3767.74 2925.86C3787.43 2826.34 3760.55 2728.51 3734.53 2663.97C3704.58 2589.68 3666.19 2534.14 3649.03 2516.58L3633.21 2500.38L3639.32 2522.63C3649.76 2560.65 3647.46 2628.06 3612.12 2661.4C3605.22 2603.59 3591.98 2550.35 3572.73 2503.02C3556.34 2462.72 3535.57 2426.59 3511.01 2395.61C3469 2342.62 3430.81 2323.29 3429.2 2322.49L3420.56 2318.2L3420.82 2328.18Z" fill="url(#paint10_radial_34_3276)"/>
<path d="M3451.51 2892.27C3428.33 2901.12 3408.79 2916.72 3394.11 2937.92C3385.82 2913.51 3371.31 2893.15 3351.45 2878.27C3328.55 2861.12 3299.3 2852.13 3269.1 2852.97C3237.58 2853.84 3207.19 2865.26 3183.54 2885.13C3157.09 2907.36 3140.24 2938.86 3134.8 2976.24C3128.21 3021.48 3138.67 3066.26 3166.77 3113.12C3190.86 3153.28 3223.6 3188.56 3255.27 3222.68C3288.98 3259 3320.83 3293.3 3332.05 3324.65L3337.76 3340.59L3347.63 3326.83C3367.03 3299.77 3407.07 3275.52 3449.46 3249.84C3489.27 3225.73 3530.45 3200.79 3564.63 3168.78C3604.52 3131.42 3626.87 3091.24 3632.96 3045.93C3637.99 3008.49 3630.42 2973.57 3611.09 2944.94C3593.8 2919.35 3567.72 2900.03 3537.65 2890.54C3530.27 2888.21 3522.77 2886.51 3515.24 2885.46C3493.41 2882.39 3471.39 2884.67 3451.51 2892.27ZM3398.82 2965.5C3427.79 2906.08 3486.72 2893.98 3532.27 2908.36C3580.54 2923.59 3624.9 2971.3 3615.2 3043.55C3602.84 3135.48 3516.62 3187.71 3440.55 3233.78C3402.33 3256.93 3365.95 3278.97 3342.87 3304.1C3327.58 3273.6 3298.64 3242.43 3268.25 3209.68C3207.74 3144.5 3139.17 3070.62 3152.52 2978.83C3163.02 2906.69 3218.78 2872.98 3269.38 2871.58C3275.91 2871.4 3282.55 2871.77 3289.17 2872.7C3330.94 2878.57 3372.05 2906.97 3382.01 2963.15L3386.8 2990.16L3398.82 2965.5Z" fill="url(#paint11_radial_34_3276)"/>
<defs>
<radialGradient id="paint0_radial_34_3276" cx="0" cy="0" r="1" gradientUnits="userSpaceOnUse" gradientTransform="translate(3249.59 703.113) rotate(8) scale(284.971 319.378)">
<stop stop-color="#A6114A"/>
<stop offset="0.523746" stop-color="#F7C18F"/>
<stop offset="1" stop-color="#A6114A"/>
</radialGradient>
<radialGradient id="paint1_radial_34_3276" cx="0" cy="0" r="1" gradientUnits="userSpaceOnUse" gradientTransform="translate(3197.14 913.474) rotate(35.9643) scale(180.99 184.855)">
<stop stop-color="#A6114A"/>
<stop offset="0.523746" stop-color="#FF67A2"/>
<stop offset="1" stop-color="#A6114A"/>
</radialGradient>
<radialGradient id="paint2_radial_34_3276" cx="0" cy="0" r="1" gradientUnits="userSpaceOnUse" gradientTransform="translate(1553.59 3864.28) rotate(8) scale(655.144 792.365)">
<stop stop-color="#A6114A"/>
<stop offset="0.523746" stop-color="#F7C18F"/>
<stop offset="1" stop-color="#A6114A"/>
</radialGradient>
<radialGradient id="paint3_radial_34_3276" cx="0" cy="0" r="1" gradientUnits="userSpaceOnUse" gradientTransform="translate(1427.54 4386.75) rotate(37.81) scale(423.556 450.538)">
<stop stop-color="#A6114A"/>
<stop offset="0.523746" stop-color="#FF67A2"/>
<stop offset="1" stop-color="#A6114A"/>
</radialGradient>
<radialGradient id="paint4_radial_34_3276" cx="0" cy="0" r="1" gradientUnits="userSpaceOnUse" gradientTransform="translate(834.081 1501.04) rotate(8) scale(246.084 280.093)">
<stop stop-color="#A6114A"/>
<stop offset="0.523746" stop-color="#F7C18F"/>
<stop offset="1" stop-color="#A6114A"/>
</radialGradient>
<radialGradient id="paint5_radial_34_3276" cx="0" cy="0" r="1" gradientUnits="userSpaceOnUse" gradientTransform="translate(788.384 1685.56) rotate(36.3329) scale(156.831 161.56)">
<stop stop-color="#A6114A"/>
<stop offset="0.523746" stop-color="#FF67A2"/>
<stop offset="1" stop-color="#A6114A"/>
</radialGradient>
<radialGradient id="paint6_radial_34_3276" cx="0" cy="0" r="1" gradientUnits="userSpaceOnUse" gradientTransform="translate(2057.38 1549.24) rotate(8) scale(364.122 421.734)">
<stop stop-color="#A6114A"/>
<stop offset="0.523746" stop-color="#F7C18F"/>
<stop offset="1" stop-color="#A6114A"/>
</radialGradient>
<radialGradient id="paint7_radial_34_3276" cx="0" cy="0" r="1" gradientUnits="userSpaceOnUse" gradientTransform="translate(1989.08 1827.15) rotate(36.7522) scale(232.983 242.293)">
<stop stop-color="#A6114A"/>
<stop offset="0.523746" stop-color="#FF67A2"/>
<stop offset="1" stop-color="#A6114A"/>
</radialGradient>
<radialGradient id="paint8_radial_34_3276" cx="0" cy="0" r="1" gradientUnits="userSpaceOnUse" gradientTransform="translate(610.244 2860.06) rotate(8) scale(364.122 421.734)">
<stop stop-color="#A6114A"/>
<stop offset="0.523746" stop-color="#F7C18F"/>
<stop offset="1" stop-color="#A6114A"/>
</radialGradient>
<radialGradient id="paint9_radial_34_3276" cx="0" cy="0" r="1" gradientUnits="userSpaceOnUse" gradientTransform="translate(541.939 3137.97) rotate(36.7522) scale(232.983 242.293)">
<stop stop-color="#A6114A"/>
<stop offset="0.523746" stop-color="#FF67A2"/>
<stop offset="1" stop-color="#A6114A"/>
</radialGradient>
<radialGradient id="paint10_radial_34_3276" cx="0" cy="0" r="1" gradientUnits="userSpaceOnUse" gradientTransform="translate(3427.5 2771.91) rotate(8) scale(379.487 426.378)">
<stop stop-color="#A6114A"/>
<stop offset="0.523746" stop-color="#F7C18F"/>
<stop offset="1" stop-color="#A6114A"/>
</radialGradient>
<radialGradient id="paint11_radial_34_3276" cx="0" cy="0" r="1" gradientUnits="userSpaceOnUse" gradientTransform="translate(3357.55 3052.76) rotate(36.0241) scale(241.153 246.649)">
<stop stop-color="#A6114A"/>
<stop offset="0.523746" stop-color="#FF67A2"/>
<stop offset="1" stop-color="#A6114A"/>
</radialGradient>
</defs>
</svg>
