<svg width="255" height="108" viewBox="0 0 255 108" fill="none" xmlns="http://www.w3.org/2000/svg">
<mask id="mask0_38_3278" style="mask-type:alpha" maskUnits="userSpaceOnUse" x="0" y="0" width="255" height="108">
<rect width="255" height="108" fill="white"/>
</mask>
<g mask="url(#mask0_38_3278)">
<path fill-rule="evenodd" clip-rule="evenodd" d="M122.322 58.5263V72.0526H130.352C138.141 72.0526 138.382 72.0066 138.393 70.5309C138.399 69.6943 138.622 68.3241 138.888 67.4875C139.344 66.0544 139.133 65.9658 135.264 65.9658H131.155V55.4829V45H126.738H122.322V58.5263ZM144.9 52.1899C142.263 53.7448 140.791 57.1608 140.792 61.7172C140.794 69.0112 145.429 73.2051 152.642 72.4395C159.821 71.678 162.042 68.5933 161.533 60.09C161.249 55.3537 161.049 54.8695 158.626 53.0455C156.392 51.3648 155.365 51.0868 151.396 51.0868C148.418 51.0868 146.103 51.4798 144.9 52.1899ZM164.552 52.9136C164.799 53.9544 165.974 58.6109 167.162 63.2605L169.322 71.7145L175.533 71.912C178.949 72.0208 181.744 71.9552 181.744 71.7665C181.744 71.5779 182.828 67.1412 184.153 61.9079C185.478 56.6746 186.562 52.0986 186.562 51.7395C186.562 51.3804 184.763 51.0868 182.563 51.0868C178.034 51.0868 178.401 50.56 176.922 59.1742C176.097 63.9876 175.401 65.9441 175.25 63.8807C175.211 63.3539 174.755 60.3355 174.235 57.1737L173.291 51.425L168.697 51.2228L164.102 51.0199L164.552 52.9136ZM193.399 52.5531C188.854 55.5641 187.593 62.4652 190.626 67.7411C192.831 71.5765 197.228 73.1232 203.538 72.2819L207.842 71.7084L208.08 68.9984L208.317 66.2884L203.281 66.2958C199.173 66.3026 198.195 66.0916 197.973 65.1508C197.739 64.1621 198.538 63.9693 203.574 63.7982L209.448 63.5987L209.711 61.2769C210.131 57.5599 209.098 54.4441 206.869 52.7039C204.009 50.4714 196.665 50.3889 193.399 52.5531ZM152.808 57.8054C154.805 60.9482 153.002 68.3207 150.549 67.0438C149.562 66.5298 149.222 57.7371 150.159 56.9485C151.082 56.1707 151.947 56.4507 152.808 57.8054ZM201.669 58.6954C201.868 59.5746 201.406 59.8789 199.871 59.8789C198.317 59.8789 197.804 59.532 197.804 58.479C197.804 57.4165 198.237 57.1318 199.603 57.2954C200.593 57.4145 201.522 58.0448 201.669 58.6954ZM122.322 88.9605V102.487H126.703H131.084L131.326 97.5836C131.584 92.3522 131.916 92.4807 133.932 98.598L135.215 102.487H139.933H144.652L142.594 96.7402C140.597 91.1613 140.58 90.9543 142.004 89.6287C143.865 87.8967 144.474 81.8335 143.022 79.4921C141.245 76.6286 137.228 75.4362 129.348 75.4356L122.322 75.4342V88.9605ZM151.943 82.5355C149.06 83.855 147.616 87.1324 147.621 92.3421C147.629 100.062 152.359 103.921 160.406 102.776C166.848 101.859 169.683 97.0783 168.503 89.1208C167.681 83.5831 165.006 81.5116 158.72 81.5481C156.146 81.563 153.097 82.0073 151.943 82.5355ZM176.217 82.6241C173.581 84.179 172.108 87.595 172.11 92.1514C172.111 99.5104 176.738 103.641 184.101 102.857C191.254 102.096 193.365 99.1188 192.85 90.5242C192.566 85.7879 192.366 85.3037 189.943 83.4797C187.71 81.799 186.683 81.5211 182.713 81.5211C179.735 81.5211 177.42 81.914 176.217 82.6241ZM197.001 92.0039V102.487H201.418H205.835V95.4579C205.835 90.0514 206.095 88.3451 206.96 88.0651C207.58 87.8649 208.302 87.8832 208.566 88.1057C208.831 88.3275 209.047 91.6543 209.047 95.4985V102.487H213.463H217.88V95.4579C217.88 90.0514 218.14 88.3451 219.006 88.0651C219.625 87.8649 220.347 87.8832 220.612 88.1057C220.876 88.3275 221.092 91.6543 221.092 95.4985V102.487H225.508H229.925V93.1232C229.925 84.9107 229.744 83.6224 228.456 82.6404C226.62 81.2411 221.233 81.1748 218.948 82.5234C217.447 83.408 217.134 83.408 216.262 82.5234C215.084 81.3276 209.674 81.191 207.225 82.2941C205.938 82.8744 205.433 82.8744 205.203 82.2941C205.029 81.8538 203.198 81.5211 200.95 81.5211H197.001V92.0039ZM235.254 83.3038C233.643 84.6612 233.137 85.7616 233.137 87.9109C233.137 91.1802 234.77 92.9887 239.591 95.0602C241.341 95.8123 242.773 96.6157 242.773 96.8464C242.773 97.0763 241.01 97.0892 238.855 96.8741L234.937 96.4832L234.468 98.9145C234.211 100.252 234.168 101.574 234.373 101.853C234.577 102.132 236.538 102.568 238.731 102.822C246.162 103.683 250 101.42 250 96.1802C250 93.3363 248.235 91.2938 244.326 89.6138C240.267 87.8696 240.193 86.7246 244.178 87.3218C245.835 87.57 247.535 87.8121 247.957 87.8595C248.38 87.9068 248.944 86.6631 249.212 85.0954C249.793 81.6935 249.465 81.5211 242.416 81.5211C238.036 81.5211 237.092 81.7557 235.254 83.3038ZM133.965 85.2408C133.965 87.2616 133.617 87.9839 132.56 88.1557C131.384 88.3464 131.155 87.8696 131.155 85.2408C131.155 82.6119 131.384 82.1351 132.56 82.3259C133.617 82.4977 133.965 83.22 133.965 85.2408ZM159.902 91.9911C160.16 96.9498 159.346 98.5399 157.286 97.1C155.766 96.0375 155.566 88.9605 157.021 87.735C158.856 86.1897 159.661 87.3813 159.902 91.9911ZM184.125 88.2396C186.122 91.3824 184.32 98.7549 181.866 97.478C180.879 96.964 180.54 88.1713 181.477 87.3827C182.4 86.6049 183.264 86.8849 184.125 88.2396Z" fill="#F9F9F9"/>
<path fill-rule="evenodd" clip-rule="evenodd" d="M60.5356 19.9999C57.7742 19.9999 55.5356 22.2385 55.5356 24.9999V98.0012C55.5356 100.763 57.7742 103.001 60.5356 103.001H112.411C115.172 103.001 117.411 100.763 117.411 98.0012V24.9999C117.411 22.2385 115.172 19.9999 112.411 19.9999H60.5356ZM61.8046 23.3918C60.1478 23.3918 58.8046 24.735 58.8046 26.3918V96.8089C58.8046 98.4657 60.1478 99.8089 61.8047 99.8089H110.908C112.565 99.8089 113.908 98.4657 113.908 96.8089V26.3918C113.908 24.735 112.565 23.3918 110.908 23.3918H61.8046Z" fill="white"/>
<path d="M99.9808 53.8611C96.9921 54.0798 95.0502 56.2216 95.9951 58.2564C96.3984 59.1264 97.3161 59.8619 98.474 60.2442C98.6938 60.3171 98.687 60.3026 98.6213 60.5213C98.5964 60.6039 98.5306 60.8437 98.4763 61.0527C98.4196 61.2617 98.1273 62.3374 97.8282 63.4423C97.5291 64.5472 97.2368 65.6229 97.1802 65.8319C97.1235 66.0409 97.0578 66.2823 97.0352 66.3666C97.0102 66.4508 96.94 66.7133 96.8765 66.9498C96.8131 67.1863 96.727 67.5071 96.6839 67.6626C96.6409 67.8182 96.4324 68.5877 96.2194 69.3718C96.0087 70.156 95.8297 70.8137 95.8229 70.8332V70.8332C95.8173 70.8517 95.8311 70.8704 95.8505 70.8704H100.459H105.039C105.074 70.8704 105.101 70.8372 105.093 70.8024V70.8024C105.077 70.7295 104.628 69.0899 104.513 68.6833C104.476 68.5537 104.359 68.1276 104.252 67.7355C104.143 67.3435 104 66.8251 103.935 66.5853C103.817 66.1641 103.459 64.8599 103.128 63.661C103.042 63.3451 102.945 62.9984 102.915 62.8915C102.886 62.7845 102.743 62.2661 102.598 61.7412C102.453 61.2147 102.306 60.68 102.269 60.5521C102.233 60.4224 102.206 60.3155 102.208 60.3139C102.21 60.3123 102.301 60.2815 102.41 60.2459C104.059 59.7015 105.133 58.5043 105.136 57.2049C105.138 55.9494 104.146 54.7878 102.587 54.2175C101.782 53.9243 100.86 53.7979 99.9808 53.8611Z" fill="black"/>
<path fill-rule="evenodd" clip-rule="evenodd" d="M22.2042 14.6263C21.9791 16.8885 22.0912 19.6145 22.4526 20.683C23.0588 22.4754 22.9788 22.5778 21.4209 21.9928C18.391 20.8549 14.3942 20.7373 10.1115 21.6607L5.90956 22.5663L8.23647 23.9801C9.51651 24.7577 10.7625 25.9829 11.0059 26.7026C11.4857 28.1213 14.0461 28.753 16.2315 27.9916C16.9845 27.7292 19.0219 27.7936 20.7592 28.1343C24.0998 28.7906 27.7729 28.16 26.8606 27.0872C26.5634 26.7365 25.8084 25.7749 25.1847 24.9495C23.4586 22.6662 25.6199 23.4258 28.5364 26.1272C29.8901 27.3818 31.3001 28.3017 31.6692 28.1723C32.0391 28.0426 32.1101 26.4884 31.8285 24.7188C31.5469 22.9492 31.607 20.1892 31.9624 18.5865L32.609 15.672L27.8167 13.2446C25.1803 11.9097 22.9314 10.7491 22.8188 10.6654C22.7053 10.5813 22.4293 12.3641 22.2042 14.6263ZM37.1508 11.8197C31.7089 17.4282 31.3585 24.9587 36.2881 30.3759L38.3385 32.6294L34.3046 30.4461L30.2714 28.2626L23.4572 30.2119C19.71 31.2834 16.5491 32.2797 16.4333 32.4258C15.6769 33.3809 21.7365 38.5642 25.2878 40.0005C27.6197 40.9433 29.1594 41.8433 28.7104 42.0007C28.2607 42.1584 28.2195 42.6645 28.6192 43.1263C29.0187 43.5875 28.5051 46.0156 27.4796 48.5224C20.2241 66.2452 19.8577 80.523 26.5188 85.9999C29.5662 88.5051 35.9414 90.3607 40.2393 89.9932C45.8074 89.5168 55.5049 85.1497 60.8672 80.7035C67.3234 75.351 75.9161 64.4128 81.5439 54.3853L86.3239 45.8678L90.3005 45.6313C94.9762 45.3543 102.202 42.9729 104.842 40.8387C107.372 38.7941 109.06 35.6471 109.824 31.5509C110.752 26.5783 107.001 15.6362 102.176 9.24056C98.9963 5.02547 98.5824 4.7333 97.1141 5.67416C96.2343 6.23685 93.3501 6.92264 90.7043 7.19708C78.9305 8.41964 73.4655 10.92 65.7185 18.6278C62.7664 21.5646 61.2487 22.5636 59.2445 22.8889L56.627 23.3141L54.442 16.8531L52.2573 10.3929L48.7884 12.0583C46.8806 12.975 44.564 14.7289 43.6419 15.9564C41.6936 18.5477 41.0993 24.664 42.5822 26.8662L43.6047 28.3848L42.1838 27.0786C40.3597 25.3997 40.1681 20.6246 41.7717 16.7927C42.6869 14.6075 42.6489 13.6056 41.5782 11.6282C40.0537 8.81456 40.0677 8.81364 37.1508 11.8197ZM5.08756 32.8259C7.84896 36.5562 12.5552 39.8228 16.4527 40.7156C18.7145 41.2345 21.2085 41.433 21.995 41.1573C23.3932 40.6671 23.3791 40.6257 21.3137 39.1977C19.3394 37.8321 14.6137 32.3874 14.1095 30.8965C13.985 30.5284 14.8942 30.4535 16.1303 30.73C17.3657 31.0068 19.3192 30.8952 20.4704 30.482L22.5631 29.7307L20.2304 29.0224C18.4736 28.4895 16.6414 28.7505 12.8129 30.0799C10.0167 31.0507 6.88745 31.732 5.85924 31.5944C4.15214 31.3655 4.08461 31.4723 5.08756 32.8259ZM74.4454 20.7022C75.9288 21.2439 76.992 21.9759 76.8081 22.329C76.6241 22.6821 75.0088 22.3906 73.2183 21.6809C69.3802 20.1589 70.5045 19.2626 74.4454 20.7022ZM70.6968 31.278C72.9116 34.3988 73.6453 36.8398 72.3879 36.9041C70.5822 36.9967 66.6038 32.5283 64.9314 28.5298L63.3181 24.6713L66.2127 26.8543C67.8044 28.055 69.8224 30.0456 70.6968 31.278ZM75.3615 27.632C76.0295 29.6075 74.3227 29.2522 71.3208 26.7918C69.6909 25.4558 68.2673 24.0666 68.1572 23.7038C67.8163 22.581 74.9731 26.4835 75.3615 27.632ZM103.758 14.8466C104.192 15.6752 104.059 17.8891 103.461 19.8066C102.618 22.5044 102.654 23.7573 103.624 25.4805C104.561 27.1428 104.577 27.397 103.688 26.5069C101.76 24.5737 101.52 23.1059 102.569 19.6284C103.796 15.5582 103.332 14.0389 100.604 13.1958L98.4868 12.5414L100.73 12.9461C101.964 13.1683 103.327 14.0232 103.758 14.8466ZM55.8315 33.1464C54.6524 35.4032 54.1103 34.6699 54.5085 31.3573C54.8366 28.6273 54.9174 28.5398 55.7455 30.0267C56.2371 30.9096 56.2751 32.2977 55.8315 33.1464ZM94.3369 15.4745C95.8354 15.4928 94.9514 19.0956 90.8608 29.6418C89.0191 34.3895 88.2357 35.5515 86.6211 35.9249C84.7672 36.3534 84.577 36.1522 83.642 32.777C81.7594 25.9766 83.9563 20.4505 89.774 17.3508C91.4505 16.4577 92.8664 15.6663 92.9191 15.5926C92.9725 15.5188 93.6103 15.4662 94.3369 15.4745ZM62.9818 33.8677C63.635 37.0179 62.0043 36.6511 60.5931 33.3301C58.7917 29.0922 59.0768 26.9129 61.063 29.7437C61.8941 30.9281 62.7576 32.7839 62.9818 33.8677ZM100.282 23.9438C100.485 28.0536 98.4843 31.6778 94.9624 33.5801C93.3915 34.4291 91.961 35.0481 91.7843 34.9565C91.6075 34.865 92.9332 30.5821 94.731 25.4381C97.9986 16.091 98.0006 16.0871 99.0643 18.4699C99.6499 19.7804 100.197 22.2442 100.282 23.9438ZM55.3856 39.1162C58.5876 39.4175 68.1146 43.5786 68.5501 44.8665C68.7422 45.4347 63.7551 50.2626 61.4931 51.6968C58.9552 53.3069 53.5397 53.629 49.999 52.3809C46.9481 51.3055 39.2952 46.2299 39.6631 45.5262C39.7744 45.3121 41.0143 44.2442 42.418 43.1525C46.1598 40.241 51.0765 38.7107 55.3856 39.1162ZM36.0952 51.6033C44.586 60.021 55.2581 64.222 63.4028 62.3523C69.0854 61.0483 73.2061 57.964 77.1449 52.0646C78.9958 49.2924 81.1991 46.7828 82.0413 46.4875C83.3838 46.0168 83.3602 46.3808 81.8499 49.4446C76.6181 60.0551 65.4736 74.3111 57.8041 80.2025C46.3254 89.0203 32.2962 90.0694 26.631 82.5342C24.6456 79.8925 24.3666 79.0078 24.0251 74.2677C23.6112 68.5241 25.6794 58.4735 28.7549 51.2819C29.7788 48.8875 30.7436 46.884 30.8988 46.8296C31.0532 46.7755 33.3915 48.9233 36.0952 51.6033ZM36.517 48.2009C37.0574 50.1003 37.7411 50.6345 40.3573 51.2019C42.1076 51.5811 44.6139 52.2646 45.9265 52.7198C48.0602 53.4603 47.9494 53.4839 44.8771 52.9382C38.0966 51.733 35.5851 50.4662 35.4304 48.1749C35.2412 45.3704 35.715 45.381 36.517 48.2009ZM105.436 29.439C108.957 32.5696 107.29 35.377 100.758 37.3185C97.8702 38.1768 97.2068 38.6444 97.3288 39.7328C97.4248 40.585 98.2088 41.1016 99.4568 41.1341C100.627 41.1652 100.963 41.3719 100.281 41.6415C98.7578 42.2417 96.8457 41.3268 96.3096 39.7416C95.7962 38.2236 98.275 36.4535 101.918 35.7368C105.008 35.1284 106.822 33.4514 106.243 31.739C105.249 28.7994 100.325 29.0314 101.201 31.9758C101.467 32.8713 101.371 33.2537 100.987 32.8239C98.8475 30.4321 102.999 27.2729 105.436 29.439ZM49.2117 55.7491C49.1641 56.403 48.9282 56.2962 48.6105 55.4762C48.3234 54.7343 48.3585 54.2503 48.6889 54.3999C49.0192 54.5495 49.2549 55.1568 49.2117 55.7491ZM56.9093 55.0986C58.1182 55.8652 58.127 55.9212 56.9721 55.4763C53.7302 54.2273 51.6183 57.2614 54.1571 59.5187C55.6706 60.8644 57.8411 60.1762 61.9965 57.0325C65.8862 54.0899 67.6269 53.9897 68.1771 56.678C68.7088 59.2769 67.3691 60.2191 65.5879 58.5003C64.3272 57.2842 64.3358 57.2349 65.6723 58.0223C67.6284 59.1744 68.2371 58.8914 67.6346 57.1097C66.952 55.0913 65.3509 55.2753 62.5479 57.6938C58.965 60.7838 55.9557 61.5903 53.8346 60.0275C50.4512 57.5354 53.3715 52.8549 56.9093 55.0986Z" fill="black"/>
</g>
</svg>
