<svg width="429" height="179" viewBox="0 0 429 179" fill="none" xmlns="http://www.w3.org/2000/svg">
<g filter="url(#filter0_f_20_938)">
<path d="M38.5229 96.9201C31.8349 102.622 30.6539 113.497 35.1531 121.482C24.8392 117.522 12.0834 124.165 10.7663 135.217C10.0915 142.305 15.5074 148.739 21.1828 152.585C30.4358 158.733 41.9408 160.634 52.3447 158.896C59.7391 157.655 67.1157 153.917 70.4724 146.946C75.5098 136.783 74.2398 124.144 69.7365 113.418C66.7265 106.428 62.1276 99.5472 55.5315 95.5036C50.5714 92.5204 44.0524 92.2836 39.7173 95.9246C39.3049 96.239 38.9061 96.5704 38.5234 96.9203L38.5229 96.9201Z" fill="black"/>
</g>
<path d="M38.288 123.884C32.6743 120.815 27.7126 120.353 22.2471 122.473C17.8022 124.101 11.0518 128.87 11.5657 138.447C17.0297 160.022 56.6518 165.72 68.442 148.8C82.3961 126.763 60.5818 86.6895 42.5367 95.2172C38.7882 97.0167 33.1762 102.414 33.3508 110.862C33.4532 115.352 34.4549 120.449 37.9994 123.689C38.3828 123.936 37.8493 123.929 38.2867 123.884L38.288 123.884Z" fill="#961B2C"/>
<path d="M38.288 123.884C32.6743 120.815 27.7126 120.353 22.2471 122.473C17.8022 124.101 11.0518 128.87 11.5657 138.447C17.0297 160.022 56.6518 165.72 68.442 148.8C82.3961 126.763 60.5818 86.6895 42.5367 95.2172C38.7882 97.0167 33.1762 102.414 33.3508 110.862C33.4532 115.352 34.4549 120.449 37.9994 123.689C38.3828 123.936 37.8493 123.929 38.2867 123.884L38.288 123.884Z" fill="url(#paint0_linear_20_938)"/>
<path d="M40.6395 98.9558C34.3739 104.195 33.2747 114.903 38.8698 121.677C40.4182 122.634 40.874 125.751 38.7059 125.906C35.9677 125.366 33.5968 123.214 30.7573 123.253C23.233 122.386 15.3569 127.235 13.7813 134.689C13.4111 136.746 13.2218 139.514 14.7966 141.332C24.667 142.263 35.0647 140.069 42.1278 133.127C50.6718 125.575 57.8754 116.354 62.3121 105.692C58.8178 100.779 53.5637 96.0641 47.4623 96.0716C44.8816 96.0779 42.5266 97.2778 40.6395 98.9558Z" fill="url(#paint1_linear_20_938)"/>
<path fill-rule="evenodd" clip-rule="evenodd" d="M209 13H99V179H209V13ZM202.774 19.7837H104.811V172.615H202.774V19.7837Z" fill="white"/>
<path d="M178.014 80.7211C172.7 81.1585 169.248 85.442 170.928 89.5116C171.645 91.2515 173.276 92.7225 175.335 93.4872C175.726 93.633 175.714 93.6039 175.597 94.0413C175.552 94.2065 175.436 94.6861 175.339 95.104C175.238 95.522 174.719 97.6735 174.187 99.8832C173.655 102.093 173.135 104.244 173.035 104.662C172.934 105.08 172.817 105.563 172.777 105.732C172.733 105.9 172.608 106.425 172.495 106.898C172.382 107.371 172.229 108.013 172.153 108.324C172.076 108.635 171.705 110.174 171.327 111.742C170.952 113.31 170.634 114.626 170.622 114.665L170.602 114.739H178.864H187.13L187.101 114.603C187.073 114.457 186.276 111.178 186.07 110.365C186.006 110.106 185.796 109.254 185.607 108.47C185.414 107.685 185.16 106.649 185.043 106.169C184.833 105.327 184.197 102.718 183.609 100.321C183.456 99.6888 183.283 98.9954 183.23 98.7816C183.178 98.5677 182.924 97.5309 182.666 96.4811C182.408 95.4281 182.147 94.3588 182.082 94.1028C182.018 93.8436 181.969 93.6298 181.973 93.6265C181.977 93.6233 182.139 93.5617 182.332 93.4905C185.264 92.4018 187.174 90.0073 187.178 87.4087C187.182 84.8976 185.418 82.5744 182.646 81.4339C181.216 80.8475 179.577 80.5947 178.014 80.7211Z" fill="white"/>
<g filter="url(#filter1_f_20_938)">
<path d="M76.3176 36.6967C70.8363 35.9286 65.2953 39.4448 63.5046 44.3361C60.9613 38.4323 52.4683 35.401 46.7874 38.9243C43.2161 41.257 42.5332 45.9689 43.1604 49.8343C44.2392 56.0914 48.2422 61.7459 53.4637 65.5802C57.1779 68.3029 62.0417 70.094 66.697 68.9588C73.545 67.3658 78.8633 62.1418 81.9221 56.2347C83.8837 52.3526 85.1204 47.8269 84.1942 43.4919C83.4712 40.2535 80.8136 37.3604 77.286 36.8423C76.9653 36.7811 76.6424 36.7322 76.3178 36.697L76.3176 36.6967Z" fill="black"/>
</g>
<path d="M63.7221 46.5742C62.7614 43.0226 60.8695 40.7163 57.5667 39.1489C54.9255 37.8385 49.8496 36.6986 45.6298 40.4637C37.951 50.7992 52.1298 69.959 64.976 68.7712C81.112 66.621 90.4228 42.4035 78.8107 37.7938C76.3855 36.8466 71.5019 36.429 67.6611 39.6304C65.6237 41.3362 63.6868 43.6535 63.6899 46.3779C63.7382 46.6342 63.5153 46.4019 63.7219 46.5734L63.7221 46.5742Z" fill="#961B2C"/>
<path d="M63.7221 46.5742C62.7614 43.0226 60.8695 40.7163 57.5667 39.1489C54.9255 37.8385 49.8496 36.6986 45.6298 40.4637C37.951 50.7992 52.1298 69.959 64.976 68.7712C81.112 66.621 90.4228 42.4035 78.8107 37.7938C76.3855 36.8466 71.5019 36.429 67.6611 39.6304C65.6237 41.3362 63.6868 43.6535 63.6899 46.3779C63.7382 46.6342 63.5153 46.4019 63.7219 46.5734L63.7221 46.5742Z" fill="url(#paint2_linear_20_938)"/>
<path d="M76.273 38.361C71.1854 37.6034 65.7561 41.0933 64.9922 46.0077C65.2059 47.0284 63.9549 48.3781 62.9626 47.5024C62.0507 46.1241 62.0417 44.3073 60.8183 43.0998C58.0259 39.541 52.4354 37.946 48.3121 40.0265C47.2017 40.6285 45.8385 41.5714 45.6646 42.9218C49.4232 47.5139 54.8537 51.1766 61.0689 51.6472C68.1954 52.5294 75.527 52.2167 82.3514 50.1803C83.1449 46.8584 83.0993 42.8526 80.5058 40.2298C79.4074 39.1215 77.8516 38.5521 76.273 38.361Z" fill="url(#paint3_linear_20_938)"/>
<g filter="url(#filter2_f_20_938)">
<path d="M290.441 31.324C284.857 26.034 275.401 25.5793 269.01 29.7125C271.346 20.9348 264.331 10.6395 254.708 10.0802C248.554 9.863 243.589 14.6839 240.873 19.595C236.549 27.5961 236.102 37.2653 238.665 45.8412C240.493 51.936 244.461 57.8948 250.791 60.3501C260.033 64.0494 270.752 62.3781 279.494 58.1083C285.184 55.263 290.617 51.1004 293.409 45.4132C295.458 41.1395 294.99 35.7015 291.418 32.2698C291.106 31.9419 290.78 31.626 290.44 31.3244L290.441 31.324Z" fill="black"/>
</g>
<path d="M267.271 32.4389C269.327 27.6168 269.213 23.4642 266.83 19.0177C264.975 15.3968 260.185 10.0096 252.018 10.9027C234.061 16.4994 233.252 49.7581 248.99 58.7501C269.344 69.2948 301.495 49.1889 292.316 34.5825C290.385 31.5496 285.174 27.1404 277.94 27.6963C274.096 27.9997 269.824 29.0813 267.408 32.1892C267.236 32.5203 267.187 32.0759 267.271 32.4377L267.271 32.4389Z" fill="#961B2C"/>
<path d="M267.271 32.4389C269.327 27.6168 269.213 23.4642 266.83 19.0177C264.975 15.3968 260.185 10.0096 252.018 10.9027C234.061 16.4994 233.252 49.7581 248.99 58.7501C269.344 69.2948 301.495 49.1889 292.316 34.5824C290.385 31.5496 285.174 27.1404 277.94 27.6963C274.096 27.9997 269.824 29.0813 267.408 32.1892C267.236 32.5203 267.187 32.0759 267.271 32.4377L267.271 32.4389Z" fill="url(#paint4_linear_20_938)"/>
<path d="M288.911 33.185C283.769 28.224 274.464 27.8294 269.226 32.816C268.564 34.1515 265.935 34.6823 265.578 32.8851C265.76 30.5796 267.364 28.5014 267.038 26.1397C267.007 19.8342 262.033 13.5138 255.472 12.5645C253.668 12.3563 251.273 12.3332 249.875 13.7325C250.092 21.9939 253.047 30.5424 259.733 36.0844C267.095 42.8295 275.753 48.3778 285.362 51.5528C289.219 48.4053 292.725 43.8026 292.09 38.7242C291.819 36.5762 290.546 34.6742 288.911 33.185Z" fill="url(#paint5_linear_20_938)"/>
<path fill-rule="evenodd" clip-rule="evenodd" d="M223 94.002V113.002H241C258.996 113.002 259 113.001 259.014 110.752C259.021 109.515 259.297 107.495 259.627 106.265C260.188 104.17 260.039 104.092 257.288 105.051C255.672 105.615 249.658 105.947 243.925 105.789L233.5 105.502V90.251V75L228.25 75.001L223 75.002V94.002ZM274.275 82.923C269.386 84.161 265.987 86.79 264.416 90.548C261.338 97.916 263.496 107.156 269.286 111.403C271.501 113.027 273.595 113.446 279.5 113.446C285.405 113.446 287.499 113.027 289.714 111.403C298.165 105.205 297.991 89.738 289.413 84.789C285.718 82.658 278.726 81.795 274.275 82.923ZM343.741 83.379C336.685 85.995 334 90.021 334 97.984C334 104.667 336.113 109.492 339.896 111.448C344.273 113.712 353.582 114.347 359.5 112.787C364.214 111.543 364.481 111.297 364.174 108.492C363.995 106.856 363.74 105.409 363.608 105.277C363.476 105.144 361.825 105.479 359.94 106.019C354.043 107.71 347.246 107.248 345 105.002C343.9 103.902 343 102.303 343 101.448C343 100.125 344.672 99.918 354.25 100.057L365.5 100.22L365.157 95.881C364.706 90.185 362.654 86.391 359 84.502C354.657 82.256 348.074 81.772 343.741 83.379ZM297.409 85.252C299.45 88.407 308 109.55 308 111.442C308 112.707 309.324 113.002 315 113.002C321.219 113.002 322 112.789 322 111.095C322 108.962 330.237 88.816 332.555 85.277L334.046 83.002L328.273 83.018L322.5 83.033L319.077 94.018C317.195 100.059 315.36 105.002 315 105.002C314.64 105.002 312.805 100.059 310.923 94.018L307.5 83.033L301.727 83.018C295.974 83.002 295.959 83.01 297.409 85.252ZM284.559 90.421C286.102 91.55 286.5 93.055 286.5 97.768C286.5 105.06 285.107 107.002 279.878 107.002C273.858 107.002 271.654 104.188 272.23 97.238C272.549 93.39 273.252 91.291 274.536 90.352C276.945 88.591 282.104 88.626 284.559 90.421ZM354.429 90.573C357.623 93.767 356.388 95.002 350 95.002C344.889 95.002 344 94.735 344 93.202C344 92.212 344.54 90.862 345.2 90.202C346.912 88.49 352.573 88.718 354.429 90.573ZM223 156.002V175.002H228.297H233.595L233.181 168.502L232.767 162.002H237.307C240.745 162.002 242.602 162.637 244.959 164.621C248.458 167.565 251.39 172.562 250.482 174.031C250.116 174.624 252.649 175.002 256.989 175.002H264.096L261.144 170.752C259.52 168.414 256.583 164.961 254.618 163.078L251.045 159.653L253.919 157.905C260.21 154.08 260.079 142.85 253.699 138.96C250.937 137.276 248.62 137.009 236.75 137.006L223 137.002V156.002ZM247.429 145.573C249.43 147.574 249.424 149.952 247.411 152.825C246.006 154.831 245.112 155.059 239.661 154.797L233.5 154.502L233.198 149.252L232.895 144.002H239.376C243.935 144.002 246.323 144.468 247.429 145.573ZM274.119 144.957C267.035 146.729 262.261 154.964 263.659 163.002C265.229 172.033 269.757 175.469 280 175.401C291.599 175.325 296.362 170.705 296.261 159.629C296.204 153.404 294.663 150.289 289.938 146.851C287.048 144.748 278.871 143.769 274.119 144.957ZM311.479 144.931C303.98 146.73 300.455 151.757 300.56 160.502C300.685 170.793 305.926 175.552 317 175.43C329.115 175.297 333.58 170.446 332.804 158.258C332.458 152.835 331.972 151.512 329.363 148.903C325.171 144.712 318.537 143.238 311.479 144.931ZM352.75 145.844C349.809 147.367 349 147.486 349 146.394C349 144.924 345.264 144.557 341.25 145.632C339.049 146.222 339 146.548 339 160.619V175.002H344H349V165.002C349 156.335 349.267 154.735 351 153.002C352.1 151.902 354.07 151.002 355.378 151.002C359.594 151.002 360.5 153.416 360.5 164.656V175.002H365.25H370V165.002C370 156.237 370.255 154.747 372.061 152.941C374.806 150.196 379.041 150.712 380.761 154.002C381.634 155.673 381.974 159.571 381.784 165.753L381.5 175.004H386.5L391.5 175.005L391 163.576C390.422 150.365 389.056 147.469 382.269 145.071C378.435 143.715 377.938 143.778 372.961 146.241C367.737 148.827 367.687 148.831 365.102 146.936C361.073 143.983 357.032 143.626 352.75 145.844ZM405.016 144.969C398.766 146.54 395.291 152.941 397.971 157.947C399.244 160.326 405.139 162.626 412.238 163.513C417.906 164.221 420.761 165.962 419.527 167.958C418.581 169.489 408.077 169.231 402.456 167.539C399.781 166.734 397.524 166.171 397.439 166.289C397.353 166.406 397.49 168.152 397.742 170.169C398.247 174.213 398.577 174.384 408.117 175.526C415.972 176.467 424.401 174.579 426.98 171.3C429.691 167.853 429.562 163.473 426.663 160.574C424.45 158.361 416.7 156.002 411.642 156.002C408.714 156.002 405.492 153.634 406.406 152.154C407.303 150.702 417.216 150.657 422.344 152.08C426.941 153.357 427.388 153.046 426.536 149.167C426.114 147.246 425.105 145.996 423.691 145.644C419.154 144.516 408.37 144.126 405.016 144.969ZM285.171 152.657C286.541 153.896 287 155.762 287 160.086C287 167.046 285.464 169.002 280 169.002C277.827 169.002 275.457 168.316 274.571 167.431C272.368 165.228 272.425 155.295 274.655 152.831C276.747 150.519 282.7 150.42 285.171 152.657ZM322.443 153.225C324.56 156.246 324.5 164.792 322.345 167.173C320.271 169.465 313.761 169.62 311.571 167.431C309.368 165.228 309.425 155.295 311.655 152.831C314.096 150.133 320.44 150.365 322.443 153.225Z" fill="white"/>
<defs>
<filter id="filter0_f_20_938" x="8.09067" y="90.6109" width="68.2493" height="71.518" filterUnits="userSpaceOnUse" color-interpolation-filters="sRGB">
<feFlood flood-opacity="0" result="BackgroundImageFix"/>
<feBlend mode="normal" in="SourceGraphic" in2="BackgroundImageFix" result="shape"/>
<feGaussianBlur stdDeviation="1.30928" result="effect1_foregroundBlur_20_938"/>
</filter>
<filter id="filter1_f_20_938" x="37.9112" y="31.5492" width="51.6383" height="42.798" filterUnits="userSpaceOnUse" color-interpolation-filters="sRGB">
<feFlood flood-opacity="0" result="BackgroundImageFix"/>
<feBlend mode="normal" in="SourceGraphic" in2="BackgroundImageFix" result="shape"/>
<feGaussianBlur stdDeviation="2.52098" result="effect1_foregroundBlur_20_938"/>
</filter>
<filter id="filter2_f_20_938" x="235.1" y="8.08388" width="61.5119" height="56.2983" filterUnits="userSpaceOnUse" color-interpolation-filters="sRGB">
<feFlood flood-opacity="0" result="BackgroundImageFix"/>
<feBlend mode="normal" in="SourceGraphic" in2="BackgroundImageFix" result="shape"/>
<feGaussianBlur stdDeviation="0.994621" result="effect1_foregroundBlur_20_938"/>
</filter>
<linearGradient id="paint0_linear_20_938" x1="44.3849" y1="108.929" x2="61.7559" y2="164.257" gradientUnits="userSpaceOnUse">
<stop stop-color="#961B2C"/>
<stop offset="1" stop-color="#E75367" stop-opacity="0"/>
</linearGradient>
<linearGradient id="paint1_linear_20_938" x1="11.1969" y1="88.1946" x2="68.5776" y2="151.19" gradientUnits="userSpaceOnUse">
<stop stop-color="#F9F9F9"/>
<stop offset="1" stop-color="#F9F9F9" stop-opacity="0"/>
</linearGradient>
<linearGradient id="paint2_linear_20_938" x1="73.2407" y1="43.6636" x2="57.1694" y2="72.8237" gradientUnits="userSpaceOnUse">
<stop stop-color="#961B2C"/>
<stop offset="1" stop-color="#FF0000" stop-opacity="0"/>
</linearGradient>
<linearGradient id="paint3_linear_20_938" x1="68.7616" y1="21.7083" x2="63.4792" y2="69.6649" gradientUnits="userSpaceOnUse">
<stop stop-color="#F9F9F9"/>
<stop offset="1" stop-color="#F9F9F9" stop-opacity="0"/>
</linearGradient>
<linearGradient id="paint4_linear_20_938" x1="280.736" y1="36.7873" x2="236.425" y2="56.9877" gradientUnits="userSpaceOnUse">
<stop stop-color="#961B2C"/>
<stop offset="1" stop-color="#961B2C" stop-opacity="0"/>
</linearGradient>
<linearGradient id="paint5_linear_20_938" x1="295.116" y1="8.15378" x2="248.567" y2="60.4167" gradientUnits="userSpaceOnUse">
<stop stop-color="#F9F9F9"/>
<stop offset="1" stop-color="#F9F9F9" stop-opacity="0"/>
</linearGradient>
</defs>
</svg>
