<svg width="4000" height="2246" viewBox="0 0 4000 2246" fill="none" xmlns="http://www.w3.org/2000/svg">
<path d="M2430.56 1176.22L3790.91 97.7317L2307.51 822.204L2430.56 1176.22Z" fill="url(#paint0_linear_23_1024)"/>
<path d="M2393.5 907.904C2383.95 881.905 2374.4 855.907 2356.23 848.982C2338.08 842.062 2311.32 854.22 2302.79 872.528C2294.25 890.835 2303.94 915.299 2306.3 936.447C2308.66 957.589 2303.7 975.423 2298.72 993.252C2317.83 991.137 2336.94 989.015 2362.3 988.692C2387.66 988.37 2419.28 989.84 2437.3 977.443C2455.31 965.04 2459.73 938.761 2450.16 924.861C2440.6 910.961 2417.04 909.434 2393.5 907.904Z" fill="url(#paint1_radial_23_1024)"/>
<path d="M2426.79 870.387L2430.56 1176.22L3790.91 97.7266L2426.79 870.387Z" fill="url(#paint2_linear_23_1024)"/>
<path d="M1777.12 638.387L2307.5 822.221L3790.91 97.7368L1777.12 638.387Z" fill="url(#paint3_linear_23_1024)"/>
<path d="M2398.49 714.979C2377.43 725.649 2356.35 736.329 2352.9 751.862C2349.44 767.404 2363.59 787.8 2380.53 792.688C2397.46 797.586 2417.19 786.972 2435.07 782.68C2452.95 778.401 2468.99 780.449 2485.02 782.493C2480.57 767.192 2476.11 751.901 2472.34 731.309C2468.57 710.726 2465.49 684.857 2452.34 671.593C2439.18 658.326 2415.95 657.678 2405.3 667.006C2394.64 676.343 2396.57 695.661 2398.49 714.979Z" fill="url(#paint4_radial_23_1024)"/>
<path d="M1884.14 1158.64C1870.35 1164.2 1856.56 1169.76 1852.5 1180.03C1848.45 1190.3 1854.12 1205.26 1864.44 1210.52C1874.77 1215.77 1889.73 1211.32 1902.58 1207.86C1915.44 1204.41 1926.15 1201.96 1936.88 1199.52C1935.06 1191.26 1933.24 1183 1930.93 1168.24C1928.62 1153.48 1925.8 1132.23 1916.46 1124.8C1907.11 1117.37 1891.24 1123.77 1884.76 1131.71C1878.29 1139.66 1881.21 1149.15 1884.14 1158.64Z" fill="url(#paint5_radial_23_1024)"/>
<path d="M3293.98 336.93C3281.1 330.382 3268.23 323.831 3258.17 327.081C3248.11 330.319 3240.88 343.352 3243.68 353.902C3246.47 364.439 3259.31 372.5 3270.05 379.638C3280.78 386.769 3289.44 392.984 3298.09 399.199C3302.92 392.949 3307.76 386.697 3316.99 376.2C3326.22 365.695 3339.86 350.941 3339.26 339.798C3338.67 328.654 3323.85 321.113 3313.93 321.232C3304.02 321.351 3299 329.136 3293.98 336.93Z" fill="url(#paint6_radial_23_1024)"/>
<path d="M3388.86 300.665C3385.13 309.353 3381.39 318.051 3384.27 324.49C3387.13 330.931 3396.62 335.132 3403.75 332.865C3410.87 330.601 3415.66 321.873 3419.92 314.55C3424.2 307.235 3427.97 301.313 3431.73 295.4C3427.11 292.494 3422.47 289.59 3414.63 283.986C3406.78 278.384 3395.72 270.083 3388.03 270.929C3380.35 271.773 3376.05 281.787 3376.75 288.265C3377.45 294.753 3383.16 297.703 3388.86 300.665Z" fill="url(#paint7_radial_23_1024)"/>
<path d="M3459.82 266.853C3451.83 266.761 3443.84 266.67 3442.34 270.58C3440.84 274.485 3445.82 282.391 3452.73 286.754C3459.62 291.119 3468.46 291.938 3476.07 292.822C3483.68 293.692 3490.07 294.615 3496.47 295.547C3494.53 291.433 3492.6 287.319 3489.72 280.15C3486.84 272.982 3483 262.754 3476.5 257.579C3469.98 252.408 3460.78 252.297 3457.55 254.686C3454.32 257.074 3457.08 261.966 3459.82 266.853Z" fill="url(#paint8_radial_23_1024)"/>
<path d="M2951.98 432.116C2958.68 443.392 2965.36 454.676 2975.19 472.294C2985.02 489.922 2997.99 513.895 3016.47 525.468C3034.95 537.051 3058.95 536.249 3089.63 531.349C3120.31 526.458 3157.67 517.478 3164.15 510.959C3170.63 504.44 3146.24 500.381 3116.22 494.455C3086.21 488.519 3050.59 480.718 3033.36 472.038C3016.14 463.36 3017.33 453.799 2999.24 435.827C2981.16 417.845 2943.8 391.446 2932.71 389.426C2921.62 387.407 2936.81 409.758 2951.98 432.116Z" fill="url(#paint9_radial_23_1024)"/>
<path d="M3163.15 506.073C3147.92 486.226 3132.68 466.379 3125.78 450.073C3118.88 433.775 3120.31 420.996 3111.89 418.184C3103.47 415.372 3085.2 422.512 3072.95 414.736C3060.7 406.96 3054.46 384.255 3042.75 379.751C3031.05 375.247 3013.85 388.946 2988.71 391.674C2963.58 394.394 2930.5 386.137 2929.4 390.037C2928.28 393.939 2959.15 410.004 2980.18 419.488C3001.21 428.98 3012.39 431.891 3020.56 438.67C3028.71 445.45 3033.84 456.098 3053.79 467.908C3073.74 479.709 3108.51 492.673 3129.21 499.224C3149.91 505.784 3156.54 505.924 3163.15 506.073Z" fill="url(#paint10_linear_23_1024)"/>
<path d="M3536.4 263.905C3542.16 260.57 3547.92 257.225 3556.94 252.322C3565.95 247.409 3578.23 240.928 3583.92 231.776C3589.62 222.624 3588.74 210.789 3585.59 195.674C3582.45 180.558 3577.05 162.162 3573.52 158.985C3569.99 155.808 3568.34 167.853 3565.82 182.68C3563.3 197.503 3559.9 215.104 3555.69 223.631C3551.49 232.149 3546.47 231.601 3537.43 240.574C3528.39 249.557 3515.32 268.071 3514.47 273.555C3513.62 279.027 3525.01 271.471 3536.4 263.905Z" fill="url(#paint11_radial_23_1024)"/>
<path d="M3571 159.493C3560.92 167.082 3550.85 174.658 3542.47 178.118C3534.08 181.585 3527.38 180.923 3526.08 185.087C3524.76 189.245 3528.84 198.229 3525.02 204.292C3521.19 210.37 3509.45 213.514 3507.33 219.311C3505.19 225.101 3512.68 233.53 3514.58 245.922C3516.48 258.307 3512.8 274.655 3514.86 275.193C3516.92 275.716 3524.72 260.443 3529.27 250.043C3533.82 239.635 3535.13 234.108 3538.52 230.06C3541.91 226.012 3547.37 223.445 3553.16 213.567C3558.93 203.691 3565.04 186.496 3568.07 176.26C3571.09 166.025 3571.04 162.763 3571 159.493Z" fill="url(#paint12_linear_23_1024)"/>
<path d="M2856.76 533.656C2834.87 544.867 2812.99 556.089 2808.1 573.214C2803.23 590.329 2815.35 613.358 2833.43 620.055C2851.51 626.738 2875.56 617.094 2896.27 609.422C2916.97 601.738 2934.33 596.022 2951.68 590.307C2947.18 577.379 2942.67 564.452 2936.16 541.203C2929.65 517.944 2921.13 484.374 2904.29 474.033C2887.43 463.698 2862.22 476.608 2852.91 490.417C2843.6 504.226 2850.18 518.943 2856.76 533.656Z" fill="url(#paint13_radial_23_1024)"/>
<path d="M2639.49 769.574C2646 761.805 2652.52 754.037 2662.95 742.287C2673.37 730.537 2687.71 714.806 2689.81 699.579C2691.9 684.343 2681.76 669.611 2665.63 652.002C2649.52 634.39 2627.43 613.901 2619.58 611.926C2611.71 609.953 2618.07 626.482 2625.13 647.124C2632.19 667.765 2639.96 692.506 2639.72 706.023C2639.48 719.55 2631.25 721.85 2623.8 738.871C2616.35 755.892 2609.68 787.634 2612.42 795.208C2615.18 802.77 2627.33 786.178 2639.49 769.574Z" fill="url(#paint14_radial_23_1024)"/>
<path d="M2616 614.12C2605.91 629.948 2595.82 645.789 2585.3 655.284C2574.79 664.792 2563.84 667.961 2564.88 674.114C2565.93 680.266 2578.97 689.41 2577.49 699.542C2576.02 709.674 2560.05 720.795 2561.03 729.542C2562 738.299 2579.93 744.671 2592.09 759.505C2604.24 774.349 2610.63 797.644 2614.24 797.094C2617.85 796.543 2618.68 772.146 2618.07 755.987C2617.46 739.83 2615.39 731.918 2617.67 724.658C2619.96 717.408 2626.57 710.814 2628.27 694.588C2629.97 678.37 2626.73 652.518 2623.88 637.497C2621 622.484 2618.5 618.302 2616 614.12Z" fill="url(#paint15_linear_23_1024)"/>
<path d="M3076.44 1102.4L2426.79 870.391L3790.91 97.7302L3076.44 1102.4Z" fill="url(#paint16_linear_23_1024)"/>
<path d="M1304.63 911.334C1285.89 923.399 1267.16 935.455 1271.17 947.633C1275.17 959.801 1301.93 972.083 1323.21 970.223C1344.48 968.365 1360.29 952.354 1382.5 939.719C1404.71 927.083 1433.33 917.812 1461.95 908.541C1439.17 910.971 1416.39 913.392 1396.95 901.596C1377.5 889.79 1361.41 863.757 1336.05 858.936C1310.69 854.114 1276.06 870.493 1269.28 882.766C1262.5 895.029 1283.57 903.187 1304.63 911.334Z" fill="url(#paint17_radial_23_1024)"/>
<path d="M1681.46 1694.26C1648.52 1707.1 1615.58 1719.94 1607.73 1743.11C1599.88 1766.27 1617.14 1799.75 1641.24 1810.01C1665.34 1820.26 1696.29 1807.29 1723.41 1803.68C1750.53 1800.07 1773.81 1805.84 1797.09 1811.6C1793.23 1787.5 1789.36 1763.41 1787.44 1731.34C1785.52 1699.29 1785.55 1659.26 1768.51 1636.84C1751.45 1614.42 1717.33 1609.61 1699.97 1622.12C1682.62 1634.62 1682.04 1664.44 1681.46 1694.26Z" fill="url(#paint18_radial_23_1024)"/>
<path d="M1809.28 910.106C1787.82 917.16 1766.37 924.221 1758.57 937.853C1750.77 951.478 1756.62 971.682 1769.89 982.274C1783.15 992.86 1803.82 993.838 1825.25 996.281C1846.68 998.732 1868.86 1002.66 1891.04 1006.57C1887.49 980.586 1883.94 954.596 1883.95 931.994C1883.95 909.392 1887.5 890.171 1876.68 878.675C1865.86 867.193 1840.64 863.429 1827.02 869.962C1813.38 876.488 1811.32 893.297 1809.28 910.106Z" fill="url(#paint19_radial_23_1024)"/>
<path d="M2281 1153.47C2278.76 1139.74 2276.52 1126.01 2268.68 1123.11C2260.85 1120.21 2247.4 1128.14 2241.25 1139.66C2235.08 1151.18 2236.2 1166.3 2236.84 1179.32C2237.5 1192.34 2237.67 1203.26 2237.85 1214.18C2245.46 1211.31 2253.06 1208.44 2264.91 1203.8C2276.76 1199.16 2292.88 1192.75 2300.67 1181.96C2308.48 1171.18 2307.97 1156.02 2303.31 1150.54C2298.63 1145.06 2289.81 1149.27 2281 1153.47Z" fill="url(#paint20_radial_23_1024)"/>
<path d="M2049.44 1455.37C2063.7 1448.01 2077.96 1440.66 2073.51 1428.23C2069.06 1415.78 2045.93 1398.28 2019.87 1392.92C1993.81 1387.55 1964.82 1394.33 1941.87 1395.56C1918.89 1396.78 1901.96 1392.44 1885.02 1388.1C1891.62 1395.42 1898.22 1402.73 1911.08 1419.76C1923.95 1436.78 1943.08 1463.53 1964.55 1479.18C1986.03 1494.84 2009.84 1499.41 2024.38 1493.59C2038.92 1487.78 2044.18 1471.57 2049.44 1455.37Z" fill="url(#paint21_radial_23_1024)"/>
<path d="M1400.25 1148.46C1418.61 1138.18 1436.98 1127.89 1438.09 1114.09C1439.19 1100.28 1423.03 1082.94 1404.58 1078.87C1386.13 1074.79 1365.39 1083.98 1347.41 1091.4C1329.43 1098.81 1314.21 1104.46 1298.99 1110.12C1305.9 1119.99 1312.81 1129.88 1323.72 1147.76C1334.64 1165.64 1349.55 1191.53 1367.58 1198.56C1385.62 1205.59 1406.78 1193.76 1412.74 1182.26C1418.7 1170.77 1409.48 1159.61 1400.25 1148.46Z" fill="url(#paint22_radial_23_1024)"/>
<path d="M832.997 1044.93C822.816 1056.31 812.624 1067.7 812.566 1078.36C812.518 1089.03 822.604 1098.98 833.841 1100.76C845.088 1102.54 857.474 1096.15 870.782 1090.38C884.1 1084.61 898.346 1079.45 912.583 1074.3C901.926 1060.16 891.28 1046.03 883.808 1032.7C876.349 1019.36 872.074 1006.82 861.966 1003.69C851.847 1000.56 835.897 1006.83 830.098 1015.27C824.298 1023.72 828.643 1034.32 832.997 1044.93Z" fill="url(#paint23_radial_23_1024)"/>
<path d="M1213.89 1652.19C1223.58 1623.1 1233.28 1594.02 1225.21 1574.17C1217.14 1554.33 1191.3 1543.72 1169.63 1549.19C1147.97 1554.63 1130.47 1576.15 1110.83 1597.25C1091.18 1618.34 1069.41 1639.03 1047.63 1659.7C1077.69 1677.64 1107.76 1695.58 1131.45 1714.51C1155.14 1733.45 1172.44 1753.4 1193.12 1751.33C1213.79 1749.26 1237.82 1725.17 1241.83 1704.98C1245.86 1684.78 1229.87 1668.48 1213.89 1652.19Z" fill="url(#paint24_radial_23_1024)"/>
<path d="M831.541 1384.84C802.923 1385.58 774.297 1386.31 758.274 1398.99C742.248 1411.69 738.83 1436.33 748.933 1452.66C759.04 1469 782.681 1477.02 806.448 1486.95C830.224 1496.87 854.127 1508.71 878.03 1520.55C887.071 1490.18 896.118 1459.81 907.601 1434.44C919.075 1409.06 932.981 1388.67 926.178 1372.14C919.366 1355.61 891.853 1342.95 872.621 1345.71C853.402 1348.47 842.476 1366.65 831.541 1384.84Z" fill="url(#paint25_radial_23_1024)"/>
<path d="M2153.96 1341.45C2156.38 1348.83 2158.82 1356.23 2162.3 1367.87C2165.78 1379.5 2170.32 1395.38 2178.56 1401.37C2186.81 1407.35 2198.76 1403.44 2214.34 1395.58C2229.92 1387.72 2249.13 1375.93 2252.84 1370.23C2256.57 1364.52 2244.81 1364.91 2230.41 1364.69C2216.01 1364.47 2198.98 1363.64 2191.13 1359.63C2183.28 1355.61 2184.62 1348.39 2177.07 1337.64C2169.54 1326.88 2153.1 1312.59 2147.78 1312.63C2142.44 1312.67 2148.2 1327.06 2153.96 1341.45Z" fill="url(#paint26_radial_23_1024)"/>
<path d="M2252.74 1366.77C2246.75 1354.25 2240.76 1341.71 2238.63 1330.65C2236.49 1319.57 2238.2 1309.96 2234.25 1309.04C2230.31 1308.15 2220.7 1315.93 2215.24 1311.89C2209.78 1307.85 2208.48 1291.97 2203.03 1290.27C2197.58 1288.57 2187.99 1301.06 2175.34 1306.54C2162.67 1312.02 2146.94 1310.51 2146.08 1313.54C2145.23 1316.57 2159.25 1324.15 2168.92 1328.23C2178.59 1332.32 2183.91 1332.92 2187.41 1336.8C2190.92 1340.67 2192.61 1347.81 2201.57 1353.76C2210.52 1359.7 2226.73 1364.44 2236.46 1366.41C2246.2 1368.39 2249.47 1367.58 2252.74 1366.77Z" fill="url(#paint27_linear_23_1024)"/>
<path d="M1611.54 984.282C1617.16 980.872 1622.76 977.468 1631.5 972.463C1640.24 967.448 1652.12 960.842 1658.22 951.449C1664.32 942.046 1664.64 929.861 1663.19 914.284C1661.75 898.701 1658.54 879.734 1655.6 876.45C1652.66 873.152 1650 885.555 1646.27 900.798C1642.55 916.054 1637.75 934.156 1633.09 942.911C1628.42 951.665 1623.87 951.075 1614.71 960.273C1605.56 969.472 1591.8 988.468 1590.5 994.106C1589.21 999.736 1600.38 992.01 1611.54 984.282Z" fill="url(#paint28_radial_23_1024)"/>
<path d="M1653.24 876.965C1643.28 884.718 1633.3 892.472 1625.27 895.989C1617.26 899.513 1611.17 898.793 1609.57 903.072C1607.98 907.35 1610.87 916.62 1606.77 922.851C1602.67 929.083 1591.6 932.261 1589.1 938.213C1586.59 944.172 1592.65 952.89 1593.23 965.654C1593.79 978.419 1588.85 995.232 1590.69 995.791C1592.53 996.343 1601.14 980.656 1606.32 969.97C1611.49 959.277 1613.21 953.592 1616.7 949.446C1620.2 945.292 1625.46 942.685 1631.71 932.541C1637.95 922.404 1645.2 904.723 1648.95 894.21C1652.71 883.69 1652.97 880.331 1653.24 876.965Z" fill="url(#paint29_linear_23_1024)"/>
<path d="M2038.23 889.454C2043.73 897.176 2049.22 904.898 2057.4 917.093C2065.59 929.279 2076.47 945.949 2089.58 951.578C2102.69 957.206 2118.03 951.793 2137.23 941.781C2156.44 931.769 2179.51 917.137 2182.99 910.618C2186.46 904.099 2170.35 905.692 2150.43 906.882C2130.5 908.081 2106.77 908.898 2094.78 905.342C2082.79 901.795 2082.54 893.885 2069 883.042C2055.47 872.199 2028.66 858.423 2021.32 859.004C2013.97 859.585 2026.1 874.515 2038.23 889.454Z" fill="url(#paint30_radial_23_1024)"/>
<path d="M2181.82 906.915C2169.93 894.008 2158.03 881.11 2151.87 869.392C2145.7 857.67 2145.28 847.133 2139.57 846.549C2133.86 845.956 2122.87 855.312 2114.17 851.494C2105.47 847.684 2099.05 830.692 2091.04 829.405C2083.04 828.115 2073.45 842.517 2057.57 849.686C2041.7 856.859 2019.55 856.791 2019.26 860.14C2018.96 863.493 2040.5 870.259 2055.03 873.708C2069.55 877.153 2077.05 877.276 2083.02 881.099C2088.98 884.921 2093.39 892.455 2107.47 897.975C2121.55 903.496 2145.27 907.002 2159.28 908.159C2173.28 909.312 2177.55 908.116 2181.82 906.915Z" fill="url(#paint31_linear_23_1024)"/>
<path d="M521.384 1538.05C546.295 1516.95 571.206 1495.84 567.057 1477.13C562.909 1458.4 529.701 1442.08 501.621 1444.14C473.542 1446.2 450.591 1466.65 426.596 1479.27C402.592 1491.9 377.553 1496.71 352.514 1501.52C368.271 1516.49 384.038 1531.44 401.934 1552.56C419.84 1573.67 439.884 1600.94 467.341 1609.8C494.808 1618.67 529.705 1609.15 539.943 1594.12C550.19 1579.1 535.787 1558.57 521.384 1538.05Z" fill="url(#paint32_radial_23_1024)"/>
<path d="M766.477 2134.48C782.843 2130.44 799.209 2126.41 824.704 2120.91C850.199 2115.41 884.815 2108.44 903.168 2089.51C921.518 2070.57 923.592 2039.67 920.951 1998.63C918.31 1957.58 910.941 1906.38 902.857 1895.52C894.772 1884.66 885.96 1914.14 873.841 1950.02C861.722 1985.9 846.283 2028.2 832.082 2046.68C817.877 2065.17 804.915 2059.84 777.83 2075.72C750.759 2091.6 709.566 2128.67 705.321 2142C701.076 2155.32 733.774 2144.9 766.477 2134.48Z" fill="url(#paint33_radial_23_1024)"/>
<path d="M896.262 1894.52C867.008 1906.03 837.747 1917.53 814.448 1919.82C791.148 1922.12 773.816 1915.2 768.833 1924.8C763.848 1934.41 771.234 1960.54 758.928 1973.05C746.623 1985.55 714.631 1984.45 706.894 1997.58C699.164 2010.71 715.68 2038.08 716.077 2071.2C716.482 2104.31 700.754 2143.17 705.963 2146.15C711.174 2149.11 737.317 2116.18 753.13 2093.16C768.941 2070.16 774.424 2057.05 784.813 2049.37C795.209 2041.67 810.506 2039.39 829.354 2018.67C848.201 1997.96 870.613 1958.81 882.358 1935.04C894.108 1911.28 895.185 1902.9 896.262 1894.52Z" fill="url(#paint34_linear_23_1024)"/>
<path d="M486.576 1236.58C485.035 1257.58 483.494 1278.58 491.034 1290.98C498.569 1303.37 515.181 1307.14 525.332 1300.22C535.479 1293.29 539.174 1275.67 549.036 1257.61C558.89 1239.56 574.916 1221.05 590.946 1202.55C564.768 1197.82 538.586 1193.09 521.002 1184.36C503.413 1175.63 494.422 1162.89 484.462 1166.56C474.511 1170.21 463.596 1190.27 463.796 1204.68C463.983 1219.08 475.284 1227.83 486.576 1236.58Z" fill="url(#paint35_radial_23_1024)"/>
<path d="M326.098 1837.78C286.243 1830.08 246.401 1822.38 225.729 1840.86C205.056 1859.33 203.566 1903.99 221.794 1929.48C240.017 1954.96 277.967 1961.28 306.891 1974.65C335.82 1988.02 355.728 2008.45 375.636 2028.87C385.198 2002.11 394.761 1975.34 410.679 1941.74C426.611 1908.15 448.894 1867.74 444.438 1834.38C439.977 1801.05 408.773 1774.76 384.598 1776.51C360.41 1778.25 343.256 1808.01 326.098 1837.78Z" fill="url(#paint36_radial_23_1024)"/>
<path d="M1335.73 1967.43C1311.67 1939.57 1287.62 1911.73 1261.49 1910.5C1235.36 1909.27 1207.16 1934.68 1204.82 1960.34C1202.47 1986.01 1226 2011.93 1238.72 2036.73C1251.45 2061.52 1253.4 2085.2 1255.34 2108.87C1278.5 2098.71 1301.66 2088.56 1333.56 2078.11C1365.45 2067.67 1406.08 2056.93 1423.12 2034.69C1440.16 2012.46 1433.62 1978.74 1415.14 1965.61C1396.64 1952.48 1366.19 1959.96 1335.73 1967.43Z" fill="url(#paint37_radial_23_1024)"/>
<path d="M1089.21 1345.87C1097.2 1353.3 1105.19 1360.72 1117.21 1372.56C1129.23 1384.39 1145.29 1400.66 1161.99 1403.77C1178.7 1406.89 1196.05 1396.86 1217.19 1380.61C1238.33 1364.35 1263.24 1341.87 1266.21 1333.56C1269.18 1325.26 1250.19 1331.12 1226.58 1337.51C1202.98 1343.88 1174.75 1350.79 1159.75 1349.75C1144.76 1348.73 1143.02 1339.78 1124.86 1330.82C1106.69 1321.87 1072.11 1312.91 1063.43 1315.43C1054.76 1317.94 1071.99 1331.91 1089.21 1345.87Z" fill="url(#paint38_radial_23_1024)"/>
<path d="M1264.4 1329.64C1247.81 1317.92 1231.24 1306.21 1221.72 1294.4C1212.21 1282.59 1209.76 1270.69 1202.83 1271.46C1195.9 1272.23 1184.46 1285.66 1173.36 1283.5C1162.26 1281.34 1151.48 1263.59 1141.67 1264.13C1131.86 1264.67 1123.01 1283.52 1105.34 1295.68C1087.67 1307.86 1061.17 1313.35 1061.42 1317.26C1061.68 1321.15 1088.69 1323.44 1106.69 1323.71C1124.69 1323.98 1133.68 1322.23 1141.51 1325.08C1149.34 1327.95 1156.01 1335.41 1173.85 1338.17C1191.69 1340.91 1220.71 1338.94 1237.67 1336.73C1254.62 1334.52 1259.51 1332.09 1264.4 1329.64Z" fill="url(#paint39_linear_23_1024)"/>
<path d="M1647.1 1465.88C1655.89 1457.83 1664.69 1449.78 1678.64 1437.71C1692.6 1425.65 1711.73 1409.58 1716.73 1391.66C1721.72 1373.74 1712.59 1353.98 1697.1 1329.56C1681.62 1305.15 1659.79 1276.07 1651.12 1272.12C1642.43 1268.17 1646.91 1289.34 1651.49 1315.6C1656.07 1341.85 1660.77 1373.19 1658.18 1389.42C1655.61 1405.65 1645.78 1406.78 1634.33 1425.77C1622.89 1444.78 1609.85 1481.65 1611.71 1491.31C1613.57 1500.98 1630.33 1483.42 1647.1 1465.88Z" fill="url(#paint40_radial_23_1024)"/>
<path d="M1646.7 1273.75C1632.43 1290.79 1618.16 1307.84 1604.48 1317.18C1590.8 1326.5 1577.71 1328.13 1577.86 1335.75C1578.01 1343.37 1591.4 1356.97 1587.98 1368.87C1584.56 1380.78 1564.35 1390.97 1563.98 1401.7C1563.6 1412.42 1583.08 1423.69 1594.49 1443.98C1605.9 1464.28 1609.25 1493.6 1613.48 1493.65C1617.71 1493.72 1622.82 1464.52 1624.87 1444.94C1626.93 1425.37 1625.92 1415.43 1629.77 1407.15C1633.62 1398.88 1642.34 1392.27 1647.05 1373.08C1651.76 1353.89 1652.46 1322.12 1651.73 1303.47C1651.01 1284.82 1648.86 1279.29 1646.7 1273.75Z" fill="url(#paint41_linear_23_1024)"/>
<defs>
<linearGradient id="paint0_linear_23_1024" x1="33944.9" y1="24714.7" x2="56220.5" y2="64091.3" gradientUnits="userSpaceOnUse">
<stop stop-color="#FFB2B2"/>
<stop offset="1" stop-color="#2D0000"/>
</linearGradient>
<radialGradient id="paint1_radial_23_1024" cx="0" cy="0" r="1" gradientUnits="userSpaceOnUse" gradientTransform="translate(6105.3 10296.7) rotate(33.62) scale(13114 11556.6)">
<stop stop-color="#FF00AC"/>
<stop offset="0.41182" stop-color="#FF0000"/>
<stop offset="1" stop-color="#FF0071"/>
</radialGradient>
<linearGradient id="paint2_linear_23_1024" x1="55051" y1="20925.1" x2="68403" y2="57816" gradientUnits="userSpaceOnUse">
<stop stop-color="#350000"/>
<stop offset="1" stop-color="#FF6767"/>
</linearGradient>
<linearGradient id="paint3_linear_23_1024" x1="5730.61" y1="22655" x2="27985.3" y2="-67174.5" gradientUnits="userSpaceOnUse">
<stop stop-color="#FF3636"/>
<stop offset="1" stop-color="#00E3DC"/>
</linearGradient>
<radialGradient id="paint4_radial_23_1024" cx="0" cy="0" r="1" gradientUnits="userSpaceOnUse" gradientTransform="translate(9846.29 -3327.24) rotate(-64.86) scale(10794.4 10077.9)">
<stop stop-color="#FF00AC"/>
<stop offset="0.41182" stop-color="#FF0000"/>
<stop offset="1" stop-color="#FF0071"/>
</radialGradient>
<radialGradient id="paint5_radial_23_1024" cx="0" cy="0" r="1" gradientUnits="userSpaceOnUse" gradientTransform="translate(6949.97 -1551.44) rotate(-61.42) scale(7598.38 6324.27)">
<stop stop-color="#FF00AC"/>
<stop offset="0.41182" stop-color="#FF0000"/>
<stop offset="1" stop-color="#FF0071"/>
</radialGradient>
<radialGradient id="paint6_radial_23_1024" cx="0" cy="0" r="1" gradientUnits="userSpaceOnUse" gradientTransform="translate(8437.91 2281.35) rotate(-12.09) scale(7312.29 5977.33)">
<stop stop-color="#FF00AC"/>
<stop offset="0.41182" stop-color="#FF0000"/>
<stop offset="1" stop-color="#FF0071"/>
</radialGradient>
<radialGradient id="paint7_radial_23_1024" cx="0" cy="0" r="1" gradientUnits="userSpaceOnUse" gradientTransform="translate(4468.33 -3212.68) rotate(-106.49) scale(4844.58 4077.32)">
<stop stop-color="#FF00AC"/>
<stop offset="0.41182" stop-color="#FF0000"/>
<stop offset="1" stop-color="#FF0071"/>
</radialGradient>
<radialGradient id="paint8_radial_23_1024" cx="0" cy="0" r="1" gradientUnits="userSpaceOnUse" gradientTransform="translate(6306.55 -6.88762) rotate(-56.61) scale(2839.83 4466.87)">
<stop stop-color="#FF00AC"/>
<stop offset="0.41182" stop-color="#FF0000"/>
<stop offset="1" stop-color="#FF0071"/>
</radialGradient>
<radialGradient id="paint9_radial_23_1024" cx="0" cy="0" r="1" gradientUnits="userSpaceOnUse" gradientTransform="translate(15683.5 7971.77) rotate(16.74) scale(24838.7 10323.2)">
<stop stop-color="#2A0000"/>
<stop offset="0.27125" stop-color="#DD0000"/>
<stop offset="0.47213" stop-color="#B4004E" stop-opacity="0.965"/>
<stop offset="0.70863" stop-color="#DD0004" stop-opacity="0.976"/>
<stop offset="1" stop-color="#FF5A5A"/>
</radialGradient>
<linearGradient id="paint10_linear_23_1024" x1="9159.38" y1="7818.58" x2="4708.48" y2="15358.9" gradientUnits="userSpaceOnUse">
<stop stop-color="#FF4A4A"/>
<stop offset="0.27125" stop-color="#DD0000"/>
<stop offset="0.47213" stop-color="#A9003D" stop-opacity="0.965"/>
<stop offset="0.70863" stop-color="#AD0024" stop-opacity="0.976"/>
<stop offset="1" stop-color="#FF5A5A"/>
</linearGradient>
<radialGradient id="paint11_radial_23_1024" cx="0" cy="0" r="1" gradientUnits="userSpaceOnUse" gradientTransform="translate(7220.02 -6043.19) rotate(-74.53) scale(12210.8 5426.82)">
<stop stop-color="#2A0000"/>
<stop offset="0.27125" stop-color="#DD0000"/>
<stop offset="0.47213" stop-color="#B4004E" stop-opacity="0.965"/>
<stop offset="0.70863" stop-color="#DD0004" stop-opacity="0.976"/>
<stop offset="1" stop-color="#FF5A5A"/>
</radialGradient>
<linearGradient id="paint12_linear_23_1024" x1="7122.35" y1="-2882.45" x2="10924.6" y2="-756.025" gradientUnits="userSpaceOnUse">
<stop stop-color="#FF4A4A"/>
<stop offset="0.27125" stop-color="#DD0000"/>
<stop offset="0.47213" stop-color="#A9003D" stop-opacity="0.965"/>
<stop offset="0.70863" stop-color="#AD0024" stop-opacity="0.976"/>
<stop offset="1" stop-color="#FF5A5A"/>
</linearGradient>
<radialGradient id="paint13_radial_23_1024" cx="0" cy="0" r="1" gradientUnits="userSpaceOnUse" gradientTransform="translate(10686.3 -4632.6) rotate(-67.51) scale(12288.6 10550.2)">
<stop stop-color="#FF00AC"/>
<stop offset="0.41182" stop-color="#FF0000"/>
<stop offset="1" stop-color="#FF0071"/>
</radialGradient>
<radialGradient id="paint14_radial_23_1024" cx="0" cy="0" r="1" gradientUnits="userSpaceOnUse" gradientTransform="translate(3976.53 -9657.94) rotate(-99.77) scale(17377 8970.47)">
<stop stop-color="#2A0000"/>
<stop offset="0.27125" stop-color="#DD0000"/>
<stop offset="0.47213" stop-color="#B4004E" stop-opacity="0.965"/>
<stop offset="0.70863" stop-color="#DD0004" stop-opacity="0.976"/>
<stop offset="1" stop-color="#FF5A5A"/>
</radialGradient>
<linearGradient id="paint15_linear_23_1024" x1="5478.32" y1="-5418.53" x2="12444.5" y2="-5095.51" gradientUnits="userSpaceOnUse">
<stop stop-color="#FF4A4A"/>
<stop offset="0.27125" stop-color="#DD0000"/>
<stop offset="0.47213" stop-color="#A9003D" stop-opacity="0.965"/>
<stop offset="0.70863" stop-color="#AD0024" stop-opacity="0.976"/>
<stop offset="1" stop-color="#FF5A5A"/>
</linearGradient>
<linearGradient id="paint16_linear_23_1024" x1="44353.3" y1="66968.6" x2="83142.5" y2="-47699.5" gradientUnits="userSpaceOnUse">
<stop stop-color="#FF4242"/>
<stop offset="1" stop-color="#00FDEB"/>
</linearGradient>
<radialGradient id="paint17_radial_23_1024" cx="0" cy="0" r="1" gradientUnits="userSpaceOnUse" gradientTransform="translate(8367.4 -4740.67) rotate(-92.31) scale(8480.67 14605.7)">
<stop stop-color="#FF00AC"/>
<stop offset="0.41182" stop-color="#FF0000"/>
<stop offset="1" stop-color="#FF0071"/>
</radialGradient>
<radialGradient id="paint18_radial_23_1024" cx="0" cy="0" r="1" gradientUnits="userSpaceOnUse" gradientTransform="translate(13517.8 -3273.18) rotate(-58.38) scale(16509.3 14989.5)">
<stop stop-color="#FF00AC"/>
<stop offset="0.41182" stop-color="#FF0000"/>
<stop offset="1" stop-color="#FF0071"/>
</radialGradient>
<radialGradient id="paint19_radial_23_1024" cx="0" cy="0" r="1" gradientUnits="userSpaceOnUse" gradientTransform="translate(10611.9 -891.119) rotate(-49.38) scale(11227.3 11032.9)">
<stop stop-color="#FF00AC"/>
<stop offset="0.41182" stop-color="#FF0000"/>
<stop offset="1" stop-color="#FF0071"/>
</radialGradient>
<radialGradient id="paint20_radial_23_1024" cx="0" cy="0" r="1" gradientUnits="userSpaceOnUse" gradientTransform="translate(3528.63 5975.78) rotate(29.82) scale(5508.16 7150.13)">
<stop stop-color="#FF00AC"/>
<stop offset="0.41182" stop-color="#FF0000"/>
<stop offset="1" stop-color="#FF0071"/>
</radialGradient>
<radialGradient id="paint21_radial_23_1024" cx="0" cy="0" r="1" gradientUnits="userSpaceOnUse" gradientTransform="translate(-6472.27 4022.84) rotate(107.42) scale(7901.5 14723.9)">
<stop stop-color="#FF00AC"/>
<stop offset="0.41182" stop-color="#FF0000"/>
<stop offset="1" stop-color="#FF0071"/>
</radialGradient>
<radialGradient id="paint22_radial_23_1024" cx="0" cy="0" r="1" gradientUnits="userSpaceOnUse" gradientTransform="translate(-5016.87 5754.64) rotate(103.72) scale(9486.34 10315.8)">
<stop stop-color="#FF00AC"/>
<stop offset="0.41182" stop-color="#FF0000"/>
<stop offset="1" stop-color="#FF0071"/>
</radialGradient>
<radialGradient id="paint23_radial_23_1024" cx="0" cy="0" r="1" gradientUnits="userSpaceOnUse" gradientTransform="translate(5378.99 -2982.98) rotate(-78.99) scale(7627.08 7396.21)">
<stop stop-color="#FF00AC"/>
<stop offset="0.41182" stop-color="#FF0000"/>
<stop offset="1" stop-color="#FF0071"/>
</radialGradient>
<radialGradient id="paint24_radial_23_1024" cx="0" cy="0" r="1" gradientUnits="userSpaceOnUse" gradientTransform="translate(-3899.13 12640.6) rotate(78.19) scale(15357.5 14527.7)">
<stop stop-color="#FF00AC"/>
<stop offset="0.41182" stop-color="#FF0000"/>
<stop offset="1" stop-color="#FF0071"/>
</radialGradient>
<radialGradient id="paint25_radial_23_1024" cx="0" cy="0" r="1" gradientUnits="userSpaceOnUse" gradientTransform="translate(11986.6 2303.33) rotate(-29.15) scale(14701.8 12489)">
<stop stop-color="#FF00AC"/>
<stop offset="0.41182" stop-color="#FF0000"/>
<stop offset="1" stop-color="#FF0071"/>
</radialGradient>
<radialGradient id="paint26_radial_23_1024" cx="0" cy="0" r="1" gradientUnits="userSpaceOnUse" gradientTransform="translate(7822.47 5455.78) rotate(13.98) scale(11229.5 7622.35)">
<stop stop-color="#2A0000"/>
<stop offset="0.27125" stop-color="#DD0000"/>
<stop offset="0.47213" stop-color="#B4004E" stop-opacity="0.965"/>
<stop offset="0.70863" stop-color="#DD0004" stop-opacity="0.976"/>
<stop offset="1" stop-color="#FF5A5A"/>
</radialGradient>
<linearGradient id="paint27_linear_23_1024" x1="5060.63" y1="4767.22" x2="2886.76" y2="9451.4" gradientUnits="userSpaceOnUse">
<stop stop-color="#FF4A4A"/>
<stop offset="0.27125" stop-color="#DD0000"/>
<stop offset="0.47213" stop-color="#A9003D" stop-opacity="0.965"/>
<stop offset="0.70863" stop-color="#AD0024" stop-opacity="0.976"/>
<stop offset="1" stop-color="#FF5A5A"/>
</linearGradient>
<radialGradient id="paint28_radial_23_1024" cx="0" cy="0" r="1" gradientUnits="userSpaceOnUse" gradientTransform="translate(5562.88 -5496.91) rotate(-71.58) scale(12792.9 4941.84)">
<stop stop-color="#2A0000"/>
<stop offset="0.27125" stop-color="#DD0000"/>
<stop offset="0.47213" stop-color="#B4004E" stop-opacity="0.965"/>
<stop offset="0.70863" stop-color="#DD0004" stop-opacity="0.976"/>
<stop offset="1" stop-color="#FF5A5A"/>
</radialGradient>
<linearGradient id="paint29_linear_23_1024" x1="5481.01" y1="-2108.56" x2="9152.13" y2="236.773" gradientUnits="userSpaceOnUse">
<stop stop-color="#FF4A4A"/>
<stop offset="0.27125" stop-color="#DD0000"/>
<stop offset="0.47213" stop-color="#A9003D" stop-opacity="0.965"/>
<stop offset="0.70863" stop-color="#AD0024" stop-opacity="0.976"/>
<stop offset="1" stop-color="#FF5A5A"/>
</linearGradient>
<radialGradient id="paint30_radial_23_1024" cx="0" cy="0" r="1" gradientUnits="userSpaceOnUse" gradientTransform="translate(11025.2 4551.89) rotate(4.85) scale(16020.2 8395.77)">
<stop stop-color="#2A0000"/>
<stop offset="0.27125" stop-color="#DD0000"/>
<stop offset="0.47213" stop-color="#B4004E" stop-opacity="0.965"/>
<stop offset="0.70863" stop-color="#DD0004" stop-opacity="0.976"/>
<stop offset="1" stop-color="#FF5A5A"/>
</radialGradient>
<linearGradient id="paint31_linear_23_1024" x1="6946.43" y1="4854.77" x2="5045.78" y2="10823.1" gradientUnits="userSpaceOnUse">
<stop stop-color="#FF4A4A"/>
<stop offset="0.27125" stop-color="#DD0000"/>
<stop offset="0.47213" stop-color="#A9003D" stop-opacity="0.965"/>
<stop offset="0.70863" stop-color="#AD0024" stop-opacity="0.976"/>
<stop offset="1" stop-color="#FF5A5A"/>
</linearGradient>
<radialGradient id="paint32_radial_23_1024" cx="0" cy="0" r="1" gradientUnits="userSpaceOnUse" gradientTransform="translate(-7981.28 9215.45) rotate(93.21) scale(12879.1 16165.6)">
<stop stop-color="#FF00AC"/>
<stop offset="0.41182" stop-color="#FF0000"/>
<stop offset="1" stop-color="#FF0071"/>
</radialGradient>
<radialGradient id="paint33_radial_23_1024" cx="0" cy="0" r="1" gradientUnits="userSpaceOnUse" gradientTransform="translate(13335.9 -10879.2) rotate(-62.07) scale(30061.2 14558)">
<stop stop-color="#2A0000"/>
<stop offset="0.27125" stop-color="#DD0000"/>
<stop offset="0.47213" stop-color="#B4004E" stop-opacity="0.965"/>
<stop offset="0.70863" stop-color="#DD0004" stop-opacity="0.976"/>
<stop offset="1" stop-color="#FF5A5A"/>
</radialGradient>
<linearGradient id="paint34_linear_23_1024" x1="11125.5" y1="-3267.33" x2="20349.2" y2="4536.71" gradientUnits="userSpaceOnUse">
<stop stop-color="#FF4A4A"/>
<stop offset="0.27125" stop-color="#DD0000"/>
<stop offset="0.47213" stop-color="#A9003D" stop-opacity="0.965"/>
<stop offset="0.70863" stop-color="#AD0024" stop-opacity="0.976"/>
<stop offset="1" stop-color="#FF5A5A"/>
</linearGradient>
<radialGradient id="paint35_radial_23_1024" cx="0" cy="0" r="1" gradientUnits="userSpaceOnUse" gradientTransform="translate(2110.87 -6817.43) rotate(-114.62) scale(10509.2 9678.02)">
<stop stop-color="#FF00AC"/>
<stop offset="0.41182" stop-color="#FF0000"/>
<stop offset="1" stop-color="#FF0071"/>
</radialGradient>
<radialGradient id="paint36_radial_23_1024" cx="0" cy="0" r="1" gradientUnits="userSpaceOnUse" gradientTransform="translate(14909.8 4265.76) rotate(-27.85) scale(18605.2 17966.4)">
<stop stop-color="#FF00AC"/>
<stop offset="0.41182" stop-color="#FF0000"/>
<stop offset="1" stop-color="#FF0071"/>
</radialGradient>
<radialGradient id="paint37_radial_23_1024" cx="0" cy="0" r="1" gradientUnits="userSpaceOnUse" gradientTransform="translate(10338.5 11885.5) rotate(14.55) scale(17727.6 14715.6)">
<stop stop-color="#FF00AC"/>
<stop offset="0.41182" stop-color="#FF0000"/>
<stop offset="1" stop-color="#FF0071"/>
</radialGradient>
<radialGradient id="paint38_radial_23_1024" cx="0" cy="0" r="1" gradientUnits="userSpaceOnUse" gradientTransform="translate(12562.2 3484.78) rotate(-5.63) scale(19379.4 9456.18)">
<stop stop-color="#2A0000"/>
<stop offset="0.27125" stop-color="#DD0000"/>
<stop offset="0.47213" stop-color="#B4004E" stop-opacity="0.965"/>
<stop offset="0.70863" stop-color="#DD0004" stop-opacity="0.976"/>
<stop offset="1" stop-color="#FF5A5A"/>
</radialGradient>
<linearGradient id="paint39_linear_23_1024" x1="7675.92" y1="4996.15" x2="6775.57" y2="12793.1" gradientUnits="userSpaceOnUse">
<stop stop-color="#FF4A4A"/>
<stop offset="0.27125" stop-color="#DD0000"/>
<stop offset="0.47213" stop-color="#A9003D" stop-opacity="0.965"/>
<stop offset="0.70863" stop-color="#AD0024" stop-opacity="0.976"/>
<stop offset="1" stop-color="#FF5A5A"/>
</linearGradient>
<radialGradient id="paint40_radial_23_1024" cx="0" cy="0" r="1" gradientUnits="userSpaceOnUse" gradientTransform="translate(5029.64 -10830.1) rotate(-90.77) scale(21180.8 10308.4)">
<stop stop-color="#2A0000"/>
<stop offset="0.27125" stop-color="#DD0000"/>
<stop offset="0.47213" stop-color="#B4004E" stop-opacity="0.965"/>
<stop offset="0.70863" stop-color="#DD0004" stop-opacity="0.976"/>
<stop offset="1" stop-color="#FF5A5A"/>
</radialGradient>
<linearGradient id="paint41_linear_23_1024" x1="6220.94" y1="-5389.49" x2="14525.5" y2="-3683.35" gradientUnits="userSpaceOnUse">
<stop stop-color="#FF4A4A"/>
<stop offset="0.27125" stop-color="#DD0000"/>
<stop offset="0.47213" stop-color="#A9003D" stop-opacity="0.965"/>
<stop offset="0.70863" stop-color="#AD0024" stop-opacity="0.976"/>
<stop offset="1" stop-color="#FF5A5A"/>
</linearGradient>
</defs>
</svg>
