<?xml version="1.0" encoding="UTF-8" standalone="no"?>
<!-- Created with Inkscape (http://www.inkscape.org/) -->

<svg
   version="1.1"
   id="svg2"
   width="666.66669"
   height="666.66669"
   viewBox="0 0 666.66669 666.66669"
   sodipodi:docname="8114755.ai"
   xmlns:inkscape="http://www.inkscape.org/namespaces/inkscape"
   xmlns:sodipodi="http://sodipodi.sourceforge.net/DTD/sodipodi-0.dtd"
   xmlns="http://www.w3.org/2000/svg"
   xmlns:svg="http://www.w3.org/2000/svg">
  <defs
     id="defs6">
    <clipPath
       clipPathUnits="userSpaceOnUse"
       id="clipPath18">
      <path
         d="M 0,0 H 500 V 500 H 0 Z"
         id="path16" />
    </clipPath>
    <clipPath
       clipPathUnits="userSpaceOnUse"
       id="clipPath26">
      <path
         d="M 17.8956,476.418 H 895.45 V 33.6378 H 17.8956 Z"
         id="path24" />
    </clipPath>
    <clipPath
       clipPathUnits="userSpaceOnUse"
       id="clipPath46">
      <path
         d="M 0,500 H 500 V 0 H 0 Z"
         id="path44" />
    </clipPath>
  </defs>
  <sodipodi:namedview
     id="namedview4"
     pagecolor="#ffffff"
     bordercolor="#000000"
     borderopacity="0.25"
     inkscape:showpageshadow="2"
     inkscape:pageopacity="0.0"
     inkscape:pagecheckerboard="0"
     inkscape:deskcolor="#d1d1d1" />
  <g
     id="g8"
     inkscape:groupmode="layer"
     inkscape:label="8114755"
     transform="matrix(1.3333333,0,0,-1.3333333,0,666.66667)">
    <path
       d="M 0,0 H 500 V 500 H 0 Z"
       style="fill:#ffcdda;fill-opacity:1;fill-rule:nonzero;stroke:none"
       id="path10" />
    <g
       id="g12">
      <g
         id="g14"
         clip-path="url(#clipPath18)">
        <g
           id="g20">
          <g
             id="g22" />
          <g
             id="g36">
            <g
               clip-path="url(#clipPath26)"
               opacity="0.399994"
               id="g34">
              <g
                 transform="translate(856.919,426.9336)"
                 id="g30">
                <path
                   d="m 0,0 h -778.682 c -3.05,0 -5.521,3.451 -5.521,7.706 0,2.298 0.734,4.336 1.875,5.749 l -35.365,25.399 h -9.994 c -2.11,0 -3.809,2.378 -3.809,5.315 0,2.936 1.699,5.315 3.809,5.315 H 34.721 c 2.105,0 3.81,-2.379 3.81,-5.315 0,-2.937 -1.705,-5.315 -3.81,-5.315 H 26.519 L 3.872,13.194 C 4.889,11.797 5.522,9.856 5.522,7.706 5.522,3.451 3.051,0 0,0"
                   style="fill:#ffcdda;fill-opacity:1;fill-rule:nonzero;stroke:none"
                   id="path28" />
              </g>
              <path
                 d="M 65.306,392.595 H 76.99 V 349.746 H 65.306 Z m 26.062,0 h 7.189 V 107.212 h -7.189 z m 0,-290.907 h 7.19 v -5.257 h 30.314 C 128.87,96.38 128.856,96.332 128.856,96.28 V 89.761 H 107.825 V 86.046 H 331.927 V 80.294 H 91.368 Z M 331.927,89.761 h -36.916 v 6.519 c 0,0.052 -0.014,0.1 -0.014,0.151 h 30.514 v 5.257 h 6.416 z m 0,17.451 h -6.416 v 285.383 h 6.416 z M 288.716,96.431 C 288.712,96.38 288.7,96.332 288.7,96.28 v -6.519 h -53.674 v 6.519 c 0,0.052 -0.013,0.1 -0.015,0.151 z m -59.986,0 c -0.002,-0.051 -0.016,-0.099 -0.016,-0.151 v -6.519 h -33.561 v 6.519 c 0,0.052 -0.011,0.1 -0.013,0.151 z m -39.874,0 c 0,-0.051 -0.013,-0.099 -0.013,-0.151 v -6.519 h -53.674 v 6.519 c 0,0.052 -0.014,0.1 -0.016,0.151 z m 157.45,296.164 h 6.932 V 107.212 h -6.932 z m 0,-290.907 h 6.931 v -5.257 h 32.405 c -0.002,-0.051 -0.016,-0.099 -0.016,-0.151 v -6.519 h -39.32 z m 0,-15.642 h 110.365 v 3.715 h -4.748 v 6.519 c 0,0.052 -0.012,0.1 -0.014,0.151 H 580.19 v 5.257 h 6.163 V 80.294 H 346.306 Z m 240.047,21.166 h -6.162 v 285.383 h 6.162 z M 445.626,96.431 c 0,-0.051 -0.014,-0.099 -0.014,-0.151 v -6.519 h -53.673 v 6.519 c 0,0.052 -0.014,0.1 -0.016,0.151 z m 155.106,296.164 h 7.187 V 107.212 h -7.187 z m 0,-290.907 h 7.187 V 96.431 H 834.87 v 5.257 h 6.162 V 80.294 h -240.3 z m 240.3,5.524 h -6.162 v 285.383 h 6.162 z M 17.896,409.114 v -71.446 c 0,-1.804 1.46,-3.267 3.265,-3.267 H 62.04 c 1.805,0 3.266,1.463 3.266,3.267 v 6.551 H 76.989 V 41.246 h -2.804 c -2.137,0 -3.87,-3.148 -3.87,-4.895 v -1.41 c 0,-1.749 1.733,-1.232 3.87,-1.232 h 19.988 c 2.137,0 3.869,-0.517 3.869,1.232 v 1.827 c 0,1.745 -1.732,4.478 -3.869,4.478 H 91.368 V 71.484 H 331.927 V 41.246 h -2.803 c -2.137,0 -3.871,-3.148 -3.871,-4.895 v -1.41 c 0,-1.749 1.734,-1.232 3.871,-1.232 h 19.986 c 2.137,0 3.872,-0.517 3.872,1.232 v 1.827 c 0,1.745 -1.735,4.478 -3.872,4.478 h -2.804 V 71.484 H 586.353 V 41.246 h -2.805 c -2.137,0 -3.869,-3.148 -3.869,-4.895 v -1.41 c 0,-1.749 1.732,-1.232 3.869,-1.232 h 19.988 c 2.137,0 3.869,-0.517 3.869,1.232 v 1.827 c 0,1.745 -1.732,4.478 -3.869,4.478 h -2.804 v 30.238 h 240.3 V 41.246 h -2.804 c -2.137,0 -3.87,-3.148 -3.87,-4.895 v -1.41 c 0,-1.749 1.733,-1.232 3.87,-1.232 h 19.987 c 2.138,0 3.87,-0.517 3.87,1.232 v 1.827 c 0,1.745 -1.732,4.478 -3.87,4.478 h -2.804 v 385.207 h -14.379 v -28.331 h -6.162 v 5.875 H 607.919 v -5.875 h -7.187 v 28.331 h -14.379 v -28.331 h -6.163 v 5.875 H 353.237 v -5.875 h -6.931 v 28.331 h -14.379 v -28.331 h -6.416 v 5.875 H 98.558 v -5.875 h -7.19 v 28.331 H 76.989 V 398.122 H 65.306 v 10.992 c 0,1.803 -1.461,3.266 -3.266,3.266 H 21.161 c -1.805,0 -3.265,-1.463 -3.265,-3.266"
                 style="fill:#ffcdda;fill-opacity:1;fill-rule:nonzero;stroke:none"
                 id="path32" />
            </g>
          </g>
        </g>
      </g>
    </g>
    <path
       d="M 0,0 H 500 V 36.28 H 0 Z"
       style="fill:#000000;fill-opacity:1;fill-rule:nonzero;stroke:none"
       id="path38" />
    <g
       id="g40">
      <g
         id="g42"
         clip-path="url(#clipPath46)">
        <g
           id="g48"
           transform="translate(299.8585,316.9556)">
          <path
             d="m 0,0 c 0.428,-0.133 0.84,-0.293 1.248,-0.455 l 0.606,-0.239 0.292,-0.11 C 2.225,-0.836 2.371,-0.879 2.328,-0.863 L 2.309,-0.855 2.41,-0.883 C 2.727,-0.97 3.043,-1.049 3.393,-1.176 3.568,-1.234 3.752,-1.321 3.938,-1.429 4.113,-1.544 4.309,-1.681 4.437,-1.84 4.59,-1.994 4.701,-2.162 4.814,-2.33 4.928,-2.497 4.988,-2.619 5.076,-2.766 5.182,-2.943 5.256,-3.04 5.348,-3.18 L 5.607,-3.57 C 5.975,-4.085 6.232,-4.627 6.654,-5.14 7.039,-5.649 7.424,-6.156 7.789,-6.676 8.09,-7.022 8.439,-7.365 8.762,-7.887 8.92,-8.166 9.043,-8.471 9.1,-8.802 9.119,-8.966 9.143,-9.165 9.141,-9.299 L 9.125,-9.662 C 9.078,-10.021 9.029,-10.201 8.98,-10.479 l -0.146,-0.76 c -0.051,-0.249 -0.139,-0.468 -0.209,-0.703 l -0.219,-0.693 c -0.082,-0.258 -0.123,-0.467 -0.187,-0.702 l -0.188,-0.688 -0.392,-1.381 c -0.243,-0.939 -0.479,-1.883 -0.774,-2.815 -0.008,0.982 0.03,1.955 0.086,2.929 l 0.166,1.469 0.09,0.738 c 0.035,0.238 0.064,0.509 0.107,0.72 0.09,0.473 0.192,0.956 0.274,1.421 l 0.158,1.292 -0.01,0.362 C 7.729,-9.182 7.703,-9.142 7.695,-9.065 7.658,-8.921 7.602,-8.773 7.518,-8.632 7.336,-8.343 7,-8.006 6.662,-7.64 l -0.016,0.018 -0.031,0.04 c -0.398,0.521 -0.779,1.056 -1.16,1.589 -0.197,0.258 -0.381,0.537 -0.553,0.838 -0.173,0.293 -0.353,0.583 -0.519,0.881 l -0.488,0.866 c -0.071,0.138 -0.149,0.313 -0.213,0.42 -0.065,0.105 -0.125,0.217 -0.2,0.3 -0.068,0.1 -0.142,0.158 -0.226,0.236 -0.09,0.066 -0.193,0.136 -0.324,0.196 -0.248,0.126 -0.557,0.244 -0.858,0.365 l 0.08,-0.02 C 1.9,-1.844 1.848,-1.794 1.727,-1.739 l -0.297,0.167 -0.565,0.335 -1.119,0.649 c -0.373,0.206 -0.752,0.403 -1.139,0.544 -0.076,0.025 -0.156,0.045 -0.234,0.061 l 0.293,-0.494 c 0.551,-0.947 1.148,-1.863 1.779,-2.754 0.635,-0.886 1.309,-1.746 2.065,-2.53 0.381,-0.387 0.775,-0.768 1.211,-1.098 0.422,-0.353 0.894,-0.627 1.4,-0.895 -0.547,0.102 -1.115,0.26 -1.629,0.524 -0.523,0.244 -1.008,0.56 -1.482,0.891 -0.928,0.688 -1.758,1.496 -2.512,2.36 -0.756,0.862 -1.43,1.788 -2.057,2.742 l -0.888,1.429 c -0.299,0.473 -0.596,0.946 -0.879,1.429 -0.57,0.96 -1.154,1.914 -1.699,2.895 L -6.848,5.98 c -0.271,0.483 -0.539,1.022 -0.773,1.488 -0.246,0.48 -0.504,0.947 -0.822,1.359 -0.305,0.41 -0.737,0.798 -1.143,1.046 -0.213,0.124 -0.408,0.169 -0.506,0.094 -0.127,-0.079 -0.23,-0.341 -0.281,-0.592 -0.057,-0.259 -0.086,-0.534 -0.117,-0.812 -0.033,-0.214 -0.031,-0.424 -0.1,-0.648 0.078,-0.08 0.152,-0.156 0.238,-0.239 0.293,-0.357 0.637,-0.746 0.914,-1.193 0.297,-0.441 0.594,-0.91 0.858,-1.41 0.266,-0.488 0.539,-0.993 0.818,-1.506 0.28,-0.507 0.549,-1.083 0.815,-1.624 0.232,-0.552 0.465,-1.105 0.695,-1.649 0.219,-0.536 0.434,-1.065 0.641,-1.576 0.207,-0.51 0.418,-0.987 0.627,-1.439 0.195,-0.465 0.443,-0.851 0.636,-1.245 0.196,-0.397 0.436,-0.682 0.618,-0.994 0.177,-0.305 0.394,-0.55 0.564,-0.749 0.338,-0.407 0.523,-0.65 0.523,-0.65 0,0 -0.267,0.148 -0.716,0.425 -0.225,0.14 -0.504,0.294 -0.772,0.567 -0.267,0.259 -0.64,0.534 -0.914,0.902 -0.285,0.361 -0.646,0.736 -0.908,1.193 -0.289,0.443 -0.6,0.913 -0.848,1.424 -0.554,1.006 -1.013,2.109 -1.513,3.173 -0.247,0.536 -0.463,1.049 -0.735,1.579 -0.269,0.514 -0.482,1.084 -0.713,1.582 -0.226,0.505 -0.431,0.992 -0.646,1.439 -0.209,0.456 -0.44,0.852 -0.637,1.241 -0.246,0.337 -0.42,0.714 -0.654,0.965 -0.237,0.246 -0.405,0.533 -0.61,0.679 -0.388,0.322 -0.627,0.532 -0.627,0.532 0,0 0.28,-0.087 0.795,-0.285 0.266,-0.088 0.516,-0.303 0.84,-0.514 0.18,-0.114 0.346,-0.265 0.512,-0.43 0.027,0.404 -0.025,0.874 0.023,1.322 0.041,0.287 0.057,0.62 0.362,0.917 0.361,0.303 0.812,0.159 1.074,0.043 0.582,-0.275 1.006,-0.635 1.467,-1.034 0.435,-0.414 0.808,-0.878 1.138,-1.354 0.329,-0.5 0.608,-0.937 0.936,-1.396 L -4.861,5.215 C -4.236,4.29 -3.654,3.337 -3.057,2.391 -2.756,1.92 -2.469,1.44 -2.184,0.96 l 0.397,-0.671 c 0.158,0.036 0.32,0.021 0.465,0.018 C -0.855,0.265 -0.426,0.133 0,0 m -8.682,-6.889 c -0.111,0.113 -0.252,0.247 -0.394,0.41 -0.156,0.154 -0.313,0.346 -0.449,0.589 -0.309,0.465 -0.635,1.054 -0.901,1.646 -0.133,0.3 -0.267,0.609 -0.406,0.923 -0.127,0.306 -0.256,0.616 -0.383,0.927 -0.584,1.278 -1.072,2.589 -1.281,3.671 -0.24,1.056 -0.264,1.785 -0.264,1.785 0,0 0.506,-0.572 1.063,-1.464 0.142,-0.223 0.293,-0.463 0.433,-0.723 0.155,-0.261 0.315,-0.536 0.483,-0.82 0.324,-0.576 0.642,-1.202 0.935,-1.839 0.147,-0.358 0.258,-0.683 0.373,-1.026 0.119,-0.341 0.211,-0.664 0.293,-0.98 0.078,-0.316 0.153,-0.622 0.223,-0.911 0.08,-0.27 0.137,-0.538 0.191,-0.79 0.047,-0.25 0.104,-0.491 0.182,-0.698 0.068,-0.207 0.115,-0.396 0.158,-0.549 0.08,-0.309 0.113,-0.493 0.113,-0.493 0,0 -0.14,0.12 -0.369,0.342 m -3.314,-3.411 c -0.215,0.283 -0.561,0.642 -0.85,1.18 -0.314,0.522 -0.65,1.166 -0.933,1.85 -0.297,0.692 -0.553,1.43 -0.793,2.179 -0.244,0.735 -0.446,1.489 -0.657,2.173 -0.109,0.34 -0.169,0.695 -0.279,1.001 -0.105,0.311 -0.189,0.613 -0.265,0.896 -0.145,0.569 -0.336,1.011 -0.42,1.358 -0.098,0.338 -0.143,0.544 -0.143,0.544 0,0 0.15,-0.134 0.397,-0.39 0.23,-0.262 0.625,-0.62 0.941,-1.137 0.166,-0.252 0.348,-0.53 0.521,-0.833 0.19,-0.299 0.332,-0.63 0.495,-0.972 0.328,-0.686 0.586,-1.433 0.837,-2.187 0.237,-0.745 0.438,-1.508 0.624,-2.207 0.083,-0.353 0.164,-0.694 0.242,-1.017 0.088,-0.313 0.154,-0.618 0.215,-0.904 0.109,-0.571 0.275,-1.057 0.335,-1.403 0.073,-0.347 0.102,-0.551 0.102,-0.551 0,0 -0.141,0.149 -0.369,0.42 M 9.053,-75.411 c 0.244,0.152 0.541,0.336 0.881,0.548 0.345,0.201 0.724,0.456 1.17,0.666 0.439,0.221 0.919,0.458 1.435,0.692 0.51,0.247 1.057,0.49 1.647,0.682 0.584,0.2 1.177,0.448 1.802,0.626 0.631,0.164 1.272,0.33 1.91,0.497 0.643,0.158 1.303,0.233 1.942,0.351 0.64,0.125 1.279,0.173 1.894,0.219 1.231,0.118 2.387,0.118 3.375,0.086 0.987,-0.005 1.793,-0.123 2.366,-0.177 0.572,-0.067 0.898,-0.118 0.898,-0.118 0,0 -0.322,-0.074 -0.887,-0.178 -0.562,-0.113 -1.381,-0.214 -2.336,-0.384 -0.476,-0.081 -0.994,-0.169 -1.539,-0.24 -0.547,-0.075 -1.115,-0.212 -1.709,-0.296 -0.595,-0.082 -1.201,-0.21 -1.814,-0.338 -0.615,-0.131 -1.248,-0.218 -1.861,-0.388 -0.622,-0.144 -1.241,-0.289 -1.852,-0.43 -0.605,-0.165 -1.203,-0.328 -1.779,-0.486 -0.582,-0.15 -1.143,-0.304 -1.666,-0.476 -0.526,-0.168 -1.032,-0.309 -1.5,-0.438 -0.467,-0.131 -0.885,-0.285 -1.266,-0.395 -0.381,-0.113 -0.713,-0.212 -0.986,-0.294 -0.553,-0.154 -0.877,-0.231 -0.877,-0.231 0,0 0.269,0.191 0.752,0.502 m -23.199,-192.623 c 0.017,0.173 0.087,0.417 0.207,0.719 0.246,0.603 0.769,1.386 1.521,2.191 0.746,0.811 1.719,1.645 2.793,2.466 0.271,0.2 0.545,0.405 0.822,0.611 l 0.42,0.308 c 0.156,0.114 0.362,0.246 0.545,0.333 0.76,0.354 1.518,0.504 2.272,0.61 0.754,0.1 1.504,0.095 2.234,0.072 0.732,-0.022 1.445,-0.121 2.125,-0.242 1.363,-0.239 2.596,-0.644 3.6,-1.091 1.009,-0.438 1.787,-0.928 2.302,-1.299 0.262,-0.185 0.453,-0.345 0.582,-0.454 0.129,-0.109 0.2,-0.167 0.2,-0.167 0,0 -0.336,0.128 -0.924,0.352 -0.584,0.214 -1.428,0.485 -2.444,0.739 -1.019,0.245 -2.214,0.469 -3.502,0.599 -1.285,0.117 -2.668,0.171 -3.996,0.009 -0.656,-0.07 -1.316,-0.2 -1.84,-0.43 -0.132,-0.064 -0.23,-0.107 -0.361,-0.189 l -0.439,-0.278 c -0.289,-0.184 -0.575,-0.366 -0.856,-0.544 -1.119,-0.706 -2.138,-1.386 -2.972,-2.019 -0.829,-0.637 -1.465,-1.232 -1.834,-1.719 -0.172,-0.247 -0.321,-0.446 -0.381,-0.6 -0.073,-0.152 -0.112,-0.234 -0.112,-0.234 0,0 0.014,0.089 0.038,0.257 m -50.791,-1.521 c 0,0 -0.347,0.126 -0.94,0.366 -0.587,0.245 -1.425,0.597 -2.431,1.018 -0.494,0.223 -1.048,0.418 -1.613,0.666 -0.566,0.249 -1.182,0.457 -1.802,0.705 -0.616,0.263 -1.282,0.444 -1.938,0.682 -0.652,0.253 -1.343,0.405 -2.021,0.599 -0.676,0.228 -1.352,0.31 -2.018,0.474 -0.665,0.142 -1.392,0.216 -2.056,0.324 -0.667,0.095 -1.255,0.157 -1.855,0.166 -0.588,-0.008 -1.145,-0.046 -1.655,-0.13 -0.498,-0.109 -0.972,-0.205 -1.351,-0.382 -0.411,-0.139 -0.689,-0.347 -0.964,-0.5 -0.261,-0.17 -0.433,-0.371 -0.566,-0.475 -0.129,-0.115 -0.197,-0.176 -0.197,-0.176 0,0 0.047,0.079 0.134,0.227 0.1,0.14 0.187,0.384 0.409,0.623 0.231,0.229 0.509,0.574 0.911,0.802 0.378,0.286 0.862,0.504 1.403,0.709 0.274,0.081 0.56,0.185 0.862,0.256 0.304,0.058 0.621,0.121 0.949,0.16 0.647,0.07 1.376,0.092 2.062,0.029 0.684,-0.07 1.37,-0.054 2.106,-0.199 0.726,-0.153 1.502,-0.24 2.21,-0.459 0.713,-0.219 1.439,-0.402 2.116,-0.68 0.687,-0.25 1.352,-0.527 1.973,-0.834 0.629,-0.291 1.229,-0.589 1.773,-0.913 0.55,-0.311 1.073,-0.601 1.528,-0.912 0.928,-0.591 1.673,-1.126 2.178,-1.521 0.51,-0.391 0.793,-0.625 0.793,-0.625 M -77.061,-0.606 c 0.022,0.328 0.034,0.653 -0.03,0.932 -0.029,0.14 -0.085,0.26 -0.15,0.362 -0.07,0.099 -0.162,0.172 -0.262,0.237 l -0.021,0.017 c -0.219,0.132 -0.521,0.152 -0.897,0.095 -0.374,-0.047 -0.77,-0.156 -1.274,-0.157 -0.255,0.009 -0.552,0.058 -0.837,0.229 -0.272,0.176 -0.489,0.448 -0.589,0.7 l -0.082,0.192 -0.054,0.186 c -0.026,0.106 -0.058,0.176 -0.078,0.313 -0.051,0.279 -0.059,0.542 -0.043,0.787 0.034,0.503 0.199,0.956 0.335,1.333 0.141,0.381 0.233,0.694 0.222,0.947 -0.013,0.252 -0.087,0.493 -0.278,0.759 -0.033,0.065 -0.094,0.13 -0.144,0.196 l -0.077,0.1 -0.038,0.049 -0.003,0.004 -0.434,0.399 c -0.132,0.077 -0.258,0.157 -0.383,0.242 l -0.49,0.262 -1.109,0.542 c -0.195,0.104 -0.399,0.236 -0.594,0.36 -0.197,0.156 -0.398,0.326 -0.581,0.514 -0.161,0.241 -0.344,0.433 -0.458,0.735 -0.068,0.203 -0.15,0.352 -0.206,0.598 -0.051,0.262 -0.093,0.529 -0.126,0.795 v 0.681 c 0.022,0.443 0.07,0.882 0.158,1.296 0.151,0.84 0.387,1.648 0.605,2.415 l -0.013,-0.064 0.482,2.323 0.231,1.137 c 0.065,0.377 0.112,0.753 0.171,1.132 l 0.062,1.133 -0.043,0.564 c -0.021,0.187 -0.014,0.383 -0.057,0.567 l -0.125,0.559 c -0.049,0.184 -0.069,0.383 -0.144,0.561 l -0.43,1.094 0.664,-0.992 c 0.11,-0.17 0.167,-0.363 0.253,-0.547 l 0.239,-0.561 c 0.076,-0.19 0.1,-0.393 0.152,-0.59 l 0.137,-0.601 c 0.045,-0.403 0.08,-0.812 0.101,-1.222 -0.009,-0.812 -0.051,-1.62 -0.154,-2.408 l -0.282,-2.328 -0.002,-0.02 -0.011,-0.044 c -0.183,-0.803 -0.362,-1.565 -0.459,-2.329 -0.062,-0.381 -0.073,-0.755 -0.092,-1.119 l 0.006,-0.534 c 0.028,-0.136 0.046,-0.269 0.056,-0.407 0.024,-0.15 0.135,-0.366 0.198,-0.546 0.024,-0.081 0.143,-0.184 0.192,-0.286 0.103,-0.094 0.217,-0.186 0.334,-0.282 l 0.446,-0.269 1.067,-0.544 0.577,-0.32 0.624,-0.439 0.442,-0.42 0.083,-0.085 0.026,-0.036 0.054,-0.07 0.107,-0.144 c 0.07,-0.096 0.144,-0.185 0.202,-0.301 0.261,-0.407 0.449,-0.973 0.428,-1.531 -0.019,-0.563 -0.218,-1.026 -0.371,-1.396 -0.158,-0.375 -0.282,-0.69 -0.334,-0.995 -0.023,-0.16 -0.027,-0.302 -0.024,-0.426 -0.003,-0.065 0.032,-0.19 0.046,-0.282 0.005,-0.031 0.027,-0.14 0.019,-0.109 l 0.031,-0.089 c 0.086,-0.24 0.146,-0.295 0.459,-0.355 0.308,-0.043 0.715,0.004 1.149,0.013 0.415,0.011 0.978,-0.029 1.407,-0.401 -0.003,0.003 -0.005,0.006 -0.008,0.008 l 0.021,-0.016 c -0.004,0.003 -0.009,0.005 -0.013,0.008 0.163,-0.142 0.304,-0.308 0.399,-0.503 0.09,-0.198 0.139,-0.402 0.151,-0.597 0.024,-0.391 -0.046,-0.745 -0.135,-1.08 -0.164,-0.672 -0.46,-1.281 -0.472,-1.962 -0.145,0.676 0.026,1.378 0.071,2.031 m -10.771,44.585 c -0.758,0.088 -1.514,0.176 -2.266,0.264 -2.993,0.44 -5.854,1.083 -8.637,1.636 -0.703,0.151 -1.402,0.3 -2.093,0.448 -0.694,0.173 -1.371,0.386 -2.03,0.61 -1.311,0.466 -2.563,0.98 -3.756,1.507 -1.189,0.517 -2.345,1.02 -3.463,1.506 -1.144,0.446 -2.231,0.916 -3.285,1.255 -2.116,0.695 -4.154,1.048 -5.954,0.924 -1.807,-0.087 -3.32,-0.665 -4.453,-1.306 -1.147,-0.638 -1.925,-1.333 -2.448,-1.807 -0.502,-0.503 -0.77,-0.771 -0.77,-0.771 0,0 0.247,0.287 0.71,0.826 0.492,0.507 1.215,1.291 2.358,2.001 1.124,0.721 2.666,1.413 4.553,1.611 1.879,0.238 4.045,-0.012 6.254,-0.675 1.12,-0.32 2.224,-0.756 3.374,-1.159 1.144,-0.452 2.326,-0.918 3.541,-1.398 2.423,-0.97 4.927,-1.854 7.709,-2.297 2.791,-0.522 5.667,-1.133 8.577,-1.527 0.728,-0.076 1.46,-0.153 2.193,-0.231 0.681,-0.074 1.484,-0.043 2.222,-0.07 1.509,-0.018 3.021,-0.074 4.537,-0.06 1.518,-0.016 3.035,-0.032 4.547,-0.048 1.508,-0.085 3,-0.192 4.454,-0.192 1.44,0 2.916,0.103 4.155,0.49 1.175,0.387 2.162,1.45 3.175,2.42 0.397,0.401 0.853,0.814 1.291,1.191 -0.788,1.049 -2.738,3.656 -4.648,6.301 -1.235,1.712 -2.458,3.424 -3.329,4.757 -0.445,0.657 -0.798,1.211 -1.012,1.619 -0.227,0.401 -0.357,0.629 -0.357,0.629 0,0 0.15,-0.217 0.412,-0.596 0.25,-0.389 0.654,-0.911 1.151,-1.521 0.972,-1.231 2.346,-2.834 3.722,-4.422 2.118,-2.441 4.269,-4.839 5.157,-5.825 0.262,0.223 0.529,0.441 0.815,0.646 1.135,0.783 2.246,1.55 3.328,2.296 1.06,0.75 2.135,1.437 3.096,2.178 0.954,0.749 1.876,1.473 2.76,2.167 1.815,1.415 3.459,2.654 4.996,3.703 1.531,1.048 2.805,2.014 3.871,2.798 1.062,0.788 1.805,1.514 2.359,1.96 0.539,0.463 0.828,0.709 0.828,0.709 0,0 -0.269,-0.267 -0.771,-0.767 -0.252,-0.251 -0.562,-0.561 -0.928,-0.925 -0.367,-0.363 -0.777,-0.798 -1.302,-1.203 -1.024,-0.844 -2.26,-1.893 -3.715,-3.014 -1.451,-1.118 -3.059,-2.48 -4.791,-3.903 -0.877,-0.738 -1.79,-1.506 -2.736,-2.302 -0.952,-0.787 -1.99,-1.501 -3.028,-2.289 -1.036,-0.767 -2.1,-1.555 -3.187,-2.36 -0.522,-0.404 -1.03,-0.899 -1.56,-1.344 -0.545,-0.466 -0.998,-0.887 -1.503,-1.405 -0.506,-0.501 -1.007,-1.028 -1.596,-1.519 -0.278,-0.255 -0.609,-0.475 -0.935,-0.709 -0.383,-0.225 -0.79,-0.45 -1.112,-0.542 -1.55,-0.499 -3.066,-0.591 -4.598,-0.618 -1.527,-0.016 -3.034,0.076 -4.538,0.144 -1.504,0 -3.014,-0.001 -4.525,-0.001 -1.512,0.002 -3.026,0.076 -4.533,0.11 -0.767,0.038 -1.476,0.009 -2.286,0.1 M -105.375,6.647 c -0.113,0.101 -0.262,0.258 -0.508,0.373 -0.22,0.145 -0.533,0.232 -0.88,0.284 -0.353,0.044 -0.757,0.034 -1.199,-0.046 -0.439,-0.063 -0.915,-0.215 -1.413,-0.371 -0.499,-0.168 -1.016,-0.386 -1.556,-0.609 -0.539,-0.242 -1.096,-0.493 -1.662,-0.748 -0.565,-0.251 -1.19,-0.534 -1.786,-0.77 -1.149,-0.429 -2.289,-0.988 -3.39,-1.465 -1.103,-0.487 -2.151,-0.93 -3.097,-1.211 -0.459,-0.162 -0.905,-0.271 -1.303,-0.351 -0.394,-0.095 -0.733,-0.156 -1.016,-0.173 -0.565,-0.053 -0.891,-0.07 -0.891,-0.07 0,0 0.296,0.138 0.82,0.358 0.268,0.096 0.571,0.26 0.914,0.43 0.344,0.163 0.724,0.363 1.142,0.596 0.836,0.444 1.791,1.019 2.841,1.599 0.535,0.284 1.064,0.608 1.652,0.88 0.57,0.29 1.183,0.549 1.796,0.809 0.6,0.223 1.151,0.453 1.746,0.699 0.583,0.251 1.185,0.453 1.769,0.653 0.584,0.201 1.171,0.349 1.74,0.457 0.414,0.078 0.813,0.12 1.203,0.134 0.027,0.055 0.049,0.118 0.094,0.168 l -0.011,-0.016 c 0.102,0.568 0.235,1.15 0.094,1.653 -0.109,0.514 -0.515,0.768 -0.992,0.868 -0.483,0.104 -1.03,0.067 -1.564,-0.022 -0.534,-0.079 -1.084,-0.228 -1.589,-0.4 l -3.255,-1.183 -3.318,-1.121 -3.333,-1.061 -1.708,-0.521 c -0.567,-0.193 -1.14,-0.261 -1.711,-0.391 -1.128,-0.229 -2.302,-0.477 -3.47,-0.602 -0.58,-0.058 -1.137,-0.15 -1.695,-0.269 -0.543,-0.147 -1.067,-0.341 -1.54,-0.718 0.339,0.47 0.859,0.839 1.403,1.103 0.548,0.247 1.125,0.431 1.688,0.594 0.572,0.162 1.107,0.301 1.657,0.491 0.553,0.187 1.113,0.347 1.669,0.522 0.55,0.183 1.131,0.32 1.658,0.529 l 0.287,0.106 c 0.446,0.313 0.796,0.746 1.121,1.166 0.187,0.281 0.372,0.565 0.5,0.869 0.136,0.297 0.238,0.613 0.244,0.901 0.016,0.146 -0.013,0.277 -0.052,0.387 -0.049,0.127 -0.098,0.156 -0.157,0.232 l -0.218,0.142 c -0.009,-10e-4 -0.082,0.009 -0.114,0.022 -0.102,0.011 -0.234,0.022 -0.382,-0.007 -0.288,-0.031 -0.611,-0.139 -0.924,-0.235 -0.329,-0.105 -0.626,-0.23 -1.028,-0.333 l -0.037,-0.009 -0.065,-0.001 c -0.554,-0.005 -1.108,-0.021 -1.667,-0.016 l -1.7,0.167 c 0.019,-0.002 0.035,-0.008 0.054,-0.01 l -0.074,0.012 0.02,-0.002 c -0.347,0.04 -0.681,0.1 -0.991,0.178 l -0.914,0.234 c -0.285,0.064 -0.556,0.102 -0.813,0.114 -0.124,-0.01 -0.25,-0.006 -0.372,-0.02 l -0.32,-0.066 c -0.388,-0.18 -0.792,-0.386 -1.162,-0.689 -0.384,-0.287 -0.739,-0.63 -1.074,-0.987 -0.155,-0.185 -0.337,-0.37 -0.464,-0.553 -0.138,-0.169 -0.281,-0.372 -0.427,-0.607 -0.249,-0.435 -0.494,-0.804 -0.659,-1.276 -0.196,-0.44 -0.321,-0.934 -0.462,-1.423 L -136.6,4.492 c -0.14,-0.526 -0.276,-1.046 -0.489,-1.614 -0.093,-0.291 -0.207,-0.529 -0.322,-0.765 l -0.17,-0.36 c -0.102,-0.2 -0.152,-0.261 -0.232,-0.399 -0.574,-0.96 -1.258,-1.794 -1.911,-2.629 -0.65,-0.835 -1.304,-1.649 -1.864,-2.514 -0.28,-0.433 -0.521,-0.882 -0.747,-1.339 -0.214,-0.463 -0.385,-0.943 -0.492,-1.441 -0.1,-0.499 -0.131,-1.015 -0.087,-1.528 0.048,-0.251 0.054,-0.513 0.118,-0.771 l 0.22,-0.767 -0.351,0.717 c -0.107,0.242 -0.172,0.511 -0.251,0.774 -0.118,0.535 -0.159,1.085 -0.122,1.64 0.08,1.107 0.463,2.177 0.971,3.141 0.771,1.501 1.783,2.831 2.653,4.172 l -0.027,-0.01 c 0,0 -0.119,0.352 -0.326,0.968 -0.211,0.613 -0.491,1.505 -0.89,2.528 -0.393,1.038 -0.851,2.25 -1.342,3.549 -0.254,0.648 -0.49,1.334 -0.737,2.026 -0.242,0.695 -0.512,1.389 -0.714,2.112 -0.217,0.715 -0.434,1.431 -0.648,2.135 -0.166,0.717 -0.329,1.424 -0.487,2.107 -0.077,0.341 -0.154,0.677 -0.228,1.005 -0.045,0.335 -0.089,0.662 -0.132,0.98 -0.086,0.636 -0.167,1.237 -0.241,1.791 -0.098,0.551 -0.052,1.07 -0.082,1.522 -0.012,0.454 -0.023,0.849 -0.031,1.174 l -0.027,1.02 c 0,0 0.033,-0.37 0.091,-1.018 0.029,-0.323 0.064,-0.715 0.104,-1.165 0.059,-0.448 0.044,-0.961 0.177,-1.503 0.109,-0.544 0.226,-1.134 0.351,-1.757 0.062,-0.311 0.126,-0.63 0.191,-0.957 0.094,-0.319 0.19,-0.647 0.288,-0.979 0.198,-0.662 0.402,-1.346 0.61,-2.042 0.254,-0.681 0.512,-1.372 0.771,-2.064 0.242,-0.694 0.555,-1.368 0.836,-2.038 0.288,-0.668 0.562,-1.327 0.856,-1.959 0.576,-1.274 1.113,-2.462 1.574,-3.481 0.441,-0.952 0.754,-1.752 0.997,-2.344 l 0.109,0.257 c 0.107,0.245 0.211,0.491 0.263,0.711 0.142,0.433 0.255,0.944 0.372,1.447 l 0.359,1.563 c 0.144,0.53 0.273,1.071 0.499,1.606 0.179,0.534 0.499,1.074 0.783,1.551 0.136,0.215 0.299,0.445 0.496,0.688 0.183,0.247 0.377,0.439 0.566,0.658 0.396,0.41 0.812,0.8 1.282,1.143 0.455,0.354 0.987,0.649 1.569,0.876 l 0.038,0.015 0.018,0.003 0.586,0.096 c 0.195,0.014 0.389,0.006 0.583,0.005 0.381,-0.03 0.739,-0.101 1.073,-0.192 l 0.929,-0.278 c 0.289,-0.086 0.564,-0.146 0.829,-0.189 l 0.063,-0.01 0.012,-0.002 1.517,-0.253 c 0.512,-0.04 1.033,-0.061 1.551,-0.091 0.269,0.053 0.602,0.138 0.921,0.212 0.358,0.072 0.708,0.158 1.115,0.168 0.193,0.013 0.419,-0.005 0.649,-0.067 0.128,-0.054 0.232,-0.076 0.368,-0.171 l 0.203,-0.163 c 0.176,-0.179 0.332,-0.435 0.366,-0.65 0.048,-0.22 0.05,-0.448 0.005,-0.642 -0.07,-0.404 -0.24,-0.742 -0.433,-1.053 -0.187,-0.316 -0.422,-0.59 -0.658,-0.858 -0.278,-0.288 -0.585,-0.56 -0.92,-0.782 l 0.855,0.319 c 0.548,0.209 1.034,0.369 1.644,0.581 l 1.654,0.56 3.322,1.058 1.668,0.492 0.834,0.246 0.448,0.129 c 0.138,0.039 0.281,0.077 0.439,0.112 0.615,0.142 1.208,0.241 1.834,0.271 0.621,0.015 1.263,-0.018 1.898,-0.25 0.317,-0.106 0.622,-0.315 0.862,-0.583 0.114,-0.135 0.191,-0.308 0.273,-0.46 0.038,-0.169 0.085,-0.337 0.103,-0.501 0.033,-0.671 -0.237,-1.229 -0.487,-1.758 l -0.007,-0.014 -0.003,-0.002 c -0.037,-0.021 -0.067,-0.061 -0.099,-0.1 0.126,0.003 0.255,0.017 0.377,0.011 0.515,0.002 1.003,-0.101 1.402,-0.26 0.398,-0.156 0.718,-0.373 0.913,-0.604 0.229,-0.198 0.313,-0.426 0.389,-0.558 0.071,-0.134 0.109,-0.206 0.109,-0.206 0,0 -0.06,0.054 -0.174,0.157 m -4.553,-4.486 c -0.643,-0.451 -1.419,-0.923 -2.248,-1.444 -0.823,-0.53 -1.73,-1.044 -2.634,-1.563 -0.455,-0.242 -0.911,-0.485 -1.358,-0.723 -0.467,-0.253 -0.946,-0.48 -1.395,-0.693 -0.449,-0.2 -0.896,-0.368 -1.315,-0.533 -0.408,-0.16 -0.793,-0.311 -1.148,-0.451 -0.351,-0.151 -0.703,-0.231 -0.988,-0.388 -0.287,-0.142 -0.547,-0.253 -0.759,-0.347 -0.426,-0.185 -0.678,-0.279 -0.678,-0.279 0,0 0.181,0.198 0.511,0.523 0.166,0.161 0.365,0.361 0.604,0.574 0.222,0.23 0.543,0.422 0.872,0.655 0.329,0.223 0.707,0.492 1.091,0.713 0.385,0.23 0.787,0.479 1.216,0.709 0.416,0.24 0.813,0.519 1.246,0.758 0.449,0.26 0.906,0.523 1.362,0.786 0.919,0.493 1.836,0.99 2.722,1.408 0.88,0.43 1.741,0.765 2.48,1.047 1.476,0.567 2.521,0.827 2.521,0.827 0,0 -0.804,-0.703 -2.102,-1.579 m -1.227,-5.804 c -0.908,-0.771 -2.181,-1.698 -3.528,-2.506 -1.342,-0.816 -2.757,-1.513 -3.864,-1.961 -1.1,-0.458 -1.904,-0.65 -1.904,-0.65 0,0 0.541,0.62 1.456,1.381 0.909,0.77 2.181,1.698 3.527,2.507 1.341,0.818 2.755,1.515 3.862,1.963 1.102,0.457 1.905,0.649 1.905,0.649 0,0 -0.54,-0.621 -1.454,-1.383 m -35.565,55.808 c -0.835,-0.963 -1.478,-1.986 -1.849,-3.024 -0.369,-1.038 -0.476,-2.069 -0.442,-2.983 -0.01,-0.461 0.085,-0.886 0.12,-1.286 0.086,-0.392 0.152,-0.758 0.237,-1.082 0.187,-0.645 0.33,-1.159 0.466,-1.496 0.121,-0.343 0.186,-0.526 0.186,-0.526 0,0 -0.091,0.171 -0.261,0.494 -0.178,0.319 -0.417,0.799 -0.669,1.438 -0.122,0.321 -0.231,0.686 -0.363,1.081 -0.082,0.408 -0.229,0.842 -0.272,1.328 -0.145,0.958 -0.156,2.101 0.176,3.287 0.315,1.187 0.947,2.389 1.805,3.478 0.844,1.092 1.915,2.126 3.052,3.047 1.216,0.954 2.489,1.696 3.548,2.648 0.517,0.453 0.973,1.039 1.186,1.523 0.263,0.573 0.234,1.212 0.069,1.811 -0.346,1.25 -1.446,2.378 -2.255,3.821 -0.102,0.172 -0.201,0.385 -0.295,0.593 -0.103,0.235 -0.123,0.309 -0.224,0.606 -0.079,0.398 -0.157,0.793 -0.235,1.186 -0.045,0.396 -0.067,0.793 -0.098,1.185 -0.017,0.392 0.018,0.781 0.026,1.166 0.108,1.539 0.543,2.971 1.112,4.232 0.558,1.273 1.308,2.358 2.09,3.263 0.758,0.93 1.616,1.627 2.387,2.201 0.794,0.552 1.528,0.957 2.155,1.242 0.635,0.283 1.141,0.446 1.497,0.527 0.351,0.096 0.539,0.147 0.539,0.147 0,0 -0.178,-0.077 -0.512,-0.223 -0.165,-0.076 -0.376,-0.157 -0.611,-0.275 -0.227,-0.127 -0.489,-0.272 -0.782,-0.435 -0.574,-0.341 -1.242,-0.81 -1.939,-1.417 -0.676,-0.633 -1.409,-1.377 -2.062,-2.299 -1.338,-1.801 -2.436,-4.297 -2.558,-7.036 0.006,-0.341 -0.015,-0.685 0.011,-1.029 0.04,-0.341 0.08,-0.686 0.12,-1.032 0.079,-0.338 0.159,-0.678 0.239,-1.02 0.03,-0.056 0.122,-0.346 0.183,-0.453 0.068,-0.136 0.126,-0.27 0.221,-0.425 0.661,-1.216 1.874,-2.347 2.431,-4.109 0.246,-0.88 0.254,-1.889 -0.123,-2.732 -0.415,-0.931 -0.986,-1.538 -1.605,-2.095 -1.221,-1.089 -2.612,-1.792 -3.699,-2.609 -1.14,-0.88 -2.156,-1.749 -3.002,-2.718 m 0.901,19.334 c 0.225,1.525 0.724,3.148 1.529,4.74 0.81,1.594 1.92,3.139 3.455,4.444 0.382,0.353 0.771,0.63 1.162,0.892 0.21,0.142 0.361,0.26 0.62,0.424 l 0.614,0.382 c 0.814,0.511 1.638,1.027 2.469,1.548 1.633,1.045 3.26,2.2 4.609,3.512 0.347,0.299 0.68,0.682 1.014,1.056 0.357,0.381 0.597,0.703 0.877,1.088 0.519,0.751 0.886,1.588 1.107,2.472 0.443,1.772 0.363,3.684 0.318,5.562 -0.021,0.94 -0.041,1.891 0.015,2.818 0.068,0.943 0.221,1.855 0.462,2.724 0.467,1.713 1.362,3.391 2.875,4.21 0.736,0.4 1.575,0.521 2.319,0.456 0.169,-0.025 0.336,-0.049 0.501,-0.074 0.229,-0.028 0.348,-0.09 0.522,-0.133 0.325,-0.085 0.632,-0.192 0.92,-0.315 1.163,-0.468 2.096,-1.059 2.751,-1.675 0.649,-0.62 1.005,-1.265 1.159,-1.702 0.122,-0.454 0.187,-0.696 0.187,-0.696 0,0 -0.092,0.233 -0.264,0.671 -0.073,0.226 -0.285,0.435 -0.461,0.71 -0.201,0.258 -0.496,0.517 -0.811,0.798 -0.671,0.532 -1.609,1.021 -2.743,1.37 -0.283,0.094 -0.578,0.17 -0.888,0.223 -0.142,0.023 -0.335,0.081 -0.44,0.077 -0.166,0.01 -0.335,0.021 -0.506,0.032 -0.616,-0.01 -1.248,-0.131 -1.82,-0.486 -1.141,-0.702 -1.856,-2.162 -2.22,-3.743 -0.184,-0.798 -0.289,-1.644 -0.313,-2.506 -0.007,-0.879 0.023,-1.774 0.071,-2.71 0.078,-1.857 0.273,-3.88 -0.23,-5.96 -0.248,-1.031 -0.681,-2.049 -1.289,-2.945 -0.295,-0.427 -0.663,-0.902 -0.988,-1.253 -0.329,-0.375 -0.649,-0.752 -1.054,-1.118 -1.535,-1.472 -3.213,-2.618 -4.904,-3.685 -1.676,-1.095 -3.432,-1.929 -4.825,-3.062 -1.349,-1.103 -2.478,-2.495 -3.283,-3.933 -0.802,-1.448 -1.367,-2.942 -1.671,-4.374 -0.291,-1.432 -0.441,-2.782 -0.411,-3.983 -0.008,-0.601 0.074,-1.159 0.101,-1.681 0.086,-0.515 0.166,-0.989 0.237,-1.416 0.216,-0.84 0.372,-1.511 0.55,-1.945 0.154,-0.444 0.236,-0.681 0.236,-0.681 0,0 -0.108,0.226 -0.311,0.65 -0.222,0.418 -0.475,1.062 -0.758,1.903 -0.109,0.429 -0.231,0.904 -0.363,1.422 -0.073,0.528 -0.205,1.098 -0.249,1.717 -0.139,1.235 -0.106,2.651 0.122,4.175 m 32.661,2.417 c 0.278,-0.159 0.623,-0.335 1.019,-0.492 0.406,-0.156 0.849,-0.238 1.336,-0.254 0.516,-0.013 1.053,0.109 1.642,0.253 0.284,0.082 0.586,0.16 0.858,0.282 0.138,0.059 0.286,0.108 0.407,0.178 0.113,0.062 0.292,0.14 0.314,0.179 0.029,0.021 0.06,0.036 0.097,0.048 0.038,0.013 0.1,0.124 0.15,0.182 l 0.028,0.038 0.004,0.02 0.038,0.151 c 0.023,0.247 0.029,0.54 -0.01,0.864 -0.07,0.641 -0.247,1.336 -0.44,2.03 -0.189,0.716 -0.378,1.432 -0.565,2.137 -0.188,0.693 -0.324,1.635 -0.171,2.344 0.022,0.187 0.043,0.374 0.064,0.558 0.031,0.184 0.106,0.366 0.159,0.545 0.108,0.359 0.229,0.702 0.438,1.005 0.092,0.154 0.183,0.306 0.272,0.455 0.104,0.137 0.226,0.257 0.34,0.377 0.222,0.25 0.453,0.462 0.702,0.624 0.464,0.379 0.945,0.59 1.349,0.815 0.414,0.195 0.78,0.353 1.08,0.479 0.604,0.247 0.955,0.376 0.955,0.376 0,0 -0.289,-0.237 -0.807,-0.633 -0.257,-0.196 -0.568,-0.434 -0.926,-0.706 -0.332,-0.292 -0.738,-0.589 -1.083,-0.973 -0.196,-0.175 -0.355,-0.385 -0.496,-0.612 -0.071,-0.113 -0.16,-0.215 -0.229,-0.332 -0.054,-0.124 -0.108,-0.249 -0.163,-0.377 -0.135,-0.239 -0.193,-0.522 -0.241,-0.813 -0.024,-0.145 -0.069,-0.283 -0.085,-0.434 l -0.016,-0.468 c -0.085,-0.674 0.078,-1.161 0.26,-1.869 0.201,-0.696 0.406,-1.403 0.611,-2.11 0.186,-0.732 0.363,-1.478 0.433,-2.284 0.042,-0.399 0.033,-0.832 -0.065,-1.289 -0.03,-0.116 -0.078,-0.239 -0.12,-0.356 l -0.033,-0.088 -0.008,-0.022 -0.004,-0.011 c 0.016,0.025 -0.155,-0.259 -0.085,-0.142 l -0.022,-0.025 -0.086,-0.1 c -0.068,-0.071 -0.091,-0.123 -0.196,-0.21 -0.107,-0.087 -0.218,-0.17 -0.333,-0.248 -0.827,-0.49 -1.476,-0.563 -2.16,-0.683 -0.654,-0.095 -1.324,-0.129 -1.912,-0.014 -0.613,0.105 -1.151,0.34 -1.542,0.602 -0.403,0.258 -0.702,0.536 -0.939,0.766 -0.236,0.231 -0.403,0.427 -0.517,0.561 -0.115,0.132 -0.176,0.203 -0.176,0.203 0,0 0.316,-0.206 0.874,-0.527 m 11.975,17.197 c 0.33,-0.937 0.651,-1.879 0.919,-2.846 0.134,-0.484 0.263,-0.972 0.364,-1.474 0.107,-0.498 0.179,-1.016 0.205,-1.554 v -0.015 l -0.003,-0.037 c -0.074,-0.821 -0.412,-1.49 -0.712,-2.108 -0.306,-0.611 -0.618,-1.196 -0.777,-1.739 -0.15,-0.462 -0.108,-1.189 -0.11,-1.811 l 0.065,-2.024 c 0.011,-0.689 0.012,-1.381 -0.083,-2.123 -0.05,-0.394 -0.086,-0.654 -0.151,-1.027 -0.069,-0.371 -0.157,-0.728 -0.256,-1.075 -0.402,-1.417 -1.22,-2.663 -2.027,-3.759 l -1.218,-1.614 c -0.191,-0.26 -0.417,-0.545 -0.568,-0.788 l -0.554,-0.848 c -0.384,-0.565 -0.707,-1.127 -1.049,-1.693 -0.351,-0.556 -0.651,-1.16 -0.974,-1.743 -0.335,-0.579 -0.621,-1.187 -0.935,-1.78 -0.289,-0.546 -0.509,-1.225 -0.823,-1.836 -0.304,-0.619 -0.658,-1.245 -1.191,-1.73 -0.52,-0.511 -1.32,-0.68 -1.963,-0.463 0.686,-0.091 1.328,0.203 1.729,0.694 0.413,0.488 0.665,1.102 0.873,1.725 0.22,0.629 0.33,1.27 0.614,1.948 0.259,0.629 0.488,1.271 0.772,1.891 0.29,0.619 0.549,1.247 0.877,1.859 0.319,0.611 0.617,1.25 0.976,1.813 l 0.519,0.869 c 0.196,0.337 0.38,0.59 0.574,0.883 0.382,0.569 0.778,1.122 1.165,1.66 0.781,1.08 1.412,2.162 1.782,3.346 0.09,0.3 0.168,0.598 0.228,0.89 0.057,0.291 0.123,0.698 0.158,0.974 0.089,0.596 0.091,1.258 0.1,1.919 l 0.005,2.025 c 0.011,0.346 0.007,0.73 0.039,1.055 0.01,0.295 0.071,0.803 0.203,1.151 0.252,0.747 0.648,1.327 0.975,1.904 0.327,0.562 0.622,1.116 0.704,1.643 0.006,0.895 -0.153,1.851 -0.35,2.79 -0.207,0.956 -0.445,1.914 -0.682,2.874 -0.474,1.921 -1.005,3.841 -1.329,5.801 0.589,-1.895 1.25,-3.755 1.909,-5.627 m 37.247,11.485 c 0.358,-0.086 0.724,-0.184 1.082,-0.288 0.361,-0.1 0.718,-0.259 1.082,-0.389 0.348,-0.134 0.67,-0.285 1.018,-0.445 l 0.538,-0.282 c 0.182,-0.128 0.363,-0.239 0.539,-0.4 0.366,-0.327 0.664,-0.938 0.623,-1.472 0.001,-0.265 -0.063,-0.467 -0.099,-0.704 -0.056,-0.205 -0.123,-0.394 -0.193,-0.59 l -0.026,-0.072 -0.012,-0.037 -0.048,-0.098 -0.065,-0.121 -0.129,-0.243 -0.258,-0.486 -0.516,-0.972 -1.078,-1.918 c -0.731,-1.273 -1.493,-2.529 -2.287,-3.767 l -0.031,-0.05 -0.738,-0.877 c -0.233,-0.287 -0.436,-0.573 -0.607,-0.875 -0.052,-0.157 -0.146,-0.311 -0.174,-0.48 -0.012,-0.169 -0.096,-0.343 -0.068,-0.523 0.014,-0.178 -0.008,-0.369 0.037,-0.552 l 0.112,-0.566 -0.291,0.51 c -0.112,0.169 -0.135,0.374 -0.207,0.567 -0.08,0.194 -0.058,0.409 -0.081,0.621 -0.01,0.214 0.051,0.421 0.08,0.638 0.112,0.411 0.29,0.792 0.488,1.139 0.2,0.344 0.39,0.68 0.589,1 l -0.032,-0.051 c 0.615,1.336 1.261,2.655 1.938,3.956 l 1.035,1.942 0.541,0.959 0.27,0.479 0.135,0.24 0.062,0.111 0.021,0.057 0.177,0.446 c 0.022,0.123 0.085,0.276 0.088,0.376 0.023,0.212 -0.017,0.307 -0.163,0.503 -0.088,0.091 -0.214,0.186 -0.316,0.289 l -0.406,0.283 c -0.299,0.187 -0.621,0.387 -0.939,0.562 -0.304,0.17 -0.591,0.369 -0.919,0.524 l -0.977,0.487 c -0.678,0.312 -1.325,0.668 -1.957,1.059 z m 6.656,17.809 c 0.017,0.175 0.066,0.352 0.135,0.519 0.043,0.176 0.174,0.296 0.26,0.444 -0.05,-0.162 -0.154,-0.315 -0.152,-0.485 -0.026,-0.162 -0.034,-0.32 -0.013,-0.489 0.012,-0.327 0.089,-0.653 0.182,-0.97 0.187,-0.635 0.445,-1.253 0.736,-1.856 0.265,-0.563 0.558,-1.109 0.86,-1.653 l 0.075,0.569 0.191,0.908 0.263,0.891 0.347,0.869 c 0.133,0.285 0.284,0.564 0.426,0.845 0.165,0.273 0.346,0.54 0.521,0.809 l 0.963,1.483 0.352,-1.748 c 0.079,-0.391 0.168,-0.782 0.235,-1.175 l 0.12,-1.169 c 0.047,-0.771 0.076,-1.532 0.092,-2.281 0.003,-0.602 0.029,-1.19 0.059,-1.777 0.158,0.388 0.309,0.781 0.488,1.155 0.571,1.179 1.196,2.3 1.74,3.483 -0.129,-0.637 -0.291,-1.273 -0.484,-1.895 l -0.587,-1.852 c -0.193,-0.613 -0.37,-1.222 -0.517,-1.833 l -0.181,-0.915 -0.106,-0.909 -0.336,-2.875 -0.787,2.773 -0.326,1.145 -0.198,1.16 c -0.09,0.771 -0.156,1.534 -0.2,2.289 -0.029,0.75 -0.071,1.488 -0.127,2.214 l -0.004,0.032 c -0.145,-0.358 -0.28,-0.721 -0.404,-1.092 l -0.212,-0.798 -0.151,-0.811 c -0.071,-0.545 -0.112,-1.087 -0.116,-1.631 l -0.019,-2.66 -1.1,2.356 c -0.569,1.219 -1.147,2.498 -1.573,3.82 -0.199,0.668 -0.381,1.348 -0.455,2.05 -0.034,0.35 -0.051,0.708 0.003,1.06 m 16.661,-51.06 0.058,0.582 c 0.026,0.396 0.153,0.749 0.254,1.111 0.094,0.369 0.248,0.689 0.385,1.027 0.139,0.338 0.311,0.636 0.465,0.955 l 0.959,1.817 c 0.154,0.299 0.264,0.6 0.42,0.911 l 0.338,0.996 c 0.015,-0.351 0.047,-0.701 0.033,-1.05 -0.041,-0.35 -0.088,-0.722 -0.16,-1.074 -0.16,-0.694 -0.365,-1.373 -0.584,-2.022 -0.1,-0.323 -0.227,-0.649 -0.303,-0.967 -0.078,-0.317 -0.209,-0.63 -0.248,-0.94 -0.059,-0.309 -0.137,-0.619 -0.129,-0.917 l -0.035,-0.449 c -0.012,-0.071 0.018,-0.316 0.023,-0.465 0.014,-0.376 0.094,-0.587 0.147,-0.899 0.072,-0.303 0.142,-0.609 0.254,-0.91 0.09,-0.304 0.23,-0.602 0.349,-0.904 0.133,-0.301 0.254,-0.607 0.405,-0.908 l 0.896,-1.837 c 0.149,-0.294 0.266,-0.483 0.338,-0.512 0.029,-0.049 0.168,-0.006 0.281,-0.001 l 0.414,0.158 c 0.231,0.182 0.44,0.379 0.635,0.602 0.08,0.127 0.17,0.258 0.254,0.396 l 0.164,0.464 0.024,-0.516 c -0.024,-0.171 -0.081,-0.34 -0.125,-0.517 -0.127,-0.334 -0.319,-0.641 -0.534,-0.923 l -0.009,-0.011 -0.039,-0.029 c -0.157,-0.113 -0.307,-0.237 -0.481,-0.34 -0.219,-0.077 -0.406,-0.201 -0.726,-0.158 -0.153,-0.004 -0.282,0.051 -0.409,0.123 -0.144,0.067 -0.238,0.147 -0.314,0.227 -0.194,0.17 -0.279,0.323 -0.402,0.483 -0.385,0.567 -0.805,1.141 -1.153,1.758 -0.371,0.606 -0.701,1.256 -0.951,1.954 -0.137,0.343 -0.236,0.707 -0.334,1.072 -0.064,0.364 -0.152,0.831 -0.15,1.146 -0.002,0.195 -0.024,0.295 -0.01,0.567 m 7.424,-15.068 c 0.244,0.444 0.605,1.068 1.043,1.8 0.429,0.737 0.937,1.584 1.431,2.498 0.252,0.454 0.467,0.941 0.705,1.42 l 0.315,0.737 0.256,0.752 c 0.154,0.501 0.275,1.005 0.322,1.5 -0.004,0.238 0.053,0.507 0.029,0.715 -0.027,0.226 0.018,0.407 -0.068,0.69 l -0.09,0.389 -0.021,0.095 c 0,-0.001 -0.002,0.007 -0.004,0.016 l -0.01,0.026 -0.067,0.161 c -0.085,0.217 -0.171,0.43 -0.253,0.637 -0.163,0.419 -0.432,0.81 -0.612,1.185 -0.209,0.387 -0.398,0.742 -0.568,1.056 -0.18,0.309 -0.272,0.602 -0.361,0.838 -0.172,0.476 -0.258,0.755 -0.258,0.755 0,0 0.195,-0.218 0.517,-0.611 0.159,-0.196 0.348,-0.443 0.592,-0.688 0.24,-0.257 0.498,-0.519 0.777,-0.855 0.276,-0.35 0.624,-0.67 0.887,-1.137 0.137,-0.232 0.276,-0.47 0.418,-0.714 l 0.108,-0.187 0.027,-0.047 0.031,-0.093 0.031,-0.093 0.125,-0.379 c 0.096,-0.224 0.131,-0.599 0.186,-0.916 0.061,-0.338 0.025,-0.629 0.027,-0.953 -0.041,-0.627 -0.168,-1.241 -0.334,-1.836 -0.199,-0.583 -0.437,-1.142 -0.697,-1.672 -0.264,-0.528 -0.578,-1.013 -0.879,-1.475 -0.619,-0.916 -1.279,-1.696 -1.873,-2.331 -1.187,-1.269 -2.103,-1.991 -2.103,-1.991 0,0 0.128,0.263 0.371,0.708 M 103.068,72.04 c -2.722,-1.702 -5.783,-2.722 -8.675,-4.423 -2.721,-1.701 -5.444,-3.913 -8.336,-5.444 -1.02,1.361 -0.85,5.103 -0.34,6.635 0.512,2.041 2.211,4.082 3.402,5.613 2.553,3.402 4.934,6.294 5.783,10.717 0.852,4.252 0.512,7.824 -2.381,11.227 -1.701,2.211 -7.824,7.144 -10.716,3.742 -0.571,-0.628 -0.735,-1.334 -0.68,-2.071 -1.156,0.408 -2.172,0.156 -2.723,-1.331 -0.679,-1.701 0.682,-4.253 0.852,-5.954 0.17,-1.701 0,-3.912 -0.682,-5.443 C 76.871,81.396 71.939,79.014 68.537,76.802 64.113,73.741 61.053,70.168 57.82,66.086 54.615,62.079 50.27,58.494 46.404,54.996 c 0.028,-0.021 0.051,-0.037 0.078,-0.059 0.293,-0.225 0.61,-0.468 0.944,-0.726 0.338,-0.253 0.638,-0.567 0.978,-0.866 0.332,-0.303 0.682,-0.612 0.994,-0.967 0.321,-0.345 0.645,-0.695 0.971,-1.046 0.301,-0.371 0.6,-0.742 0.895,-1.106 0.306,-0.356 0.552,-0.748 0.814,-1.107 0.25,-0.369 0.516,-0.705 0.719,-1.059 0.215,-0.346 0.416,-0.673 0.601,-0.975 0.381,-0.598 0.631,-1.136 0.836,-1.492 0.196,-0.363 0.309,-0.57 0.309,-0.57 0,0 -0.133,0.195 -0.363,0.537 -0.241,0.335 -0.541,0.84 -0.977,1.395 -0.213,0.279 -0.443,0.582 -0.687,0.902 -0.235,0.328 -0.532,0.634 -0.813,0.969 -0.291,0.327 -0.568,0.685 -0.902,1.002 -0.321,0.325 -0.649,0.656 -0.975,0.986 -0.347,0.307 -0.695,0.613 -1.037,0.915 -0.332,0.311 -0.697,0.572 -1.043,0.83 -0.35,0.25 -0.67,0.524 -1.004,0.725 -0.328,0.205 -0.638,0.398 -0.926,0.577 -0.546,0.37 -1.13,0.601 -1.478,0.8 -0.367,0.187 -0.578,0.293 -0.578,0.293 l 0.049,0.086 c -1.182,-0.501 -3.598,-2.61 -4.51,-3.217 -1.719,-1.003 -3.32,-1.999 -5.006,-2.896 0.186,-0.148 0.377,-0.292 0.539,-0.452 0.496,-0.49 0.914,-1.02 1.295,-1.563 0.668,-0.966 1.215,-1.98 1.719,-3.008 1.437,0.226 2.867,0.531 4.273,0.93 0.77,0.225 1.533,0.472 2.289,0.743 0.752,0.279 1.492,0.586 2.221,0.921 l 0.408,0.188 0.108,-0.402 C 47.305,45.675 47.102,45.197 46.926,44.775 46.73,44.352 46.49,43.971 46.234,43.607 45.715,42.884 45.137,42.222 44.5,41.611 44.201,41.31 43.852,41.017 43.488,40.75 43.131,40.494 42.766,40.255 42.396,40.024 l -1.091,-0.691 c -0.317,-0.21 -0.617,-0.439 -0.912,-0.675 l 0.42,-0.414 0.474,-0.587 c 0.289,-0.411 0.545,-0.84 0.768,-1.286 0.443,-0.893 0.761,-1.835 1.054,-2.781 -0.334,0.931 -0.697,1.857 -1.173,2.719 -0.241,0.429 -0.512,0.838 -0.809,1.226 l -0.484,0.547 -0.541,0.486 -0.116,0.103 0.112,0.101 c 0.326,0.295 0.666,0.572 1.019,0.83 l 1.067,0.745 c 0.72,0.503 1.379,0.97 1.959,1.621 0.584,0.612 1.119,1.284 1.576,1.988 0.226,0.353 0.431,0.717 0.58,1.088 0.076,0.184 0.135,0.38 0.164,0.559 -0.576,-0.285 -1.152,-0.567 -1.744,-0.818 -0.762,-0.313 -1.535,-0.602 -2.315,-0.868 -1.564,-0.522 -3.16,-0.944 -4.787,-1.255 l -0.414,-0.079 -0.211,0.398 c -0.584,1.102 -1.219,2.174 -1.951,3.143 -0.367,0.48 -0.76,0.935 -1.186,1.319 -0.21,0.193 -0.429,0.364 -0.654,0.506 -0.117,0.088 -0.199,0.105 -0.295,0.168 -0.023,0.012 -0.058,0.025 -0.088,0.037 C 27.922,45.668 23.594,42.196 18.967,39.323 14.133,35.99 8.799,33.99 4.133,30.49 2.523,29.309 1.051,29.505 -0.506,29.531 c -0.228,-0.018 -0.463,-0.04 -0.711,-0.084 -0.547,-0.092 -1.14,-0.34 -1.676,-0.74 -0.543,-0.399 -1.011,-0.979 -1.56,-1.613 -0.549,-0.62 -1.246,-1.306 -2.195,-1.705 -0.229,-0.116 -0.479,-0.175 -0.727,-0.252 -0.252,-0.075 -0.457,-0.121 -0.758,-0.166 -0.537,-0.075 -1.078,-0.054 -1.607,-0.002 -1.063,0.107 -2.065,0.369 -3.024,0.228 -0.922,-0.11 -1.799,-0.631 -2.728,-1.31 -0.475,-0.334 -0.955,-0.672 -1.442,-1.014 -0.253,-0.19 -0.527,-0.376 -0.804,-0.562 -0.002,-0.011 -0.006,-0.029 -0.006,-0.029 l -0.029,0.006 c -0.229,-0.152 -0.459,-0.303 -0.692,-0.455 -1.055,-0.66 -2.15,-1.278 -3.258,-1.9 -0.547,-0.312 -1.097,-0.627 -1.654,-0.945 -0.582,-0.321 -1.025,-0.645 -1.693,-1.006 -0.576,-0.305 -1.157,-0.612 -1.741,-0.921 -0.615,-0.283 -1.232,-0.567 -1.853,-0.853 -2.486,-1.105 -5.082,-1.913 -7.6,-2.87 -2.529,-0.951 -5.058,-1.903 -7.549,-2.839 -2.485,-0.948 -4.93,-1.888 -7.26,-2.862 -0.583,-0.244 -1.161,-0.485 -1.733,-0.725 -0.558,-0.258 -1.111,-0.515 -1.658,-0.768 -1.139,-0.528 -2.213,-0.984 -3.317,-1.414 -2.183,-0.868 -4.228,-1.646 -6.139,-2.345 -3.818,-1.389 -7.01,-2.514 -9.248,-3.292 -2.248,-0.749 -3.533,-1.177 -3.533,-1.177 0,0 1.255,0.509 3.45,1.4 2.196,0.884 5.33,2.161 9.072,3.729 1.869,0.781 3.919,1.607 6.031,2.526 1.052,0.441 2.16,0.96 3.227,1.481 0.555,0.272 1.116,0.547 1.683,0.823 0.572,0.254 1.15,0.51 1.733,0.768 4.663,2.049 9.704,4.033 14.771,5.959 2.537,0.976 5.086,1.875 7.468,2.94 0.588,0.276 1.172,0.551 1.754,0.824 0.582,0.314 1.158,0.626 1.733,0.937 0.486,0.253 1.111,0.673 1.658,0.969 0.566,0.316 1.129,0.631 1.685,0.943 1.114,0.608 2.192,1.214 3.219,1.829 0.047,0.03 0.094,0.059 0.143,0.088 0.334,1.327 1.232,4.879 2.135,8.441 1.078,4.508 2.156,9.016 2.156,9.016 0,0 -0.711,-4.583 -1.422,-9.165 -0.461,-2.737 -0.92,-5.466 -1.215,-7.221 0.393,0.261 0.787,0.522 1.172,0.777 0.953,0.65 2.09,1.354 3.383,1.423 1.236,0.097 2.312,-0.263 3.258,-0.399 0.474,-0.073 0.933,-0.112 1.363,-0.075 0.18,0.014 0.449,0.056 0.654,0.11 0.207,0.054 0.42,0.087 0.608,0.174 0.789,0.282 1.418,0.82 1.986,1.399 0.58,0.563 1.142,1.153 1.793,1.55 0.412,0.255 0.836,0.427 1.252,0.537 -1.35,8.764 -4.512,16.639 -11.801,20.603 -2.746,2.304 -6.783,3.784 -10.871,5.075 -0.088,-0.071 -0.182,-0.146 -0.266,-0.214 -0.746,-0.59 -1.363,-1.099 -1.816,-1.478 -0.277,-0.36 -0.568,-0.709 -0.889,-1.033 -0.418,-0.435 -0.871,-0.84 -1.375,-1.184 -0.254,-0.172 -0.525,-0.319 -0.816,-0.427 -0.287,-0.113 -0.621,-0.145 -0.902,-0.061 0.302,0.013 0.546,0.149 0.771,0.313 0.225,0.162 0.418,0.368 0.609,0.57 0.377,0.417 0.705,0.881 1.024,1.347 0.31,0.473 0.607,0.956 0.881,1.447 0.261,0.491 0.525,1.003 0.701,1.468 l 0.031,0.064 c 0.506,1.081 1.027,2.145 1.459,3.235 0.115,0.271 0.231,0.539 0.326,0.813 0.1,0.272 0.219,0.542 0.295,0.818 0.186,0.561 0.328,1.08 0.463,1.613 l 0.143,0.895 c -0.002,0.209 0.043,0.52 0.039,0.783 -0.026,0.278 -0.012,0.555 -0.065,0.841 -0.045,0.284 -0.066,0.573 -0.127,0.866 -0.097,0.581 -0.224,1.183 -0.302,1.794 -0.055,0.299 -0.057,0.626 -0.086,0.929 -0.016,0.306 0.019,0.611 0.027,0.917 0.164,-0.595 0.353,-1.168 0.574,-1.714 0.217,-0.56 0.461,-1.107 0.664,-1.694 0.11,-0.286 0.205,-0.589 0.287,-0.895 0.098,-0.301 0.131,-0.631 0.198,-0.949 0.041,-0.337 0.06,-0.633 0.064,-1.025 l -0.072,-0.903 -0.17,-0.975 c -0.065,-0.324 -0.166,-0.612 -0.248,-0.92 -0.08,-0.307 -0.195,-0.596 -0.295,-0.892 -0.1,-0.297 -0.209,-0.589 -0.332,-0.873 -0.408,-0.95 -0.867,-1.866 -1.367,-2.754 0.615,0.697 1.332,1.447 2.039,2.257 0.804,0.936 1.605,1.964 1.943,3.086 0.174,0.572 0.244,1.1 0.18,1.714 -0.076,0.648 -0.121,1.27 -0.231,1.886 -0.201,1.226 -0.445,2.386 -0.632,3.395 -0.409,2.021 -0.442,3.415 -0.442,3.415 0,0 0.139,-0.317 0.359,-0.878 0.227,-0.559 0.555,-1.338 0.92,-2.299 0.19,-0.478 0.385,-1 0.569,-1.565 0.191,-0.561 0.383,-1.163 0.529,-1.804 0.16,-0.634 0.291,-1.321 0.373,-2.005 0.096,-0.719 0.035,-1.575 -0.197,-2.304 -0.352,-1.066 -0.955,-1.944 -1.611,-2.691 1.363,0.824 2.556,1.703 2.695,3.517 0.168,1.667 -0.832,3.833 -1.166,5.5 -0.5,1.833 -0.5,4 -1.166,5.667 -1.334,3 -6.834,4.166 -9.668,5.333 -0.545,0.227 -1.238,0.429 -1.983,0.644 3.422,2.123 6.803,7.053 7.233,9.773 0.621,3.57 -1.264,4.15 -3.5,3.72 3.775,7.518 7.486,16.824 3.5,25.03 -2.25,5 -6,9.5 -11.5,11.25 -4.5,1.5 -8.5,0.25 -13,0.75 0,1.75 0.75,3.25 0.5,4.75 -2,-1 -4,-3 -4.75,-4.75 0.5,1.5 0.5,4.25 0.5,6.25 -4.5,0.5 -4.5,-6 -5,-8.75 -0.75,1.25 -1.25,2.75 -1.75,4.25 -2.228,-1.418 -1.337,-6.611 -0.121,-9.86 -1.634,-1.842 -2.941,-4.034 -3.879,-6.64 -2,-5.25 -2,-10.5 -4.5,-15.5 -2.25,-5.25 -2,-9.75 -1.75,-15.5 0.193,-2.121 1.131,-9.442 3.499,-12.223 -0.819,-0.618 -1.632,-1.248 -2.398,-1.941 -2.214,-1.939 -4.522,-3.784 -7.106,-5.169 -1.616,-0.869 -3.356,-1.447 -5.082,-2.041 -0.936,-0.157 -1.851,-0.324 -2.735,-0.505 -1.14,-0.254 -2.361,-0.587 -3.619,-0.992 1.114,2.938 2.194,5.035 -0.892,8.121 -1.333,1.666 -4,2.333 -4.333,4.666 -0.334,2.667 2,3.334 3.333,5.334 6.333,9.333 -5.667,11.666 -9.333,18.333 -1.667,3 -1.334,7 -2.667,10 -1.333,3.667 -4.667,4.333 -8,6 -2.333,1 -5,2 -7.667,2.667 l -3.666,0.333 c -9.334,0.667 -19.334,-6.333 -24,-14 -2,-3.667 -1.667,-7 -3,-10.667 -1.667,-4.333 -5.667,-4 -8,-7.666 -2.667,-4 -0.667,-7.667 0.666,-11.667 2,-6 -1.666,-4 -4.666,-8 -3,-4.333 -0.334,-7 1.333,-11 2,-4.667 0,-6 -2,-10.333 -3.667,-7.667 5.333,-14.334 1.667,-21.334 -2,-3.666 -6.334,-5.333 -5,-10.333 1,-4 5.666,-5.667 4.666,-10.333 -1,-4.667 -4.714,-4.64 -6.743,-9.881 -1.265,-3.267 -1.521,-6.592 2.989,-10.589 0.77,-0.682 1.624,-1.281 2.276,-2.076 0.816,-0.995 1.191,-2.273 1.842,-3.383 0.65,-1.111 1.782,-2.13 3.06,-1.978 -0.096,0.686 0.032,1.401 0.358,2.013 0.466,-0.785 0.98,-1.616 1.81,-1.997 0.829,-0.383 2.045,-0.044 2.219,0.853 0.056,0.29 0.005,0.614 0.168,0.861 0.314,0.473 1.04,0.238 1.549,-0.015 2.772,-1.38 6.005,-1.816 9.044,-1.217 2.312,0.454 4.529,1.488 6.886,1.517 2.362,0.028 4.825,-0.946 7.014,-0.06 1.191,0.481 2.23,1.343 3.582,0.99 0.931,2.896 -2.603,5.75 -4.969,6.766 -0.27,0.117 -0.482,0.202 -0.653,0.224 -0.162,0.028 -0.249,0.043 -0.249,0.043 0,0 0.087,0.013 0.25,0.038 0.154,0.027 0.423,0.032 0.734,-0.019 0.629,-0.093 1.505,-0.398 2.434,-0.939 0.941,-0.526 1.956,-1.259 2.964,-2.135 l 0.377,-0.338 c 0.073,-0.07 0.103,-0.086 0.212,-0.202 l 0.173,-0.181 c 0.234,-0.242 0.469,-0.488 0.697,-0.743 0.462,-0.506 0.93,-1.02 1.399,-1.534 0.443,-0.546 0.844,-1.149 1.26,-1.711 0.412,-0.567 0.804,-1.143 1.16,-1.698 0.679,-1.125 1.29,-2.19 1.781,-3.118 0.832,-1.595 1.341,-2.781 1.469,-3.085 0.825,-1.449 1.635,-2.91 2.407,-4.406 0.846,-1.597 1.716,-3.202 2.611,-4.796 0.238,-0.371 0.864,-1.346 1.806,-2.814 0.613,-0.949 1.357,-2.101 2.211,-3.422 0.843,-1.333 1.861,-2.776 2.968,-4.352 1.117,-1.574 2.357,-3.243 3.763,-4.95 1.387,-1.654 3.1,-3.198 5.034,-4.541 1.935,-1.35 4.13,-2.452 6.447,-3.371 2.317,-0.924 4.775,-1.621 7.25,-2.266 2.463,-0.582 4.974,-0.943 7.454,-1.031 2.482,-0.083 4.923,0.179 7.232,0.703 1.219,0.196 2.134,0.669 3.126,1.261 0.965,0.589 1.868,1.263 2.724,1.945 1.715,1.37 3.238,2.801 4.631,4.133 2.788,2.668 4.983,5.034 6.505,6.7 1.531,1.658 2.376,2.634 2.376,2.634 0,0 -0.775,-1.032 -2.196,-2.791 -1.437,-1.744 -3.512,-4.221 -6.179,-7.047 -1.342,-1.404 -2.847,-2.882 -4.551,-4.34 -0.855,-0.725 -1.76,-1.446 -2.762,-2.103 -0.97,-0.648 -2.215,-1.274 -3.392,-1.507 -2.376,-0.676 -4.945,-0.991 -7.541,-0.964 -2.599,0.015 -5.224,0.394 -7.785,0.977 -2.526,0.618 -5.04,1.356 -7.435,2.338 -2.401,0.958 -4.679,2.167 -6.676,3.642 -2.018,1.449 -3.724,3.161 -5.101,4.975 -1.33,1.785 -2.527,3.53 -3.579,5.162 -1.049,1.638 -1.943,3.186 -2.697,4.562 -0.752,1.382 -1.46,2.546 -2.021,3.535 -0.406,0.732 -0.746,1.345 -1.016,1.83 -0.145,-3.606 -0.163,-7.291 -0.163,-7.291 0,-1.042 2.62,-1.073 4.503,-0.961 -5.093,-32.705 2.378,-64.783 7.287,-97.183 1,-7.667 2.333,-15.334 4,-23 0.666,-4 0.666,-8 0.666,-11.667 v -5.333 c 0.334,-2.667 1,-3.334 2,-6 1,-3.334 -1,-7 0,-10.334 0.667,-2 2,-1.666 2,-4.333 0,-1.667 -2,-3.333 -1.666,-5.667 0.333,-3.666 2.333,-6.666 2.333,-10.666 0,-3.334 -0.333,-7 -0.333,-10.667 0,-2.333 0.666,-5.333 0.333,-7.667 -0.333,-2.666 -1.667,-5 -1.667,-7.666 0,-2.667 2,-4.667 2,-7 0,-2.334 -2,-4.334 -1,-7 0.21,-0.841 0.617,-1.545 1.169,-2.148 -0.395,-0.526 -0.793,-1.037 -1.169,-1.519 -2.25,-3.25 -12.75,-9 -10.75,-14 1,-2.5 13.25,-1.25 16.25,-1.25 5.25,0 10.5,0.75 15.5,0.25 2,0 3.75,-0.5 5.75,-0.25 3.25,0.25 1.75,-0.5 2.75,2 0.75,2 2,10.75 -2,9 0,0.493 0.046,1.306 0.096,2.261 0.023,-0.003 0.049,-0.006 0.071,-0.011 7.667,14 1,30 1.333,44.667 0.667,9.666 -2,17 -3.333,26.333 -0.667,4 -0.333,8 -0.333,12 0,4 -1.334,7.667 -1.667,12 -1.137,22.971 3.156,45.787 5.999,68.765 0.615,-2.243 1.165,-4.504 1.668,-6.765 2.666,-9.667 6.333,-18 10.666,-27 3.668,-8.333 3,-17.333 6.334,-25.667 1.666,-4 4,-6 4.334,-10.333 0.332,-3.667 0.332,-7.333 0.666,-11 0.666,-7.333 4,-13.333 4,-21 0,-8 4,-13.667 4,-21.333 0,-4 1.334,-6.667 2.334,-10.334 1,-3.666 3.666,-6.666 4.666,-10.333 0.666,-3.333 -2.334,-6.333 -1.334,-9.667 0.695,-1.855 3.004,-4.031 5.017,-5.859 0.405,-3.734 0.893,-7.308 1.483,-8.724 -3.75,1.25 -2.25,-6.5 -1.5,-8.25 l 36.75,1 c 4,0.5 -3,10.75 -4.5,12 -2.715,2.143 -6.242,3.718 -9.004,6.025 0.531,2.204 -0.246,5.923 -0.246,8.475 0,4.333 -0.666,6.333 -6,6 8,5.667 3.334,12 1,19.667 -2,7.333 -2.666,14.666 -3,22.333 -0.332,9 -1,18.333 -2.332,27 -0.668,4.333 -3.334,6.667 -4.334,10 -0.334,1.667 0,3.333 0,5 -0.666,2 -2,3 -2.666,4.667 -0.668,2 0,3 0,5 -0.334,2 -1,3 -1.334,5 -0.666,3.333 1,7 0.334,10.666 -0.668,3.667 -2,6.667 -2,10.667 0,4 0.666,6.667 1,10.667 0.332,8.666 -0.668,22.666 -2.334,31 -1.666,8.666 -2.666,14 -4.334,22.666 -0.18,1.082 -0.385,2.874 -0.647,4.948 0.969,0.027 1.94,0.127 2.909,0.405 -3.223,12.307 -3.87,25.902 -3.979,38.973 3.668,-10.166 9.852,-21.087 18.691,-15.882 -0.252,-8.059 0.831,-16.083 3.526,-24.027 -4,-1.25 2.5,-16.019 3.5,-19.019 0,0 0.58,0.147 1.525,0.386 1.03,-4.942 2.182,-9.671 -1.775,-14.617 -1.75,-2.25 -3.25,-4.25 -3.25,-7.5 0,-1.926 0.531,-2.709 1.533,-3.237 -4.08,-0.294 -1,-5.711 -0.533,-8.513 0.75,-4.5 0.75,-8.75 0.5,-13.25 0,-1 -0.5,-5.5 0,-6.25 0.75,-0.5 5,0 6,-0.25 1,3 -0.5,7.25 -0.5,10.25 0,3.25 -0.25,6.5 0,9.75 6.75,-1.75 7.75,-6.25 10.25,-12.5 2.5,-6.25 7.75,-8.5 14.25,-8.5 3,0 13.25,-0.5 13.5,4 0.154,1.702 -1.319,2.254 -2.938,2.487 0.709,0.587 1.022,1.401 0.688,2.513 -1,0.25 -2.5,-0.25 -3.5,0.25 -1.25,0.5 -1.5,1.5 -2.75,2.75 -1.75,2.5 -5,3.5 -6.5,6.25 -2.75,4.5 -2,11 -3.25,16.25 -1.25,5.75 -4.75,10 -5,16.25 -0.127,2.801 0.004,5.474 0.099,8.148 2.829,0.943 5.395,2.203 5.901,3.852 0,0 -1.5,6.5 -1.75,8.5 -0.451,2.254 -0.901,4.517 -1.352,6.954 -0.054,-0.039 -0.097,-0.076 -0.16,-0.116 -0.277,-0.201 -0.543,-0.343 -0.81,-0.498 -0.541,-0.288 -1.09,-0.54 -1.649,-0.75 -1.113,-0.426 -2.246,-0.748 -3.387,-1.005 -1.14,-0.256 -2.287,-0.46 -3.443,-0.604 -0.268,-0.041 -0.633,-0.065 -0.92,-0.064 l -0.842,-0.009 c -0.523,-0.019 -0.97,-0.114 -1.256,-0.377 -0.119,-0.147 -0.228,-0.403 -0.302,-0.673 -0.078,-0.284 -0.133,-0.589 -0.172,-0.898 -0.08,-0.622 -0.108,-1.261 -0.121,-1.948 -0.065,-0.636 -0.104,-1.278 -0.11,-1.925 0,-0.649 0.014,-1.301 0.039,-1.955 l 0.069,-1.976 c 0.012,-0.662 0,-1.327 -0.037,-1.993 l -0.022,-0.355 -0.306,0.153 c -0.477,0.238 -0.803,0.61 -1.084,0.988 -0.28,0.382 -0.512,0.786 -0.723,1.198 -0.418,0.827 -0.75,1.687 -1.037,2.558 -0.287,0.872 -0.522,1.759 -0.709,2.656 -0.178,0.895 -0.336,1.807 -0.291,2.722 -0.006,-0.915 0.189,-1.814 0.404,-2.697 0.225,-0.882 0.496,-1.753 0.817,-2.603 0.32,-0.85 0.683,-1.685 1.125,-2.47 0.222,-0.391 0.462,-0.771 0.738,-1.115 0.183,-0.23 0.388,-0.441 0.611,-0.605 0,0.512 -0.006,1.026 -0.037,1.541 l -0.15,1.96 c -0.055,0.657 -0.098,1.317 -0.125,1.983 -0.022,0.667 -0.012,1.337 0.029,2.012 l -0.002,-0.038 c -0.016,0.657 -0.016,1.326 0.039,2.003 0.031,0.339 0.076,0.682 0.156,1.032 0.086,0.348 0.186,0.712 0.473,1.093 l 0.025,0.025 c 0.26,0.271 0.6,0.459 0.928,0.565 0.332,0.11 0.658,0.153 0.965,0.179 l 0.875,0.047 c 0.287,0.014 0.494,0.036 0.793,0.09 1.113,0.18 2.221,0.421 3.307,0.707 1.087,0.287 2.154,0.637 3.167,1.069 0.174,0.073 0.331,0.169 0.5,0.249 0.206,10.963 -0.275,21.927 -0.763,32.89 -0.5,11 1.25,24.75 -13,27.25 C 5.568,4.686 2.094,4.286 -0.986,2.429 -0.99,2.673 -0.992,2.927 -0.994,3.176 c 2.683,1.497 5.539,2.736 8.627,3.647 4.834,1.5 9.334,1.667 14,4 4.5,2.333 9,3.333 13.334,6 4.5,3 6.51,5.334 10.844,8.5 0.212,0.149 1.419,-1.165 1.656,-1 3.459,2.42 8.265,7.844 12.166,8 -0.313,3.137 -1.088,5.946 -2.403,8.632 0.551,1.132 1.135,2.273 2.122,3.358 1.701,1.7 3.572,2.891 5.783,4.082 3.912,2.211 6.804,0.34 11.056,0.51 2.817,0.113 4.731,1.721 5.608,3.978 1.65,-0.412 3.849,0.75 5.619,1.636 3.572,1.701 6.805,3.742 10.377,5.443 2.893,1.531 6.293,1.701 9.185,3.232 -1.021,2.722 -2.21,6.634 -3.912,8.846"
             style="fill:#000000;fill-opacity:1;fill-rule:nonzero;stroke:none"
             id="path50" />
        </g>
      </g>
    </g>
  </g>
</svg>
