<svg width="846" height="463" viewBox="0 0 846 463" fill="none" xmlns="http://www.w3.org/2000/svg">
<path d="M633.466 354.867C632.565 364.281 611.198 371.817 584.964 371.817C558.677 371.817 537.282 364.255 536.454 354.812C498.636 361.363 472.508 377.036 472.508 444.977H697.109C697.109 377.112 671.117 361.449 633.466 354.867Z" fill="#00628A"/>
<path d="M584.964 371.817C611.198 371.817 632.565 364.281 633.466 354.867C626.412 353.632 615.068 352.72 607.292 352.101V343.052C621.026 341.763 649.69 304.313 649.537 268.337C649.502 260.464 648.393 252.888 646.289 245.797C637.773 217.119 613.466 196.421 584.805 196.421C552.442 196.421 525.632 222.805 520.838 257.272C520.341 260.877 519.684 264.596 520.078 268.337C524.394 309.401 547.976 338.991 561.36 342.428V352.179C554.042 352.787 543.128 353.659 536.454 354.812C537.282 364.255 558.677 371.817 584.964 371.817Z" fill="#EFE2D3"/>
<path d="M515.44 267.047C515.44 224.333 546.602 189.708 585.044 189.708C623.487 189.708 654.654 224.333 654.654 267.047" stroke="#1D1D1B" stroke-width="3.10667" stroke-miterlimit="10"/>
<path d="M518.93 284.455C518.93 286.485 517.284 288.133 515.252 288.133H513.531C511.5 288.133 509.854 286.485 509.854 284.455V254.974C509.854 252.942 511.5 251.295 513.531 251.295H515.252C517.284 251.295 518.93 252.942 518.93 254.974V284.455Z" fill="#1D1D1B"/>
<path d="M659.417 284.455C659.417 286.485 657.771 288.133 655.739 288.133H654.018C651.987 288.133 650.341 286.485 650.341 284.455V254.974C650.341 252.942 651.987 251.295 654.018 251.295H655.739C657.771 251.295 659.417 252.942 659.417 254.974V284.455Z" fill="#1D1D1B"/>
<path d="M653.133 280.325C653.133 298.08 626.54 312.448 593.674 312.448" stroke="#1D1D1B" stroke-width="1.55333" stroke-miterlimit="10"/>
<path d="M606.143 314.867C606.143 316.956 604.449 318.652 602.359 318.652H581.349C579.258 318.652 577.562 316.956 577.562 314.867V312.544C577.562 310.453 579.258 308.759 581.349 308.759H602.359C604.449 308.759 606.143 310.453 606.143 312.544V314.867Z" fill="#1D1D1B"/>
<path d="M567.318 270.257C567.318 274.759 564.2 278.405 560.359 278.405C556.515 278.405 553.399 274.759 553.399 270.257C553.399 265.756 556.515 262.104 560.359 262.104C564.2 262.104 567.318 265.756 567.318 270.257Z" fill="#1D1D1B"/>
<path d="M618.609 270.257C618.609 274.759 615.495 278.405 611.648 278.405C607.804 278.405 604.692 274.759 604.692 270.257C604.692 265.756 607.804 262.104 611.648 262.104C615.495 262.104 618.609 265.756 618.609 270.257Z" fill="#1D1D1B"/>
<path d="M556.221 221.524C558.576 228.781 584.14 241.394 602.307 245.801C607.219 246.994 590.32 235.733 590.32 235.733C590.32 235.733 631.364 245.724 646.289 245.798C637.773 217.118 613.467 196.421 584.804 196.421C552.443 196.421 525.632 222.805 520.839 257.272C539.881 256.502 555.191 240.982 556.221 221.524Z" fill="#935F36"/>
<path d="M560.43 264.084C560.43 264.084 560.563 264.102 560.796 264.132C560.908 264.154 561.05 264.176 561.208 264.206C561.367 264.242 561.552 264.236 561.736 264.338C562.091 264.526 562.62 264.636 563.008 264.986C563.443 265.276 563.839 265.667 564.2 266.103C564.396 266.306 564.487 266.587 564.627 266.822C564.766 267.063 564.888 267.304 564.946 267.567C565.135 268.067 565.138 268.566 565.123 268.983C565.164 269.398 564.96 269.728 564.924 269.954C564.854 270.179 564.802 270.299 564.802 270.299C564.802 270.299 564.791 270.166 564.776 269.928C564.75 269.698 564.794 269.379 564.684 269.007C564.646 268.824 564.607 268.624 564.563 268.418C564.492 268.215 564.38 268.015 564.31 267.798C564.252 267.576 564.13 267.374 563.992 267.17C563.856 266.975 563.768 266.738 563.583 266.571C563.294 266.172 562.971 265.803 562.594 265.518C562.26 265.175 561.886 264.984 561.583 264.744C561.435 264.623 561.25 264.563 561.112 264.476C560.974 264.398 560.846 264.331 560.744 264.275C560.544 264.154 560.43 264.084 560.43 264.084Z" fill="white"/>
<path d="M611.76 264.084C611.76 264.084 611.894 264.102 612.124 264.132C612.239 264.154 612.38 264.176 612.544 264.206C612.703 264.242 612.886 264.236 613.07 264.338C613.424 264.526 613.951 264.636 614.339 264.986C614.774 265.276 615.172 265.667 615.534 266.103C615.73 266.306 615.823 266.587 615.963 266.823C616.099 267.063 616.222 267.307 616.276 267.567C616.463 268.067 616.468 268.566 616.454 268.983C616.498 269.398 616.294 269.728 616.255 269.954C616.184 270.179 616.132 270.299 616.132 270.299C616.132 270.299 616.124 270.166 616.107 269.928C616.083 269.698 616.127 269.379 616.018 269.007C615.982 268.824 615.94 268.627 615.896 268.418C615.823 268.215 615.711 268.015 615.646 267.798C615.586 267.576 615.46 267.374 615.328 267.17C615.187 266.975 615.102 266.738 614.914 266.571C614.624 266.172 614.302 265.803 613.927 265.518C613.596 265.175 613.219 264.984 612.911 264.744C612.766 264.623 612.58 264.563 612.448 264.476C612.302 264.398 612.182 264.331 612.078 264.275C611.875 264.154 611.76 264.084 611.76 264.084Z" fill="white"/>
<path d="M842.943 214.464C842.943 247.715 804.924 274.669 758.024 274.669C740.131 274.669 723.528 270.744 709.841 264.047C705.065 261.709 675.304 276.797 671.307 273.832C667.273 270.841 689.008 249.793 685.907 246.263C677.792 237.033 673.104 226.136 673.104 214.464C673.104 181.215 711.125 154.26 758.024 154.26C804.924 154.26 842.943 181.215 842.943 214.464Z" stroke="#1D1D1B" stroke-width="5.672" stroke-miterlimit="10"/>
<path d="M739.01 228.91C739.01 232.633 735.994 235.65 732.273 235.65C728.549 235.65 725.534 232.633 725.534 228.91C725.534 225.189 728.549 222.173 732.273 222.173C735.994 222.173 739.01 225.189 739.01 228.91Z" fill="#1D1D1B"/>
<path d="M759.68 228.91C759.68 232.633 756.661 235.65 752.94 235.65C749.218 235.65 746.201 232.633 746.201 228.91C746.201 225.189 749.218 222.173 752.94 222.173C756.661 222.173 759.68 225.189 759.68 228.91Z" fill="#1D1D1B"/>
<path d="M780.346 228.91C780.346 232.633 777.328 235.65 773.606 235.65C769.885 235.65 766.868 232.633 766.868 228.91C766.868 225.189 769.885 222.173 773.606 222.173C777.328 222.173 780.346 225.189 780.346 228.91Z" fill="#1D1D1B"/>
<path d="M161.199 334.86C160.297 344.275 138.932 351.811 112.696 351.811C86.4092 351.811 65.0132 344.248 64.1892 334.806C26.3692 341.356 0.238525 357.03 0.238525 424.971H224.84C224.84 357.106 198.852 341.443 161.199 334.86Z" fill="#00628A"/>
<path d="M112.696 351.811C138.932 351.811 160.297 344.275 161.199 334.86C154.145 333.625 142.803 332.713 135.027 332.095V323.045C148.759 321.756 177.424 284.307 177.269 248.331C177.236 240.457 176.128 232.881 174.023 225.791C165.508 197.116 141.2 176.415 112.539 176.415C80.1773 176.415 53.364 202.801 48.5733 237.265C48.072 240.871 47.4173 244.589 47.8106 248.331C52.1293 289.395 75.708 318.984 89.0933 322.421V332.172C81.7746 332.78 70.86 333.652 64.1893 334.805C65.0133 344.248 86.4093 351.811 112.696 351.811Z" fill="#EFE2D3"/>
<path d="M43.1725 247.04C43.1725 204.328 74.3365 169.703 112.779 169.703C151.222 169.703 182.387 204.328 182.387 247.04" stroke="#1D1D1B" stroke-width="3.10667" stroke-miterlimit="10"/>
<path d="M46.6622 264.449C46.6622 266.478 45.0155 268.126 42.9848 268.126H41.2635C39.2328 268.126 37.5862 266.478 37.5862 264.449V234.967C37.5862 232.935 39.2328 231.287 41.2635 231.287H42.9848C45.0155 231.287 46.6622 232.935 46.6622 234.967V264.449Z" fill="#1D1D1B"/>
<path d="M187.15 264.449C187.15 266.478 185.503 268.126 183.472 268.126H181.751C179.72 268.126 178.074 266.478 178.074 264.449V234.967C178.074 232.935 179.72 231.287 181.751 231.287H183.472C185.503 231.287 187.15 232.935 187.15 234.967V264.449Z" fill="#1D1D1B"/>
<path d="M180.865 260.319C180.865 278.073 154.272 292.441 121.408 292.441" stroke="#1D1D1B" stroke-width="1.55333" stroke-miterlimit="10"/>
<path d="M133.878 294.86C133.878 296.95 132.183 298.646 130.092 298.646H109.083C106.992 298.646 105.298 296.95 105.298 294.86V292.538C105.298 290.447 106.992 288.752 109.083 288.752H130.092C132.183 288.752 133.878 290.447 133.878 292.538V294.86Z" fill="#1D1D1B"/>
<path d="M95.0515 250.251C95.0515 254.751 91.9342 258.399 88.0928 258.399C84.2488 258.399 81.1342 254.751 81.1342 250.251C81.1342 245.75 84.2488 242.098 88.0928 242.098C91.9342 242.098 95.0515 245.75 95.0515 250.251Z" fill="#1D1D1B"/>
<path d="M146.344 250.251C146.344 254.751 143.228 258.399 139.382 258.399C135.538 258.399 132.426 254.751 132.426 250.251C132.426 245.75 135.538 242.098 139.382 242.098C143.228 242.098 146.344 245.75 146.344 250.251Z" fill="#1D1D1B"/>
<path d="M83.953 201.52C86.3103 208.779 111.874 221.388 130.041 225.796C134.952 226.988 118.054 215.728 118.054 215.728C118.054 215.728 159.097 225.717 174.022 225.792C165.508 197.116 141.2 176.415 112.538 176.415C80.177 176.415 53.3637 202.801 48.573 237.265C67.613 236.496 82.9237 220.977 83.953 201.52Z" fill="#935F36"/>
<path d="M88.1628 244.078C88.1628 244.078 88.2962 244.095 88.5282 244.126C88.6428 244.147 88.7828 244.17 88.9428 244.199C89.1028 244.235 89.2868 244.23 89.4708 244.331C89.8268 244.519 90.3522 244.63 90.7402 244.979C91.1762 245.27 91.5735 245.66 91.9348 246.096C92.1308 246.299 92.2228 246.58 92.3628 246.815C92.4988 247.055 92.6215 247.298 92.6788 247.56C92.8668 248.06 92.8722 248.559 92.8562 248.976C92.8988 249.391 92.6948 249.722 92.6562 249.947C92.5868 250.172 92.5348 250.292 92.5348 250.292C92.5348 250.292 92.5255 250.159 92.5082 249.922C92.4855 249.691 92.5295 249.372 92.4188 249C92.3815 248.818 92.3402 248.618 92.2962 248.411C92.2242 248.208 92.1135 248.008 92.0455 247.791C91.9868 247.57 91.8628 247.367 91.7282 247.163C91.5895 246.967 91.5028 246.731 91.3175 246.564C91.0282 246.166 90.7028 245.796 90.3282 245.511C89.9962 245.168 89.6188 244.978 89.3148 244.738C89.1668 244.616 88.9828 244.556 88.8482 244.47C88.7055 244.391 88.5815 244.324 88.4788 244.268C88.2775 244.147 88.1628 244.078 88.1628 244.078Z" fill="white"/>
<path d="M139.494 244.078C139.494 244.078 139.627 244.095 139.859 244.126C139.974 244.147 140.114 244.17 140.277 244.199C140.435 244.235 140.619 244.23 140.805 244.331C141.159 244.519 141.683 244.63 142.071 244.979C142.507 245.27 142.906 245.66 143.267 246.096C143.463 246.299 143.555 246.58 143.695 246.816C143.833 247.055 143.954 247.3 144.01 247.56C144.198 248.06 144.202 248.559 144.187 248.976C144.231 249.391 144.027 249.722 143.987 249.947C143.917 250.172 143.866 250.292 143.866 250.292C143.866 250.292 143.858 250.159 143.839 249.922C143.818 249.691 143.862 249.372 143.751 249C143.714 248.818 143.674 248.62 143.63 248.411C143.555 248.208 143.445 248.008 143.378 247.791C143.319 247.57 143.194 247.367 143.061 247.163C142.921 246.967 142.835 246.731 142.647 246.564C142.359 246.166 142.034 245.796 141.661 245.511C141.329 245.168 140.953 244.978 140.646 244.738C140.498 244.616 140.314 244.556 140.181 244.47C140.037 244.391 139.914 244.324 139.811 244.268C139.607 244.147 139.494 244.078 139.494 244.078Z" fill="white"/>
<path d="M206.18 453.923C206.18 455.395 201.525 461.94 195.78 461.94H28.0077C22.2637 461.94 17.6077 455.395 17.6077 453.923L9.77169 433.931C9.77169 432.459 9.55568 427.966 15.297 427.966H208.489C214.236 427.966 214.732 430.739 214.798 431.964C214.865 433.191 206.18 453.923 206.18 453.923Z" fill="#B2B2B2"/>
<path d="M30.1334 349.223C25.2347 349.223 21.2627 353.196 21.2627 358.093V453.361C21.2627 458.261 25.2347 462.233 30.1334 462.233H194.947C199.847 462.233 203.817 458.261 203.817 453.361V358.093C203.817 353.196 199.847 349.223 194.947 349.223H30.1334Z" fill="url(#paint0_linear_65_33)"/>
<path d="M120.9 397.79C120.9 402.406 117.157 406.151 112.54 406.151C107.922 406.151 104.18 402.406 104.18 397.79C104.18 393.17 107.922 389.43 112.54 389.43C117.157 389.43 120.9 393.17 120.9 397.79Z" fill="#696868"/>
<path d="M203.818 453.362C203.818 458.262 199.846 462.234 194.946 462.234H30.1331C25.2358 462.234 21.2625 458.262 21.2625 453.362V358.094C21.2625 353.195 25.2358 349.223 30.1331 349.223H194.946C199.846 349.223 203.818 353.195 203.818 358.094V453.362Z" stroke="#696868" stroke-width="0.945333" stroke-miterlimit="10"/>
<path d="M135.153 7.64001C128.711 12.1813 125.489 18.0453 125.489 25.2307C125.489 30.5853 126.913 35.0666 129.765 38.676C132.613 42.2867 137.287 45.144 143.78 47.2507C146.612 48.1827 149.643 48.952 152.872 49.556C156.103 50.1613 159.168 50.8093 162.069 51.5C164.832 52.156 166.931 53.0987 168.365 54.324C169.799 55.5493 170.516 57.0107 170.516 58.7013C170.516 60.532 170.024 61.9133 169.04 62.8453C168.055 63.78 166.801 64.5573 165.283 65.1787C164.039 65.6627 162.432 66.0067 160.463 66.2147C158.495 66.4213 156.905 66.5267 155.696 66.5267C150.997 66.5267 146.103 65.644 141.008 63.8826C135.912 62.1226 131.311 59.6013 127.2 56.3173H125.024V74.816C129.169 76.5427 133.616 77.968 138.364 79.0907C143.115 80.212 148.684 80.7733 155.076 80.7733C166.128 80.7733 174.875 78.3987 181.319 73.6493C187.761 68.9013 190.981 62.7253 190.981 55.128C190.981 49.808 189.573 45.4813 186.759 42.1466C183.943 38.8133 179.583 36.1813 173.676 34.2467C170.672 33.2787 167.864 32.5187 165.256 31.9667C162.647 31.4133 159.928 30.844 157.096 30.256C152.779 29.3586 149.843 28.3653 148.288 27.276C146.733 26.1893 145.957 24.6267 145.957 22.5867C145.957 21.24 146.44 20.04 147.407 18.9867C148.373 17.9333 149.532 17.148 150.877 16.6293C152.397 16.008 153.979 15.5853 155.619 15.3613C157.26 15.136 158.909 15.0227 160.568 15.0227C165.264 15.0227 169.869 15.86 174.376 17.536C178.884 19.212 182.692 21.292 185.8 23.7786H187.924V6.00801C184.297 4.52401 180.005 3.28799 175.049 2.30399C170.092 1.31866 165.076 0.826658 159.996 0.826658C149.876 0.826658 141.595 3.09735 135.153 7.64001Z" fill="url(#paint1_linear_65_33)"/>
<path d="M252.175 2.22534V50.36C252.175 55.9213 251.024 59.9627 248.727 62.484C246.429 65.0053 242.796 66.2653 237.821 66.2653C232.777 66.2653 229.133 64.9547 226.889 62.3293C224.643 59.7027 223.52 55.7147 223.52 50.36V2.22534H203.521V51.5C203.521 60.9973 206.413 68.2867 212.2 73.364C217.985 78.444 226.527 80.9827 237.821 80.9827C249.116 80.9827 257.665 78.444 263.469 73.364C269.272 68.2867 272.173 60.98 272.173 51.4467V2.22534H252.175Z" fill="url(#paint2_linear_65_33)"/>
<path d="M290.773 2.22537V79.3747H310.669V54.244H323.052C328.684 54.244 333.391 53.468 337.173 51.9134C340.955 50.36 344.383 48.0627 347.459 45.0227C349.703 42.78 351.429 40.0067 352.637 36.7067C353.849 33.408 354.453 30.032 354.453 26.5774C354.453 22.1214 353.632 18.3053 351.991 15.1253C350.349 11.948 347.975 9.34134 344.868 7.30268C342.276 5.61068 339.297 4.34135 335.929 3.49335C332.561 2.64935 328.425 2.22537 323.52 2.22537H290.773ZM310.669 16.6293H314.089C317.372 16.6293 319.997 16.672 321.965 16.7587C323.935 16.844 325.955 17.3013 328.028 18.1293C329.583 18.7493 330.947 19.844 332.121 21.4107C333.295 22.9787 333.884 24.8493 333.884 27.02C333.884 29.2267 333.597 31.0973 333.027 32.6307C332.459 34.1627 331.533 35.4827 330.256 36.5854C328.769 37.8253 326.931 38.652 324.739 39.0654C322.543 39.4814 319.755 39.6854 316.369 39.6854H310.669V16.6293Z" fill="url(#paint3_linear_65_33)"/>
<path d="M368.545 2.22537V79.3747H388.443V54.244H400.825C406.453 54.244 411.164 53.468 414.945 51.9134C418.728 50.36 422.155 48.0627 425.229 45.0227C427.473 42.78 429.201 40.0067 430.412 36.7067C431.619 33.408 432.225 30.032 432.225 26.5774C432.225 22.1214 431.404 18.3053 429.765 15.1253C428.121 11.948 425.748 9.34134 422.637 7.30268C420.048 5.61068 417.072 4.34135 413.7 3.49335C410.335 2.64935 406.196 2.22537 401.293 2.22537H368.545ZM388.443 16.6293H391.861C395.141 16.6293 397.768 16.672 399.736 16.7587C401.704 16.844 403.728 17.3013 405.8 18.1293C407.355 18.7493 408.717 19.844 409.893 21.4107C411.069 22.9787 411.653 24.8493 411.653 27.02C411.653 29.2267 411.369 31.0973 410.797 32.6307C410.229 34.1627 409.307 35.4827 408.025 36.5854C406.541 37.8253 404.704 38.652 402.512 39.0654C400.315 39.4814 397.527 39.6854 394.141 39.6854H388.443V16.6293Z" fill="url(#paint4_linear_65_33)"/>
<path d="M452.38 11.4226C445.333 18.624 441.807 28.4253 441.807 40.8253C441.807 53.124 445.333 62.8907 452.38 70.1267C459.424 77.364 469.149 80.9827 481.549 80.9827C493.987 80.9827 503.727 77.364 510.773 70.1267C517.817 62.8907 521.341 53.124 521.341 40.8253C521.341 28.4253 517.799 18.624 510.719 11.4226C503.64 4.21998 493.912 0.61865 481.549 0.61865C469.149 0.61865 459.424 4.21998 452.38 11.4226ZM474.297 64.9707C471.984 64.004 469.959 62.5013 468.235 60.4626C466.505 58.4253 465.115 55.792 464.063 52.5613C463.011 49.332 462.481 45.4213 462.481 40.8253C462.481 36.336 463.027 32.3894 464.115 28.9854C465.203 25.5853 466.609 22.916 468.336 20.9813C470.204 18.9093 472.247 17.4253 474.477 16.5253C476.705 15.628 479.084 15.1787 481.601 15.1787C484.091 15.1787 486.479 15.6453 488.781 16.5773C491.073 17.5093 493.104 19.012 494.865 21.0853C496.593 23.088 497.992 25.7147 499.063 28.96C500.135 32.208 500.669 36.1453 500.669 40.7747C500.669 45.0933 500.204 48.8493 499.271 52.044C498.336 55.2387 496.904 58.0107 494.972 60.3613C493.243 62.432 491.221 63.96 488.909 64.944C486.591 65.9293 484.159 66.4213 481.601 66.4213C479.047 66.4213 476.609 65.9387 474.297 64.9707Z" fill="url(#paint5_linear_65_33)"/>
<path d="M536.524 2.22537V79.3747H556.316V51.0853H565.535L586.523 79.3747H610.825L585.072 46.3187C589.977 43.9347 593.752 40.948 596.393 37.356C599.037 33.7627 600.357 29.1147 600.357 23.4173C600.357 19.2707 599.505 15.8267 597.791 13.08C596.084 10.3334 593.776 8.09867 590.875 6.37067C588.008 4.644 584.935 3.52003 581.656 3.00137C578.369 2.48403 574.449 2.22537 569.891 2.22537H536.524ZM556.316 16.4214H563.52C565.901 16.4214 567.992 16.484 569.789 16.604C571.583 16.7254 573.156 17.0613 574.503 17.6133C576.435 18.408 577.799 19.4974 578.599 20.8787C579.391 22.26 579.789 23.9174 579.789 25.852C579.789 28.028 579.465 29.7627 578.828 31.0587C578.191 32.3534 577.18 33.5387 575.8 34.6094C574.349 35.7134 572.552 36.4213 570.408 36.7333C568.269 37.044 565.609 37.2 562.432 37.2H556.316V16.4214Z" fill="url(#paint6_linear_65_33)"/>
<path d="M611.809 2.22537V17.148H635.903V79.3747H655.799V17.148H679.891V2.22537H611.809Z" fill="url(#paint7_linear_65_33)"/>
<defs>
<linearGradient id="paint0_linear_65_33" x1="111.914" y1="396.869" x2="115.494" y2="447.5" gradientUnits="userSpaceOnUse">
<stop stop-color="#E7E7E7"/>
<stop offset="1" stop-color="#C7C7C6"/>
</linearGradient>
<linearGradient id="paint1_linear_65_33" x1="125.023" y1="40.8004" x2="679.89" y2="40.8004" gradientUnits="userSpaceOnUse">
<stop stop-color="#23398E"/>
<stop offset="0.983146" stop-color="#263065"/>
<stop offset="1" stop-color="#263065"/>
</linearGradient>
<linearGradient id="paint2_linear_65_33" x1="125.023" y1="40.8004" x2="679.891" y2="40.8004" gradientUnits="userSpaceOnUse">
<stop stop-color="#23398E"/>
<stop offset="0.983146" stop-color="#263065"/>
<stop offset="1" stop-color="#263065"/>
</linearGradient>
<linearGradient id="paint3_linear_65_33" x1="125.023" y1="40.8004" x2="679.891" y2="40.8004" gradientUnits="userSpaceOnUse">
<stop stop-color="#23398E"/>
<stop offset="0.983146" stop-color="#263065"/>
<stop offset="1" stop-color="#263065"/>
</linearGradient>
<linearGradient id="paint4_linear_65_33" x1="125.023" y1="40.8004" x2="679.891" y2="40.8004" gradientUnits="userSpaceOnUse">
<stop stop-color="#23398E"/>
<stop offset="0.983146" stop-color="#263065"/>
<stop offset="1" stop-color="#263065"/>
</linearGradient>
<linearGradient id="paint5_linear_65_33" x1="125.023" y1="40.8004" x2="679.891" y2="40.8004" gradientUnits="userSpaceOnUse">
<stop stop-color="#23398E"/>
<stop offset="0.983146" stop-color="#263065"/>
<stop offset="1" stop-color="#263065"/>
</linearGradient>
<linearGradient id="paint6_linear_65_33" x1="125.023" y1="40.8004" x2="679.891" y2="40.8004" gradientUnits="userSpaceOnUse">
<stop stop-color="#23398E"/>
<stop offset="0.983146" stop-color="#263065"/>
<stop offset="1" stop-color="#263065"/>
</linearGradient>
<linearGradient id="paint7_linear_65_33" x1="125.023" y1="40.8004" x2="679.891" y2="40.8004" gradientUnits="userSpaceOnUse">
<stop stop-color="#23398E"/>
<stop offset="0.983146" stop-color="#263065"/>
<stop offset="1" stop-color="#263065"/>
</linearGradient>
</defs>
</svg>
